<?xml version="1.0" encoding="utf-8"?>
<!-- Generator: Adobe Illustrator 21.0.0, SVG Export Plug-In . SVG Version: 6.00 Build 0)  -->
<svg version="1.1" id="Layer_1" xmlns="http://www.w3.org/2000/svg" xmlns:xlink="http://www.w3.org/1999/xlink" x="0px" y="0px"
	 viewBox="0 0 870 110" style="enable-background:new 0 0 870 110;" xml:space="preserve">
<style type="text/css">
	.st0{display:none;}
	.st1{display:inline;}
	.st2{fill:#FFFFFF;}
	.st3{fill:#231F20;}
</style>
<g class="st0">
	<g class="st1">
		<path class="st2" d="M106.1,4.9l38.9,0c10.8,0,19.2,3,24.8,8.6c4.7,4.7,7.3,11.4,7.3,19.5v0.2c0,13.7-7.4,22.4-18.2,26.4L179.7,90
			l-21.9,0l-18.2-27.2l-14.7,0l0,27.2l-18.7,0L106.1,4.9z M143.8,46.2c9.1,0,14.4-4.9,14.4-12V34c0-8-5.6-12.2-14.7-12.2l-18.6,0
			l0,24.4L143.8,46.2z"/>
		<path class="st2" d="M175.8,57.8v-0.2c0-18.6,13.3-33.9,32.2-33.9c21.8,0,31.7,16.9,31.7,35.4c0,1.5-0.1,3.2-0.2,4.9l-45.4,0
			c1.8,8.4,7.7,12.8,15.9,12.8c6.2,0,10.7-1.9,15.8-6.7l10.6,9.4c-6.1,7.5-14.8,12.2-26.6,12.2C190.3,91.5,175.8,77.7,175.8,57.8z
			 M221.8,52.3c-1.1-8.3-6-13.9-13.7-13.9c-7.7,0-12.6,5.5-14.1,13.9L221.8,52.3z"/>
		<path class="st2" d="M237.8,77.6l11.1-13.3c7.7,6.3,15.7,10.3,25.4,10.3c7.7,0,12.3-3,12.3-8v-0.2c0-4.7-2.9-7.2-17.1-10.8
			c-17.1-4.4-28.2-9.1-28.2-26v-0.2c0-15.4,12.4-25.7,29.8-25.7c12.4,0,23,3.9,31.6,10.8l-9.7,14.1c-7.5-5.2-15-8.4-22.1-8.4
			c-7.2,0-10.9,3.3-10.9,7.4v0.2c0,5.6,3.6,7.4,18.4,11.2c17.3,4.5,27,10.7,27,25.5v0.2c0,16.9-12.9,26.4-31.3,26.4
			C261,91.2,248,86.7,237.8,77.6z"/>
		<path class="st2" d="M307.4,1.2l18.5,0v32.8c4.3-5.5,9.7-10.5,19.1-10.5c14,0,22.1,9.2,22.1,24.2l0,42.2l-18.5,0V53.7
			c0-8.8-4.1-13.3-11.2-13.3c-7.1,0-11.6,4.5-11.6,13.3V90l-18.5,0L307.4,1.2z"/>
		<path class="st2" d="M370,71.3V71c0-14.2,10.8-20.8,26.3-20.8c6.6,0,11.3,1.1,15.9,2.7v-1.1c0-7.7-4.7-11.9-14-11.9
			c-7.1,0-12,1.3-18,3.5l-4.6-14.1c7.2-3.2,14.2-5.2,25.3-5.2c10.1,0,17.4,2.7,22,7.3c4.9,4.9,7.1,12,7.1,20.8V90L412,90V83
			c-4.5,5-10.7,8.3-19.7,8.3C380,91.2,370,84.2,370,71.3z M412.4,67v-3.3c-3.2-1.5-7.3-2.4-11.8-2.4c-7.9,0-12.8,3.2-12.8,9v0.2
			c0,5,4.1,7.9,10.1,7.9C406.6,78.5,412.4,73.7,412.4,67z"/>
		<path class="st2" d="M433.2,24.8l18.5,0V38c3.8-9,9.9-14.8,20.8-14.4V43h-1c-12.3,0-19.8,7.4-19.8,23V90l-18.5,0V24.8z"/>
		<path class="st2" d="M475.8,24.8l18.5,0v9.4c4.5-6.1,10.7-10.6,20.3-10.6c15.2,0,29.7,11.9,29.7,33.7v0.2
			c0,21.8-14.2,33.7-29.7,33.7c-9.9,0-15.9-4.5-20.3-9.7v28l-18.5,0L475.8,24.8z M525.7,57.5v-0.2c0-10.8-7.3-18-15.9-18
			c-8.6,0-15.8,7.2-15.8,18v0.2c0,10.8,7.2,18,15.8,18C518.4,75.5,525.7,68.5,525.7,57.5z"/>
		<path class="st2" d="M546.9,57.8v-0.2c0-18.6,13.3-33.9,32.2-33.9c21.8,0,31.7,16.9,31.7,35.4c0,1.5-0.1,3.2-0.2,4.9l-45.4,0
			c1.8,8.4,7.7,12.8,15.9,12.8c6.2,0,10.7-1.9,15.8-6.7l10.6,9.4c-6.1,7.5-14.8,12.2-26.6,12.2C561.4,91.5,546.9,77.7,546.9,57.8z
			 M592.9,52.3c-1.1-8.3-6-13.9-13.7-13.9c-7.7,0-12.6,5.5-14.1,13.9L592.9,52.3z"/>
		<path class="st2" d="M613.8,24.8l18.5,0V38c3.8-9,9.9-14.8,20.8-14.4V43h-1c-12.3,0-19.8,7.4-19.8,23V90l-18.5,0V24.8z"/>
	</g>
	<g class="st1">
		<rect x="0.2" y="4.9" width="85" height="85"/>
		<rect x="8.2" y="74" class="st2" width="31.9" height="5.3"/>
		<path class="st2" d="M31.2,32.3h-2.3v-3.9h3l0.8-4.5H30V20h3.3l0.8-4.4h4L37.3,20h4.4l0.8-4.4h4L45.8,20h2.3v3.9h-3l-0.8,4.5H47
			v3.9h-3.3l-0.8,4.6h-4l0.8-4.6h-4.4l-0.8,4.6h-4L31.2,32.3z M40.3,28.4l0.8-4.5h-4.4l-0.8,4.5H40.3z"/>
		<path class="st2" d="M8.2,15.6h9.7c2.7,0,4.8,0.7,6.2,2.2c1.2,1.2,1.8,2.8,1.8,4.9v0.1c0,1.7-0.4,3.1-1.3,4.2
			c-0.8,1.1-1.9,1.9-3.3,2.4l5.2,7.6h-5.5l-4.4-6.5h-3.9l0,6.5H8.2V15.6z M17.6,25.9c1.2,0,2-0.3,2.7-0.8c0.6-0.5,0.9-1.3,0.9-2.2
			v-0.1c0-1-0.3-1.8-1-2.3c-0.6-0.5-1.5-0.8-2.7-0.8h-4.6v6.1H17.6z"/>
	</g>
</g>
<g class="st0">
	<g class="st1">
		<path class="st2" d="M136.4,56.4L103.7,4.9h21.9L145.8,39l20.7-34.1h21.3L155.1,56v33.9h-18.7V56.4z"/>
		<path class="st2" d="M166.6,57.7v-0.2c0-18.7,15.1-33.9,35.4-33.9c20.2,0,35.1,14.9,35.1,33.7v0.2c0,18.7-15.1,33.9-35.4,33.9
			C181.6,91.4,166.6,76.4,166.6,57.7z M218.9,57.7v-0.2c0-9.6-6.9-18-17.1-18c-10.6,0-16.9,8.1-16.9,17.7v0.2c0,9.6,6.9,18,17.1,18
			C212.5,75.5,218.9,67.3,218.9,57.7z"/>
		<path class="st2" d="M239.7,67V24.8h18.5v36.3c0,8.7,4.1,13.2,11.2,13.2c7,0,11.5-4.5,11.5-13.2V24.8h18.5v65.1h-18.5v-9.2
			c-4.3,5.5-9.7,10.4-19.1,10.4C247.9,91.1,239.7,81.9,239.7,67z"/>
		<path class="st2" d="M325.5,22.1h-25.9V4.9h70.5v17.3h-25.9v67.8h-18.7V22.1z"/>
		<path class="st2" d="M366.1,24.8h18.5v13.1c3.8-9,9.8-14.8,20.8-14.3v19.3h-1c-12.3,0-19.8,7.4-19.8,23v24.1h-18.5V24.8z"/>
		<path class="st2" d="M401.3,71.2V71c0-14.2,10.8-20.8,26.2-20.8c6.6,0,11.3,1.1,15.9,2.7v-1.1c0-7.7-4.7-11.9-14-11.9
			c-7,0-12,1.3-18,3.5l-4.6-14.1c7.2-3.2,14.2-5.2,25.3-5.2c10.1,0,17.4,2.7,22,7.3c4.9,4.9,7,12,7,20.8v37.8h-17.9v-7
			c-4.5,5-10.7,8.3-19.7,8.3C411.4,91.1,401.3,84.1,401.3,71.2z M443.7,67v-3.3c-3.2-1.5-7.3-2.4-11.8-2.4c-7.9,0-12.8,3.2-12.8,9
			v0.2c0,5,4.1,7.9,10.1,7.9C437.9,78.4,443.7,73.7,443.7,67z"/>
		<path class="st2" d="M463.8,57.7v-0.2c0-18.6,14.2-33.9,34.1-33.9c12.3,0,19.9,4.1,26,10.9l-11.3,12.2c-4.1-4.4-8.3-7.2-14.8-7.2
			c-9.2,0-15.8,8.1-15.8,17.7v0.2c0,10,6.4,18,16.5,18c6.2,0,10.5-2.7,14.9-6.9l10.8,10.9c-6.3,6.9-13.6,11.9-26.6,11.9
			C478.1,91.4,463.8,76.3,463.8,57.7z"/>
		<path class="st2" d="M526.1,1.2h18.5v47.3l21.6-23.7h22.1l-24.8,25.6l25.6,39.5h-21.4l-16.6-26.7l-6.6,6.9v19.8h-18.5V1.2z"/>
	</g>
	<g class="st1">
		<rect x="0.2" y="4.9" width="85" height="85"/>
		<rect x="8.2" y="74" class="st2" width="31.9" height="5.3"/>
		<g>
			<polygon class="st2" points="15.5,28.4 7.4,15.6 12.8,15.6 17.9,24.1 23,15.6 28.3,15.6 20.2,28.3 20.2,36.7 15.5,36.7 			"/>
			<polygon class="st2" points="37.1,19.9 30.7,19.9 30.7,15.6 48.2,15.6 48.2,19.9 41.8,19.9 41.8,36.7 37.1,36.7 			"/>
		</g>
	</g>
</g>
<g class="st0">
	<g class="st1">
		<path class="st2" d="M104.7,57.5v-0.2c0-21.7,14.2-33.7,29.6-33.7c9.8,0,15.9,4.5,20.3,9.7V1.3h18.5V90h-18.5v-9.4
			c-4.5,6.1-10.7,10.6-20.3,10.6C119.2,91.2,104.7,79.3,104.7,57.5z M154.9,57.5v-0.2c0-10.8-7.2-18-15.8-18s-15.9,7-15.9,18v0.2
			c0,10.8,7.3,18,15.9,18S154.9,68.3,154.9,57.5z"/>
		<path class="st2" d="M176.3,57.8v-0.2c0-18.7,15.1-33.9,35.4-33.9c20.2,0,35.1,14.9,35.1,33.7v0.2c0,18.7-15.1,33.9-35.4,33.9
			C191.2,91.4,176.3,76.5,176.3,57.8z M228.5,57.8v-0.2c0-9.6-6.9-18-17.1-18c-10.6,0-16.9,8.1-16.9,17.7v0.2c0,9.6,6.9,18,17.1,18
			C222.2,75.5,228.5,67.4,228.5,57.8z"/>
		<path class="st2" d="M252.9,71.5V40.6h-7.8V24.8h7.8V8.2h18.5v16.6h15.3v15.8h-15.3v27.8c0,4.3,1.8,6.3,6,6.3
			c3.4,0,6.4-0.9,9.1-2.3v14.8c-3.9,2.3-8.4,3.8-14.6,3.8C260.6,91,252.9,86.6,252.9,71.5z"/>
		<path class="st2" d="M307.7,22.2h-25.9V4.9h70.5v17.3h-25.9V90h-18.7V22.2z"/>
		<path class="st2" d="M345.6,24.8h18.5v13.1c3.8-9,9.8-14.8,20.8-14.3v19.3h-1c-12.3,0-19.8,7.4-19.8,23V90h-18.5V24.8z"/>
		<path class="st2" d="M381.7,71.2V71c0-14.2,10.8-20.8,26.2-20.8c6.6,0,11.3,1.1,15.9,2.7v-1.1c0-7.7-4.7-11.9-14-11.9
			c-7,0-12,1.3-18,3.5l-4.6-14.1c7.2-3.2,14.2-5.2,25.3-5.2c10.1,0,17.4,2.7,22,7.3c4.9,4.9,7,12,7,20.8V90h-17.9v-7
			c-4.5,5-10.7,8.3-19.7,8.3C391.8,91.2,381.7,84.1,381.7,71.2z M424.1,67v-3.3c-3.2-1.5-7.3-2.4-11.8-2.4c-7.9,0-12.8,3.2-12.8,9
			v0.2c0,5,4.1,7.9,10.1,7.9C418.3,78.4,424.1,73.7,424.1,67z"/>
		<path class="st2" d="M444.5,57.8v-0.2c0-18.6,14.2-33.9,34.1-33.9c12.3,0,19.9,4.1,26,10.9l-11.3,12.2c-4.1-4.4-8.3-7.2-14.8-7.2
			c-9.2,0-15.8,8.1-15.8,17.7v0.2c0,10,6.4,18,16.5,18c6.2,0,10.5-2.7,14.9-6.9L505,79.5c-6.3,6.9-13.6,11.9-26.6,11.9
			C458.9,91.4,444.5,76.3,444.5,57.8z"/>
		<path class="st2" d="M501.9,57.8v-0.2c0-18.6,13.2-33.9,32.2-33.9c21.7,0,31.7,16.9,31.7,35.4c0,1.5-0.1,3.2-0.2,4.9h-45.3
			c1.8,8.4,7.7,12.8,15.9,12.8c6.2,0,10.7-1.9,15.8-6.7l10.6,9.4c-6.1,7.5-14.8,12.2-26.6,12.2C516.3,91.4,501.9,77.7,501.9,57.8z
			 M547.8,52.3c-1.1-8.3-6-13.9-13.7-13.9c-7.7,0-12.6,5.5-14.1,13.9H547.8z"/>
	</g>
	<g class="st1">
		<rect x="0.2" y="4.9" width="85" height="85"/>
		<rect x="8.2" y="74.6" class="st2" width="31.9" height="5.3"/>
		<path class="st2" d="M8.1,16.1h8.3c6.7,0,11.3,4.6,11.3,10.6v0.1c0,6-4.6,10.7-11.3,10.7H8.1V16.1z M12.8,20.4v12.9h3.6
			c3.8,0,6.4-2.6,6.4-6.4v-0.1c0-3.8-2.6-6.4-6.4-6.4H12.8z"/>
		<polygon class="st2" points="36.3,20.5 29.8,20.5 29.8,16.1 47.5,16.1 47.5,20.5 41,20.5 41,37.5 36.3,37.5 		"/>
	</g>
</g>
<g class="st0">
	<g class="st1">
		<line class="st2" x1="717.9" y1="129.3" x2="718.7" y2="129.3"/>
	</g>
	<g class="st1">
		<rect x="0.2" y="4.9" width="85" height="85"/>
		<rect x="8.2" y="74" class="st2" width="31.9" height="5.3"/>
		<rect x="11.1" y="15.5" class="st2" width="4.7" height="21.2"/>
		<rect x="8.1" y="32.9" class="st2" width="10.6" height="3.9"/>
		<rect x="8.1" y="15.5" class="st2" width="10.6" height="3.9"/>
		<path class="st2" d="M28.9,37.1c-1.7,0-3-0.3-4.2-0.9c-1.1-0.6-2-1.4-2.8-2.2l2.9-3.3c0.6,0.7,1.2,1.2,1.8,1.6
			c0.6,0.4,1.3,0.6,2,0.6c0.9,0,1.6-0.3,2.1-0.8c0.5-0.6,0.8-1.5,0.8-2.7V15.5h4.8v13.9c0,1.3-0.2,2.4-0.5,3.3
			c-0.3,0.9-0.8,1.7-1.5,2.4c-0.6,0.6-1.4,1.1-2.4,1.5C31.1,36.9,30,37.1,28.9,37.1"/>
	</g>
	<g class="st1">
		<path class="st2" d="M106.3,5H125v85.1h-18.7V5z"/>
		<path class="st2" d="M130,24.9h18.5v9.2c4.3-5.5,9.7-10.4,19.1-10.4c14,0,22.1,9.2,22.1,24.2v42.2h-18.5V53.7
			c0-8.7-4.1-13.2-11.2-13.2c-7,0-11.5,4.5-11.5,13.2v36.3H130V24.9z"/>
		<path class="st2" d="M199.6,71.6V40.7h-7.8V24.9h7.8V8.3h18.5v16.6h15.3v15.8h-15.3v27.8c0,4.3,1.8,6.3,6,6.3
			c3.4,0,6.4-0.9,9.1-2.3v14.8c-3.9,2.3-8.4,3.8-14.6,3.8C207.3,91.1,199.6,86.6,199.6,71.6z"/>
		<path class="st2" d="M232.9,57.9v-0.2c0-18.6,13.2-33.9,32.2-33.9c21.8,0,31.7,16.9,31.7,35.4c0,1.5-0.1,3.2-0.2,4.9h-45.3
			c1.8,8.4,7.7,12.8,15.9,12.8c6.2,0,10.7-1.9,15.8-6.7l10.6,9.4c-6.1,7.5-14.8,12.2-26.6,12.2C247.3,91.5,232.9,77.8,232.9,57.9z
			 M278.8,52.4c-1.1-8.3-6-13.9-13.7-13.9c-7.7,0-12.6,5.5-14.1,13.9H278.8z"/>
		<path class="st2" d="M300.3,1.4h18.5v88.7h-18.5V1.4z"/>
		<path class="st2" d="M322.7,1.4h18.5v88.7h-18.5V1.4z"/>
		<path class="st2" d="M345.8,1.4h19.4v16.4h-19.4V1.4z M346.2,24.9h18.5v65.1h-18.5V24.9z"/>
		<path class="st2" d="M366,78.5l11.8-13.1c4.9,5.3,9.6,8.5,15.6,8.5c7,0,11.4-4.3,11.4-14.1V5H424v55.6c0,10.1-2.9,17.6-8,22.7
			c-5.2,5.2-12.9,7.9-22.1,7.9C380.6,91.3,371.9,85.4,366,78.5z"/>
		<path class="st2" d="M454.6,5h18.7v85.1h-18.7V5z"/>
		<path class="st2" d="M480,5h33.2c26.7,0,45.2,18.3,45.2,42.3v0.2c0,23.9-18.5,42.5-45.2,42.5H480V5z M498.7,21.9v51.3h14.5
			c15.3,0,25.6-10.3,25.6-25.4v-0.2c0-15.1-10.3-25.6-25.6-25.6H498.7z"/>
		<path class="st2" d="M562.5,5h64.2v16.6h-45.6v17.3h40.1v16.6h-40.1v17.9h46.2v16.6h-64.8V5z"/>
		<path class="st2" d="M666.3,4.4h17.3L720,90.1h-19.6L692.6,71h-36l-7.8,19.1h-19.1L666.3,4.4z M686,54.5l-11.3-27.6l-11.3,27.6
			H686z"/>
	</g>
</g>
<g class="st0">
	<g class="st1">
		<path class="st2" d="M139.3,4.3h17.3L193,89.9h-19.6l-7.8-19.1h-36l-7.8,19.1h-19.1L139.3,4.3z M159,54.3l-11.3-27.6l-11.3,27.6
			H159z"/>
		<path class="st2" d="M195,24.8h18.5v9.4c4.5-6.1,10.7-10.6,20.3-10.6c15.2,0,29.6,11.9,29.6,33.7v0.2c0,21.7-14.2,33.7-29.6,33.7
			c-9.8,0-15.9-4.5-20.3-9.7v27.9H195V24.8z M245,57.5v-0.2c0-10.8-7.3-18-15.9-18s-15.8,7.2-15.8,18v0.2c0,10.8,7.2,18,15.8,18
			S245,68.4,245,57.5z"/>
		<path class="st2" d="M266,24.8h18.5v9.4c4.5-6.1,10.7-10.6,20.3-10.6c15.2,0,29.6,11.9,29.6,33.7v0.2c0,21.7-14.2,33.7-29.6,33.7
			c-9.8,0-15.9-4.5-20.3-9.7v27.9H266V24.8z M315.9,57.5v-0.2c0-10.8-7.3-18-15.9-18s-15.8,7.2-15.8,18v0.2c0,10.8,7.2,18,15.8,18
			S315.9,68.4,315.9,57.5z"/>
		<path class="st2" d="M337.1,47.7v-0.2c0-24.2,18.2-44,44.3-44c16,0,25.6,5.3,33.5,13.1L403,30.3c-6.6-6-13.2-9.6-21.7-9.6
			c-14.3,0-24.7,11.9-24.7,26.5v0.2c0,14.6,10.1,26.7,24.7,26.7c9.7,0,15.7-3.9,22.4-10l11.9,12c-8.7,9.4-18.5,15.2-34.9,15.2
			C355.7,91.4,337.1,72.1,337.1,47.7z"/>
		<path class="st2" d="M413,57.7v-0.2c0-18.7,15.1-33.9,35.4-33.9c20.2,0,35.1,14.9,35.1,33.7v0.2c0,18.7-15.1,33.9-35.4,33.9
			C428,91.4,413,76.4,413,57.7z M465.3,57.7v-0.2c0-9.6-6.9-18-17.1-18c-10.6,0-16.9,8.1-16.9,17.7v0.2c0,9.6,6.9,18,17.1,18
			C458.9,75.5,465.3,67.3,465.3,57.7z"/>
		<path class="st2" d="M485.9,57.5v-0.2c0-21.7,14.2-33.7,29.6-33.7c9.8,0,15.9,4.5,20.3,9.7V1.2h18.5v88.7h-18.5v-9.4
			c-4.5,6.1-10.7,10.6-20.3,10.6C500.4,91.2,485.9,79.2,485.9,57.5z M536.1,57.5v-0.2c0-10.8-7.2-18-15.8-18s-15.9,7-15.9,18v0.2
			c0,10.8,7.3,18,15.9,18S536.1,68.3,536.1,57.5z"/>
		<path class="st2" d="M557.7,57.7v-0.2c0-18.6,13.2-33.9,32.2-33.9c21.7,0,31.7,16.9,31.7,35.4c0,1.5-0.1,3.2-0.2,4.9h-45.3
			c1.8,8.4,7.7,12.8,15.9,12.8c6.2,0,10.7-1.9,15.8-6.7l10.6,9.4c-6.1,7.5-14.8,12.2-26.6,12.2C572.2,91.4,557.7,77.7,557.7,57.7z
			 M603.6,52.3c-1.1-8.3-6-13.9-13.7-13.9c-7.7,0-12.6,5.5-14.1,13.9H603.6z"/>
	</g>
	<g class="st1">
		<rect x="0.2" y="4.9" width="85" height="85"/>
		<path class="st2" d="M15.8,15.5h4.3l9.1,21.3h-4.9L22.4,32h-8.9l-1.9,4.7H6.8L15.8,15.5z M20.7,27.9l-2.8-6.9l-2.8,6.9H20.7z"/>
		<path class="st2" d="M28,26.3L28,26.3c0-6.2,4.6-11.1,11.2-11.1c4,0,6.5,1.3,8.5,3.3l-3,3.5c-1.7-1.5-3.3-2.4-5.5-2.4
			c-3.6,0-6.2,3-6.2,6.7v0.1c0,3.7,2.5,6.7,6.2,6.7c2.5,0,4-1,5.6-2.5l3,3c-2.2,2.4-4.7,3.8-8.8,3.8C32.7,37.3,28,32.4,28,26.3"/>
		<rect x="8.2" y="74" class="st2" width="31.9" height="5.3"/>
	</g>
</g>
<g class="st0">
	<g class="st1">
		<g>
			<path class="st2" d="M105.8,57.1v-0.2c0-21.7,14.2-33.7,29.6-33.7c9.8,0,15.9,4.5,20.3,9.7V0.8h18.5v88.7h-18.5v-9.4
				c-4.5,6.1-10.7,10.6-20.3,10.6C120.3,90.8,105.8,78.9,105.8,57.1z M156,57.1v-0.2c0-10.8-7.2-18-15.8-18s-15.9,7-15.9,18v0.2
				c0,10.8,7.3,18,15.9,18S156,67.9,156,57.1z"/>
			<path class="st2" d="M176.1,57.3v-0.2c0-18.7,15.1-33.9,35.4-33.9c20.2,0,35.1,14.9,35.1,33.7v0.2c0,18.7-15.1,33.9-35.4,33.9
				C191.1,91,176.1,76.1,176.1,57.3z M228.4,57.3v-0.2c0-9.6-6.9-18-17.1-18c-10.6,0-16.9,8.1-16.9,17.7v0.2c0,9.6,6.9,18,17.1,18
				C222.1,75.1,228.4,66.9,228.4,57.3z"/>
			<path class="st2" d="M253,71.1V40.2h-7.8V24.4h7.8V7.8h18.5v16.6h15.3v15.8h-15.3V68c0,4.3,1.8,6.3,6,6.3c3.4,0,6.4-0.9,9.1-2.3
				v14.8c-3.9,2.3-8.4,3.8-14.6,3.8C260.7,90.6,253,86.1,253,71.1z"/>
			<path class="st2" d="M289.1,47.3V47c0-24.2,18.2-44,44.3-44c16,0,25.6,5.3,33.5,13.1l-11.9,13.7c-6.6-6-13.2-9.6-21.8-9.6
				c-14.3,0-24.7,11.9-24.7,26.5V47c0,14.6,10.1,26.7,24.7,26.7c9.7,0,15.7-3.9,22.4-10l11.9,12c-8.7,9.4-18.5,15.2-34.9,15.2
				C307.7,91,289.1,71.7,289.1,47.3z"/>
			<path class="st2" d="M364.9,57.3v-0.2c0-18.7,15.1-33.9,35.4-33.9c20.2,0,35.1,14.9,35.1,33.7v0.2c0,18.7-15.1,33.9-35.4,33.9
				C379.9,91,364.9,76.1,364.9,57.3z M417.2,57.3v-0.2c0-9.6-6.9-18-17.1-18c-10.6,0-16.9,8.1-16.9,17.7v0.2c0,9.6,6.9,18,17.1,18
				C410.9,75.1,417.2,66.9,417.2,57.3z"/>
			<path class="st2" d="M428.6,24.4h19.6L462.8,68l14.7-43.6h19.2L471,90h-16.8L428.6,24.4z"/>
			<path class="st2" d="M490.1,57.3v-0.2c0-18.6,13.2-33.9,32.2-33.9c21.7,0,31.7,16.9,31.7,35.4c0,1.5-0.1,3.2-0.2,4.9h-45.3
				c1.8,8.4,7.7,12.8,15.9,12.8c6.2,0,10.7-1.9,15.8-6.7l10.6,9.4c-6.1,7.5-14.8,12.2-26.6,12.2C504.5,91,490.1,77.3,490.1,57.3z
				 M536,51.9c-1.1-8.3-6-13.9-13.7-13.9c-7.7,0-12.6,5.5-14.1,13.9H536z"/>
			<path class="st2" d="M556.8,24.4h18.5v13.1c3.8-9,9.8-14.8,20.8-14.3v19.3h-1c-12.3,0-19.8,7.4-19.8,23v24.1h-18.5V24.4z"/>
		</g>
	</g>
	<g class="st1">
		<rect x="0.2" y="4.9" width="85" height="85"/>
		<path class="st2" d="M8.1,15.6h8.3c6.7,0,11.3,4.6,11.3,10.6v0.1c0,6-4.6,10.6-11.3,10.6H8.1V15.6z M12.8,19.8v12.8h3.6
			c3.8,0,6.4-2.6,6.4-6.3v-0.1c0-3.8-2.6-6.4-6.4-6.4H12.8z"/>
		<path class="st2" d="M29.6,26.3L29.6,26.3c0-6.1,4.6-11.1,11.1-11.1c4,0,6.4,1.3,8.4,3.3l-3,3.4c-1.6-1.5-3.3-2.4-5.5-2.4
			c-3.6,0-6.2,3-6.2,6.6v0.1c0,3.7,2.5,6.7,6.2,6.7c2.4,0,3.9-1,5.6-2.5l3,3c-2.2,2.3-4.6,3.8-8.7,3.8
			C34.2,37.2,29.6,32.4,29.6,26.3"/>
		<rect x="8.2" y="74" class="st2" width="31.9" height="5.3"/>
	</g>
</g>
<g class="st0">
	<g class="st1">
		<rect x="0.2" y="4.9" width="85" height="85"/>
		<polygon class="st2" points="28.5,15.6 33.5,15.6 39.1,24.5 44.7,15.6 49.7,15.6 49.7,36.8 45.1,36.8 45.1,22.9 39.1,32 39,32 
			33,23 33,36.8 28.5,36.8 		"/>
		<path class="st2" d="M8.2,15.5h9.7c2.7,0,4.7,0.7,6.2,2.2c1.2,1.2,1.8,2.8,1.8,4.8v0.1c0,1.7-0.4,3.1-1.3,4.2
			c-0.8,1.1-1.9,1.9-3.3,2.4l5.2,7.6H21l-4.4-6.5h-3.8l0,6.5H8.2V15.5z M17.5,25.9c1.2,0,2-0.3,2.7-0.8c0.6-0.5,0.9-1.3,0.9-2.2
			v-0.1c0-1-0.3-1.8-1-2.3c-0.6-0.5-1.5-0.8-2.7-0.8h-4.6v6.1H17.5z"/>
		<rect x="8.2" y="74" class="st2" width="31.9" height="5.3"/>
	</g>
	<g class="st1">
		<path class="st2" d="M106.3,5.3h38.9c10.8,0,19.2,3,24.8,8.6c4.7,4.7,7.3,11.4,7.3,19.4v0.2c0,13.7-7.4,22.4-18.2,26.4l20.8,30.4
			H158l-18.2-27.2h-14.7v27.2h-18.7V5.3z M144,46.6c9.1,0,14.3-4.9,14.3-12v-0.2c0-8-5.6-12.2-14.7-12.2h-18.6v24.4H144z"/>
		<path class="st2" d="M179.6,67.3V25.2h18.5v36.3c0,8.7,4.1,13.2,11.2,13.2s11.5-4.5,11.5-13.2V25.2h18.5v65.1h-18.5v-9.2
			c-4.3,5.5-9.7,10.4-19.1,10.4C187.7,91.5,179.6,82.3,179.6,67.3z"/>
		<path class="st2" d="M261.6,81.8v8.5h-18.5V1.6h18.5v32.9c4.5-6.1,10.7-10.6,20.3-10.6c15.2,0,29.6,11.9,29.6,33.7v0.2
			c0,21.7-14.2,33.7-29.6,33.7C272.1,91.5,266,87,261.6,81.8z M293.1,57.9v-0.2c0-10.8-7.3-18-15.9-18s-15.8,7.2-15.8,18v0.2
			c0,10.8,7.2,18,15.8,18S293.1,68.8,293.1,57.9z"/>
		<path class="st2" d="M352.4,25.2h19.2l-25,66.7c-5,13.2-10.3,18.2-21.4,18.2c-6.7,0-11.7-1.7-16.4-4.5l6.2-13.4
			c2.4,1.5,5.5,2.6,7.9,2.6c3.2,0,4.9-1,6.4-4.3l-25.5-65.4h19.6l14.8,44.3L352.4,25.2z"/>
		<path class="st2" d="M373,5.3h20.2l22.4,36l22.4-36h20.2v85.1h-18.6V34.8l-23.9,36.3h-0.5l-23.7-36v55.2H373V5.3z"/>
		<path class="st2" d="M462.3,1.6h19.4V18h-19.4V1.6z M462.8,25.2h18.5v65.1h-18.5V25.2z"/>
		<path class="st2" d="M485.3,25.2h18.5v9.2c4.3-5.5,9.7-10.4,19.1-10.4c14,0,22.1,9.2,22.1,24.2v42.2h-18.5V54
			c0-8.7-4.1-13.2-11.2-13.2c-7,0-11.5,4.5-11.5,13.2v36.3h-18.5V25.2z"/>
		<path class="st2" d="M546.9,58.1v-0.2c0-18.6,13.2-33.9,32.2-33.9c21.7,0,31.7,16.9,31.7,35.4c0,1.5-0.1,3.2-0.2,4.9h-45.3
			c1.8,8.4,7.7,12.8,15.9,12.8c6.2,0,10.7-1.9,15.8-6.7l10.6,9.4c-6.1,7.5-14.8,12.2-26.6,12.2C561.3,91.8,546.9,78,546.9,58.1z
			 M592.8,52.6c-1.1-8.3-6-13.9-13.7-13.9c-7.7,0-12.6,5.5-14.1,13.9H592.8z"/>
	</g>
</g>
<g class="st0">
	<g class="st1">
		<path class="st2" d="M130.5,22.1h-25.9V4.9H175v17.3h-25.9v67.8h-18.7V22.1z"/>
		<path class="st2" d="M155.7,57.7v-0.2c0-18.6,13.2-33.9,32.2-33.9c21.7,0,31.7,16.9,31.7,35.4c0,1.5-0.1,3.2-0.2,4.9h-45.3
			c1.8,8.4,7.7,12.8,15.9,12.8c6.2,0,10.7-1.9,15.8-6.7l10.6,9.4c-6.1,7.5-14.8,12.2-26.6,12.2C170.2,91.4,155.7,77.7,155.7,57.7z
			 M201.7,52.3c-1.1-8.3-6-13.9-13.7-13.9c-7.7,0-12.6,5.5-14.1,13.9H201.7z"/>
		<path class="st2" d="M220.8,71.2V71c0-14.2,10.8-20.8,26.2-20.8c6.6,0,11.3,1.1,15.9,2.7v-1.1c0-7.7-4.7-11.9-14-11.9
			c-7,0-12,1.3-18,3.5l-4.6-14.1c7.2-3.2,14.2-5.2,25.3-5.2c10.1,0,17.4,2.7,22,7.3c4.9,4.9,7,12,7,20.8v37.8h-17.9v-7
			c-4.5,5-10.7,8.3-19.7,8.3C230.9,91.2,220.8,84.1,220.8,71.2z M263.3,67v-3.3c-3.2-1.5-7.3-2.4-11.8-2.4c-7.9,0-12.8,3.2-12.8,9
			v0.2c0,5,4.1,7.9,10.1,7.9C257.4,78.4,263.3,73.7,263.3,67z"/>
		<path class="st2" d="M284.5,24.8H303v9.2c4.3-5.5,9.8-10.4,19.2-10.4c8.5,0,14.9,3.8,18.3,10.3c5.7-6.7,12.5-10.3,21.4-10.3
			c13.7,0,22,8.3,22,23.9v42.4h-18.5V53.6c0-8.7-3.9-13.2-10.8-13.2s-11.2,4.5-11.2,13.2v36.3H325V53.6c0-8.7-3.9-13.2-10.8-13.2
			S303,44.9,303,53.6v36.3h-18.5V24.8z"/>
		<path class="st2" d="M386,47.7v-0.2c0-24.2,18.2-44,44.3-44c16,0,25.6,5.3,33.5,13.1l-11.9,13.7c-6.6-6-13.2-9.6-21.7-9.6
			c-14.3,0-24.7,11.9-24.7,26.5v0.2c0,14.6,10.1,26.7,24.7,26.7c9.7,0,15.7-3.9,22.4-10l11.9,12c-8.7,9.4-18.5,15.2-34.9,15.2
			C404.6,91.4,386,72.1,386,47.7z"/>
		<path class="st2" d="M466.4,1.2h19.4v16.4h-19.4V1.2z M466.9,24.8h18.5v65.1h-18.5V24.8z"/>
		<path class="st2" d="M496.3,71.5V40.6h-7.8V24.8h7.8V8.2h18.5v16.6h15.3v15.8h-15.3v27.8c0,4.3,1.8,6.3,6,6.3
			c3.4,0,6.4-0.9,9.1-2.3v14.8c-3.9,2.3-8.4,3.8-14.6,3.8C503.9,91,496.3,86.5,496.3,71.5z"/>
		<path class="st2" d="M580.6,24.8h19.2l-25,66.7c-5,13.2-10.3,18.2-21.4,18.2c-6.7,0-11.7-1.7-16.4-4.5l6.2-13.4
			c2.4,1.5,5.5,2.6,7.9,2.6c3.2,0,4.9-1,6.4-4.3L532,24.8h19.6l14.8,44.3L580.6,24.8z"/>
	</g>
	<g class="st1">
		<rect x="0.2" y="4.9" width="85" height="85"/>
		<polygon class="st2" points="14.6,19.8 8.1,19.8 8.1,15.5 25.7,15.5 25.7,19.8 19.2,19.8 19.2,36.8 14.6,36.8 		"/>
		<path class="st2" d="M26,26.2L26,26.2c0-6.1,4.6-11.1,11.1-11.1c4,0,6.4,1.3,8.4,3.3l-3,3.4c-1.6-1.5-3.3-2.4-5.4-2.4
			c-3.6,0-6.2,3-6.2,6.6v0.1c0,3.6,2.5,6.7,6.2,6.7c2.4,0,3.9-1,5.6-2.5l3,3c-2.2,2.3-4.6,3.8-8.7,3.8C30.6,37.1,26,32.3,26,26.2"/>
		<rect x="8.1" y="74" class="st2" width="31.9" height="5.3"/>
	</g>
</g>
<g class="st0">
	<g class="st1">
		<rect x="0.2" y="4.9" width="85" height="85"/>
		<path class="st2" d="M7.7,26.3L7.7,26.3c0-6.2,4.6-11.1,11.2-11.1c4,0,6.5,1.3,8.4,3.3l-3,3.5c-1.7-1.5-3.3-2.4-5.5-2.4
			c-3.6,0-6.2,3-6.2,6.7v0.1c0,3.7,2.5,6.7,6.2,6.7c2.4,0,3.9-1,5.6-2.5l3,3c-2.2,2.4-4.7,3.8-8.8,3.8C12.4,37.3,7.7,32.4,7.7,26.3"
			/>
		<path class="st2" d="M30.8,15.5h4.7v17.4h9.4v4H30.8V15.5z"/>
		<rect x="8.2" y="74" class="st2" width="31.9" height="5.3"/>
	</g>
	<g class="st1">
		<path class="st2" d="M105.6,47.7v-0.2c0-24.2,18.2-44,44.3-44c16,0,25.6,5.3,33.5,13.1l-11.9,13.7c-6.6-6-13.2-9.6-21.7-9.6
			c-14.3,0-24.7,11.9-24.7,26.5v0.2c0,14.6,10.1,26.7,24.7,26.7c9.7,0,15.7-3.9,22.4-10l11.9,12c-8.7,9.4-18.5,15.2-34.9,15.2
			C124.2,91.4,105.6,72.1,105.6,47.7z"/>
		<path class="st2" d="M187.6,4.9h18.7v68h42.4v17h-61.1V4.9z"/>
		<path class="st2" d="M251.3,1.2h19.4v16.4h-19.4V1.2z M251.8,24.8h18.5v65.1h-18.5V24.8z"/>
		<path class="st2" d="M272.7,57.7v-0.2c0-18.7,15.1-33.9,35.4-33.9c20.2,0,35.1,14.9,35.1,33.7v0.2c0,18.7-15.1,33.9-35.4,33.9
			C287.6,91.4,272.7,76.4,272.7,57.7z M324.9,57.7v-0.2c0-9.6-6.9-18-17.1-18c-10.6,0-16.9,8.1-16.9,17.7v0.2c0,9.6,6.9,18,17.1,18
			C318.6,75.5,324.9,67.3,324.9,57.7z"/>
		<path class="st2" d="M345.9,24.8h18.5V34c4.3-5.5,9.7-10.4,19.1-10.4c14,0,22.1,9.2,22.1,24.2v42.2h-18.5V53.6
			c0-8.7-4.1-13.2-11.2-13.2c-7,0-11.5,4.5-11.5,13.2v36.3h-18.5V24.8z"/>
	</g>
</g>
<g class="st0">
	<g class="st1">
		<path class="st2" d="M103.1,4.2h20l17.6,57.6l19.1-57.8h16L195,61.8l17.6-57.6h19.6l-29,85.7h-16.3l-19.2-55.6l-19.2,55.6h-16.3
			L103.1,4.2z"/>
		<path class="st2" d="M219.8,57v-0.2c0-18.6,13.2-33.9,32.2-33.9c21.7,0,31.7,16.9,31.7,35.4c0,1.5-0.1,3.2-0.2,4.9h-45.3
			c1.8,8.4,7.7,12.8,15.9,12.8c6.2,0,10.7-1.9,15.8-6.7l10.6,9.4c-6.1,7.5-14.8,12.2-26.6,12.2C234.2,90.7,219.8,77,219.8,57z
			 M265.7,51.6c-1.1-8.3-6-13.9-13.7-13.9c-7.7,0-12.6,5.5-14.1,13.9H265.7z"/>
		<path class="st2" d="M305.2,80.7v8.5h-18.5V0.5h18.5v32.9c4.5-6.1,10.7-10.6,20.3-10.6c15.2,0,29.6,11.9,29.6,33.7v0.2
			c0,21.7-14.2,33.7-29.6,33.7C315.6,90.4,309.5,85.9,305.2,80.7z M336.6,56.8v-0.2c0-10.8-7.3-18-15.9-18s-15.8,7.2-15.8,18v0.2
			c0,10.8,7.2,18,15.8,18S336.6,67.7,336.6,56.8z"/>
		<path class="st2" d="M352.7,76.8l11.1-13.2c7.7,6.3,15.7,10.3,25.4,10.3c7.7,0,12.3-3,12.3-8v-0.2c0-4.7-2.9-7.2-17.1-10.8
			c-17.1-4.4-28.2-9.1-28.2-26v-0.2c0-15.4,12.4-25.6,29.8-25.6c12.4,0,23,3.9,31.6,10.8l-9.7,14.1c-7.5-5.2-14.9-8.4-22.1-8.4
			c-7.2,0-10.9,3.3-10.9,7.4v0.2c0,5.6,3.6,7.4,18.3,11.2c17.3,4.5,27,10.7,27,25.5v0.2c0,16.9-12.9,26.4-31.2,26.4
			C375.9,90.4,362.9,85.9,352.7,76.8z"/>
		<path class="st2" d="M424.6,70.8V39.9h-7.8V24.1h7.8V7.5h18.5v16.6h15.3v15.8h-15.3v27.8c0,4.3,1.8,6.3,6,6.3
			c3.4,0,6.4-0.9,9.1-2.3v14.8c-3.9,2.3-8.4,3.8-14.6,3.8C432.3,90.3,424.6,85.8,424.6,70.8z"/>
		<path class="st2" d="M457.2,57v-0.2c0-18.7,15.1-33.9,35.4-33.9c20.2,0,35.1,14.9,35.1,33.7v0.2c0,18.7-15.1,33.9-35.4,33.9
			C472.1,90.7,457.2,75.7,457.2,57z M509.4,57v-0.2c0-9.6-6.9-18-17.1-18c-10.6,0-16.9,8.1-16.9,17.7v0.2c0,9.6,6.9,18,17.1,18
			C503.1,74.8,509.4,66.6,509.4,57z"/>
		<path class="st2" d="M530.1,24.1h18.5v13.1c3.8-9,9.8-14.8,20.8-14.3v19.3h-1c-12.3,0-19.8,7.4-19.8,23v24.1h-18.5V24.1z"/>
		<path class="st2" d="M571.7,24.1h18.5v9.2c4.3-5.5,9.8-10.4,19.2-10.4c8.5,0,14.9,3.8,18.3,10.3c5.7-6.7,12.5-10.3,21.4-10.3
			c13.7,0,22,8.3,22,23.9v42.4h-18.5V52.9c0-8.7-3.9-13.2-10.8-13.2s-11.2,4.5-11.2,13.2v36.3h-18.5V52.9c0-8.7-3.9-13.2-10.8-13.2
			s-11.2,4.5-11.2,13.2v36.3h-18.5V24.1z"/>
	</g>
	<g class="st1">
		<rect x="0.2" y="4.9" width="85" height="85"/>
		<path class="st2" d="M33.9,33.7l2.7-3.3c1.9,1.6,3.8,2.6,6.2,2.6c1.9,0,3-0.8,3-2v-0.1c0-1.2-0.7-1.8-4.2-2.7
			c-4.2-1.1-6.9-2.3-6.9-6.5v-0.1c0-3.9,3-6.4,7.3-6.4c3,0,5.6,1,7.8,2.7l-2.4,3.5c-1.8-1.3-3.7-2.1-5.4-2.1c-1.8,0-2.7,0.8-2.7,1.9
			v0.1c0,1.4,0.9,1.9,4.5,2.8c4.2,1.1,6.6,2.7,6.6,6.4v0.1c0,4.2-3.2,6.6-7.7,6.6C39.6,37.1,36.4,36,33.9,33.7"/>
		<polygon class="st2" points="29.7,15.6 26.6,27.9 23,15.6 19.4,15.6 15.7,27.9 12.6,15.6 7.6,15.6 13.7,36.8 17.7,36.8 21.2,24.5 
			24.6,36.8 28.6,36.8 34.7,15.6 		"/>
		<rect x="8.2" y="74" class="st2" width="31.9" height="5.3"/>
	</g>
</g>
<g class="st0">
	<g class="st1">
		<path class="st2" d="M106.5,53.6V5h18.7v48.1c0,13.9,6.9,21,18.3,21s18.3-6.9,18.3-20.4V5h18.7v48c0,25.8-14.5,38.4-37.3,38.4
			S106.5,78.6,106.5,53.6z"/>
		<path class="st2" d="M183.8,24.9h18.5v9.4c4.5-6.1,10.7-10.6,20.3-10.6c15.2,0,29.6,11.9,29.6,33.7v0.2
			c0,21.7-14.2,33.7-29.6,33.7c-9.8,0-15.9-4.5-20.3-9.7v27.9h-18.5V24.9z M233.7,57.6v-0.2c0-10.8-7.3-18-15.9-18
			s-15.8,7.2-15.8,18v0.2c0,10.8,7.2,18,15.8,18S233.7,68.5,233.7,57.6z"/>
		<path class="st2" d="M249.3,81.4l7.9-12.2c7,5.1,14.5,7.8,20.5,7.8c5.3,0,7.8-1.9,7.8-4.9v-0.2c0-4-6.3-5.3-13.5-7.5
			c-9.1-2.7-19.4-6.9-19.4-19.6v-0.2c0-13.2,10.7-20.7,23.8-20.7c8.3,0,17.3,2.8,24.3,7.5l-7,12.8c-6.4-3.8-12.9-6.1-17.6-6.1
			c-4.5,0-6.8,1.9-6.8,4.5v0.2c0,3.6,6.2,5.3,13.2,7.8c9.1,3,19.7,7.4,19.7,19.3v0.2c0,14.5-10.8,21-24.9,21
			C268.1,91.2,257.9,88.2,249.3,81.4z"/>
		<path class="st2" d="M302.9,57.8v-0.2c0-18.7,15.1-33.9,35.4-33.9c20.2,0,35.1,14.9,35.1,33.7v0.2c0,18.7-15.1,33.9-35.4,33.9
			C317.8,91.5,302.9,76.5,302.9,57.8z M355.1,57.8v-0.2c0-9.6-6.9-18-17.1-18c-10.6,0-16.9,8.1-16.9,17.7v0.2c0,9.6,6.9,18,17.1,18
			C348.8,75.6,355.1,67.4,355.1,57.8z"/>
		<path class="st2" d="M375,67.1V24.9h18.5v36.3c0,8.7,4.1,13.2,11.2,13.2c7,0,11.5-4.5,11.5-13.2V24.9h18.5V90h-18.5v-9.2
			c-4.3,5.5-9.7,10.4-19.1,10.4C383.2,91.2,375,82,375,67.1z"/>
		<path class="st2" d="M438.8,24.9h18.5V38c3.8-9,9.8-14.8,20.8-14.3V43h-1c-12.3,0-19.8,7.4-19.8,23V90h-18.5V24.9z"/>
		<path class="st2" d="M476.8,57.8v-0.2c0-18.6,14.2-33.9,34.1-33.9c12.3,0,19.9,4.1,26,10.9l-11.3,12.2c-4.1-4.4-8.3-7.2-14.8-7.2
			c-9.2,0-15.8,8.1-15.8,17.7v0.2c0,10,6.4,18,16.5,18c6.2,0,10.5-2.7,14.9-6.9l10.8,10.9c-6.3,6.9-13.6,11.9-26.6,11.9
			C491.2,91.5,476.8,76.4,476.8,57.8z"/>
		<path class="st2" d="M532.9,57.8v-0.2c0-18.6,13.2-33.9,32.2-33.9c21.7,0,31.7,16.9,31.7,35.4c0,1.5-0.1,3.2-0.2,4.9h-45.3
			c1.8,8.4,7.7,12.8,15.9,12.8c6.2,0,10.7-1.9,15.8-6.7l10.6,9.4c-6.1,7.5-14.8,12.2-26.6,12.2C547.3,91.5,532.9,77.8,532.9,57.8z
			 M578.8,52.4c-1.1-8.3-6-13.9-13.7-13.9c-7.7,0-12.6,5.5-14.1,13.9H578.8z"/>
	</g>
	<g class="st1">
		<rect x="0.2" y="4.9" width="85" height="85"/>
		<g>
			<path class="st2" d="M8.3,27.7V15.4H13v12.1c0,3.5,1.7,5.3,4.6,5.3s4.6-1.7,4.6-5.1V15.4H27v12.1c0,6.5-3.6,9.7-9.4,9.7
				C11.8,37.2,8.3,34,8.3,27.7z"/>
			<path class="st2" d="M29.4,15.4h8.8c5.1,0,8.2,3,8.2,7.4v0.1c0,5-3.9,7.5-8.7,7.5h-3.6v6.4h-4.7V15.4z M37.8,26.2
				c2.4,0,3.7-1.4,3.7-3.2v-0.1c0-2.1-1.5-3.2-3.8-3.2h-3.6v6.6H37.8z"/>
		</g>
		<rect x="8.3" y="74" class="st2" width="32.1" height="5.3"/>
	</g>
</g>
<g class="st0">
	<g class="st1">
		<rect x="0.2" y="4.9" width="85" height="85"/>
		<g>
			<path class="st2" d="M8.2,15.6h8.3c6.7,0,11.3,4.6,11.3,10.5v0.1c0,6-4.6,10.6-11.3,10.6H8.2V15.6z M12.9,19.9v12.8h3.6
				c3.8,0,6.4-2.6,6.4-6.3v-0.1c0-3.8-2.6-6.4-6.4-6.4H12.9z"/>
			<path class="st2" d="M29.7,15.6h8.7c5.1,0,8.1,3,8.1,7.4V23c0,4.9-3.8,7.5-8.6,7.5h-3.6v6.4h-4.7V15.6z M38.1,26.3
				c2.3,0,3.7-1.4,3.7-3.2V23c0-2.1-1.5-3.2-3.8-3.2h-3.6v6.5H38.1z"/>
		</g>
		<rect x="8.2" y="74" class="st2" width="31.9" height="5.3"/>
	</g>
	<g class="st1">
		<path class="st2" d="M104.8,57.5v-0.2c0-21.7,14.2-33.7,29.6-33.7c9.8,0,15.9,4.5,20.3,9.7V1.2h18.5v88.7h-18.5v-9.4
			c-4.5,6.1-10.7,10.6-20.3,10.6C119.2,91.1,104.8,79.2,104.8,57.5z M155,57.5v-0.2c0-10.8-7.2-18-15.8-18s-15.9,7-15.9,18v0.2
			c0,10.8,7.3,18,15.9,18S155,68.3,155,57.5z"/>
		<path class="st2" d="M175.4,57.7v-0.2c0-18.7,15.1-33.9,35.4-33.9c20.2,0,35.1,14.9,35.1,33.7v0.2c0,18.7-15.1,33.9-35.4,33.9
			C190.3,91.4,175.4,76.4,175.4,57.7z M227.6,57.7v-0.2c0-9.6-6.9-18-17.1-18c-10.6,0-16.9,8.1-16.9,17.7v0.2c0,9.6,6.9,18,17.1,18
			C221.3,75.4,227.6,67.3,227.6,57.7z"/>
		<path class="st2" d="M251.1,71.4V40.6h-7.8V24.8h7.8V8.1h18.5v16.6h15.3v15.8h-15.3v27.8c0,4.3,1.8,6.3,6,6.3
			c3.4,0,6.4-0.9,9.1-2.3v14.8c-3.9,2.3-8.4,3.8-14.6,3.8C258.7,91,251.1,86.5,251.1,71.4z"/>
		<path class="st2" d="M288,4.8h34.8c20.3,0,32.6,12,32.6,29.4v0.2c0,19.7-15.3,29.9-34.4,29.9h-14.2v25.5H288V4.8z M321.5,47.7
			c9.4,0,14.8-5.6,14.8-12.9v-0.2c0-8.4-5.8-12.9-15.2-12.9h-14.5v26H321.5z"/>
		<path class="st2" d="M353.5,57.7v-0.2c0-18.6,13.2-33.9,32.2-33.9c21.7,0,31.7,16.9,31.7,35.4c0,1.5-0.1,3.2-0.2,4.9h-45.3
			c1.8,8.4,7.7,12.8,15.9,12.8c6.2,0,10.7-1.9,15.8-6.7l10.6,9.4c-6.1,7.5-14.8,12.2-26.6,12.2C368,91.4,353.5,77.6,353.5,57.7z
			 M399.4,52.2c-1.1-8.3-6-13.9-13.7-13.9c-7.7,0-12.6,5.5-14.1,13.9H399.4z"/>
		<path class="st2" d="M419.2,57.7v-0.2c0-18.6,13.2-33.9,32.2-33.9c21.7,0,31.7,16.9,31.7,35.4c0,1.5-0.1,3.2-0.2,4.9h-45.3
			c1.8,8.4,7.7,12.8,15.9,12.8c6.2,0,10.7-1.9,15.8-6.7l10.6,9.4c-6.1,7.5-14.8,12.2-26.6,12.2C433.7,91.4,419.2,77.6,419.2,57.7z
			 M465.2,52.2c-1.1-8.3-6-13.9-13.7-13.9c-7.7,0-12.6,5.5-14.1,13.9H465.2z"/>
		<path class="st2" d="M485.4,1.2h18.5v47.3l21.6-23.7h22.1l-24.8,25.6l25.6,39.5h-21.4l-16.6-26.7l-6.6,6.9v19.8h-18.5V1.2z"/>
	</g>
</g>
<g class="st0">
	<g class="st1">
		<path class="st2" d="M106.4,4.9h18.7v37.2l34.5-37.2h22.6L147.6,41l36.2,49h-22.5L135,53.7l-9.8,10.2v26h-18.7V4.9z"/>
		<path class="st2" d="M172,57.8v-0.2c0-18.7,15.1-33.9,35.4-33.9c20.2,0,35.1,14.9,35.1,33.7v0.2c0,18.7-15.1,33.9-35.4,33.9
			C187,91.4,172,76.5,172,57.8z M224.3,57.8v-0.2c0-9.6-6.9-18-17.1-18c-10.6,0-16.9,8.1-16.9,17.7v0.2c0,9.6,6.9,18,17.1,18
			C217.9,75.5,224.3,67.3,224.3,57.8z"/>
		<path class="st2" d="M247.6,71.5V40.6h-7.8V24.8h7.8V8.2h18.5v16.6h15.3v15.8h-15.3v27.8c0,4.3,1.8,6.3,6,6.3
			c3.4,0,6.4-0.9,9.1-2.3v14.8c-3.9,2.3-8.4,3.8-14.6,3.8C255.2,91,247.6,86.5,247.6,71.5z"/>
		<path class="st2" d="M284.5,1.3H303v88.7h-18.5V1.3z"/>
		<path class="st2" d="M306.5,1.3h19.4v16.4h-19.4V1.3z M307,24.8h18.5v65.1H307V24.8z"/>
		<path class="st2" d="M328.6,24.8h18.5v9.2c4.3-5.5,9.7-10.4,19.1-10.4c14,0,22.1,9.2,22.1,24.2v42.2h-18.5V53.6
			c0-8.7-4.1-13.2-11.2-13.2c-7,0-11.5,4.5-11.5,13.2v36.3h-18.5V24.8z"/>
	</g>
	<g class="st1">
		<rect x="0.2" y="4.9" width="85" height="85"/>
		<g>
			<path class="st2" d="M8.1,15.5h4.7v9.3l8.6-9.3h5.7l-8.7,9l9.1,12.3h-5.6l-6.6-9.1l-2.5,2.6v6.5H8.1V15.5z"/>
			<path class="st2" d="M34.4,19.9h-6.5v-4.3h17.7v4.3H39v17h-4.7V19.9z"/>
		</g>
		<rect x="8.2" y="74" class="st2" width="31.9" height="5.3"/>
	</g>
</g>
<g class="st0">
	<g class="st1">
		<path class="st2" d="M106.8,4.8h38.9c10.8,0,19.2,3,24.8,8.6c4.7,4.7,7.3,11.4,7.3,19.4v0.2c0,13.7-7.4,22.4-18.2,26.4l20.8,30.4
			h-21.9l-18.2-27.2h-14.7v27.2h-18.7V4.8z M144.4,46.1c9.1,0,14.3-4.9,14.3-12v-0.2c0-8-5.6-12.2-14.7-12.2h-18.6v24.4H144.4z"/>
		<path class="st2" d="M183.2,1.1h19.4v16.4h-19.4V1.1z M183.7,24.7h18.5v65.1h-18.5V24.7z"/>
		<path class="st2" d="M204.6,24.7h19.6l14.6,43.6l14.7-43.6h19.2L247,90.3h-16.8L204.6,24.7z"/>
		<path class="st2" d="M274.4,66.9V24.7h18.5V61c0,8.7,4.1,13.2,11.2,13.2c7,0,11.5-4.5,11.5-13.2V24.7h18.5v65.1h-18.5v-9.2
			c-4.3,5.5-9.7,10.4-19.1,10.4C282.6,91,274.4,81.8,274.4,66.9z"/>
		<path class="st2" d="M336,81.2l7.9-12.2c7,5.1,14.5,7.8,20.5,7.8c5.3,0,7.8-1.9,7.8-4.9v-0.2c0-4-6.3-5.3-13.5-7.5
			c-9.1-2.7-19.4-6.9-19.4-19.6v-0.2c0-13.2,10.7-20.7,23.8-20.7c8.3,0,17.3,2.8,24.3,7.5l-7,12.8c-6.4-3.8-12.9-6.1-17.6-6.1
			c-4.5,0-6.8,1.9-6.8,4.5v0.2c0,3.6,6.2,5.3,13.2,7.8c9.1,3,19.7,7.4,19.7,19.3V70c0,14.5-10.8,21-24.9,21
			C354.9,91,344.7,88,336,81.2z"/>
	</g>
	<g class="st1">
		<rect x="0.2" y="4.9" width="85" height="85"/>
		<g>
			<path class="st2" d="M8.1,15.5h9.7c2.7,0,4.8,0.8,6.2,2.2c1.2,1.2,1.8,2.9,1.8,4.9v0.1c0,3.4-1.9,5.6-4.6,6.6l5.2,7.6H21L16.5,30
				h-3.7v6.8H8.1V15.5z M17.6,25.9c2.3,0,3.6-1.2,3.6-3v-0.1c0-2-1.4-3-3.7-3h-4.6v6.1H17.6z"/>
			<path class="st2" d="M26.6,15.5l5.2,0l5.6,14.9l5.6-14.9l5.1,0l-8.6,21.3l-4.1,0L26.6,15.5z"/>
		</g>
		<rect x="8.2" y="74" class="st2" width="31.9" height="5.3"/>
	</g>
</g>
<g class="st0">
	<g class="st1">
		<rect x="0.2" y="4.9" width="85" height="85"/>
		<g>
			<path class="st2" d="M106.2,4.9l38.9,0c10.8,0,19.2,3,24.8,8.6c4.7,4.7,7.3,11.4,7.3,19.5v0.2c0,13.7-7.4,22.4-18.2,26.4
				L179.8,90l-21.9,0l-18.2-27.2l-14.7,0l0,27.2l-18.7,0L106.2,4.9z M143.9,46.2c9.1,0,14.4-4.9,14.4-12V34c0-8-5.6-12.2-14.7-12.2
				l-18.6,0l0,24.4L143.9,46.2z"/>
			<path class="st2" d="M175.9,57.8v-0.2c0-18.6,13.3-33.9,32.2-33.9c21.8,0,31.7,16.9,31.7,35.4c0,1.5-0.1,3.2-0.2,4.9l-45.4,0
				c1.8,8.4,7.7,12.8,15.9,12.8c6.2,0,10.7-1.9,15.8-6.7l10.6,9.4c-6.1,7.5-14.8,12.2-26.6,12.2C190.4,91.5,175.9,77.7,175.9,57.8z
				 M221.9,52.3c-1.1-8.3-6-13.9-13.7-13.9c-7.7,0-12.6,5.5-14.1,13.9L221.9,52.3z"/>
			<path class="st2" d="M237.9,77.6l11.1-13.3c7.7,6.3,15.7,10.3,25.4,10.3c7.7,0,12.3-3,12.3-8v-0.2c0-4.7-2.9-7.2-17.1-10.8
				c-17.1-4.4-28.2-9.1-28.2-26v-0.2c0-15.4,12.4-25.7,29.8-25.7c12.4,0,23,3.9,31.6,10.8L293,28.6c-7.5-5.2-15-8.4-22.1-8.4
				c-7.2,0-10.9,3.3-10.9,7.4v0.2c0,5.6,3.6,7.4,18.4,11.2c17.3,4.5,27,10.7,27,25.5v0.2c0,16.9-12.9,26.4-31.3,26.4
				C261.1,91.2,248.1,86.7,237.9,77.6z"/>
			<path class="st2" d="M307.5,1.2l18.5,0l0,32.8c4.3-5.5,9.7-10.5,19.1-10.5c14,0,22.1,9.2,22.1,24.2l0,42.2l-18.5,0V53.7
				c0-8.8-4.1-13.3-11.2-13.3c-7.1,0-11.6,4.5-11.6,13.3V90l-18.5,0L307.5,1.2z"/>
			<path class="st2" d="M370.1,71.3V71c0-14.2,10.8-20.8,26.3-20.8c6.6,0,11.3,1.1,15.9,2.7v-1.1c0-7.7-4.7-11.9-14-11.9
				c-7.1,0-12,1.3-18,3.5l-4.6-14.1c7.2-3.2,14.2-5.2,25.3-5.2c10.1,0,17.4,2.7,22,7.3c4.9,4.9,7.1,12,7.1,20.8V90l-17.9,0V83
				c-4.5,5-10.7,8.3-19.7,8.3C380.1,91.2,370.1,84.2,370.1,71.3z M412.5,67v-3.3c-3.2-1.5-7.3-2.4-11.8-2.4c-7.9,0-12.8,3.2-12.8,9
				v0.2c0,5,4.1,7.9,10.1,7.9C406.7,78.5,412.5,73.7,412.5,67z"/>
			<path class="st2" d="M433.3,24.8l18.5,0V38c3.8-9,9.9-14.8,20.8-14.4V43l-1,0c-12.3,0-19.8,7.4-19.8,23V90l-18.5,0V24.8z"/>
			<path class="st2" d="M475.9,24.8l18.5,0v9.4c4.5-6.1,10.7-10.6,20.3-10.6c15.2,0,29.7,11.9,29.7,33.7v0.2
				c0,21.8-14.2,33.7-29.7,33.7c-9.9,0-15.9-4.5-20.3-9.7v28l-18.5,0L475.9,24.8z M525.8,57.5v-0.2c0-10.8-7.3-18-15.9-18
				c-8.6,0-15.8,7.2-15.8,18v0.2c0,10.8,7.2,18,15.8,18C518.5,75.5,525.8,68.5,525.8,57.5z"/>
			<path class="st2" d="M547,57.8v-0.2c0-18.6,13.3-33.9,32.2-33.9C601,23.6,611,40.5,611,59c0,1.5-0.1,3.2-0.2,4.9l-45.4,0
				c1.8,8.4,7.7,12.8,15.9,12.8c6.2,0,10.7-1.9,15.8-6.7l10.6,9.4c-6.1,7.5-14.8,12.2-26.6,12.2C561.5,91.5,547,77.7,547,57.8z
				 M593,52.3c-1.1-8.3-6-13.9-13.7-13.9c-7.7,0-12.6,5.5-14.1,13.9L593,52.3z"/>
			<path class="st2" d="M613.9,24.8l18.5,0l0,13.1c3.8-9,9.9-14.8,20.8-14.4l0,19.3h-1c-12.3,0-19.8,7.4-19.8,23V90l-18.5,0V24.8z"
				/>
		</g>
		<rect x="8.2" y="74" class="st2" width="31.9" height="5.3"/>
		<g>
			<path class="st2" d="M39.4,22.1h-4.8v-4.3h4.8V13h4.4v4.8h4.8v4.3h-4.8v4.8h-4.4V22.1z"/>
		</g>
		<g>
			<path class="st2" d="M31.6,34.2h-4.8v-4.3h4.8v-4.8H36v4.8h4.8v4.3H36V39h-4.4V34.2z"/>
		</g>
		<path class="st2" d="M8.2,15.6h9.7c2.7,0,4.8,0.7,6.2,2.2c1.2,1.2,1.8,2.8,1.8,4.9v0.1c0,1.7-0.4,3.1-1.3,4.2
			c-0.8,1.1-1.9,1.9-3.3,2.4l5.2,7.6h-5.5l-4.4-6.5h-3.9l0,6.5H8.2V15.6z M17.6,25.9c1.2,0,2-0.3,2.7-0.8c0.6-0.5,0.9-1.3,0.9-2.2
			v-0.1c0-1-0.3-1.8-1-2.3c-0.6-0.5-1.5-0.8-2.7-0.8h-4.6v6.1H17.6z"/>
	</g>
	<g class="st1">
		<path class="st2" d="M668.7,47.7v-0.2c0-24.2,18.2-44,44.3-44c16,0,25.6,5.3,33.5,13.1l-11.9,13.7c-6.6-6-13.2-9.6-21.7-9.6
			c-14.3,0-24.7,11.9-24.7,26.5v0.2c0,14.6,10.1,26.7,24.7,26.7c9.7,0,15.7-3.9,22.4-10l11.9,12c-8.7,9.4-18.5,15.2-34.9,15.2
			C687.3,91.4,668.7,72.1,668.7,47.7z"/>
		<path class="st2" d="M765,55.6h-22V38.8h22V16.9h17.3v21.9h22v16.8h-22v21.9H765V55.6z"/>
		<path class="st2" d="M830.6,55.6h-22V38.8h22V16.9h17.3v21.9h22v16.8h-22v21.9h-17.3V55.6z"/>
	</g>
</g>
<g class="st0">
	<g class="st1">
		<rect x="0.2" y="4.9" width="85" height="85"/>
		<path class="st2" d="M8.1,15.5l8.2,0c6.7,0,11.3,4.6,11.3,10.6v0.1c0,6-4.6,10.6-11.3,10.6H8.1V15.5z M12.8,19.7v12.8h3.5
			c3.8,0,6.4-2.6,6.4-6.3v-0.1c0-3.8-2.6-6.4-6.4-6.4H12.8z"/>
		<polygon class="st2" points="28.9,15.6 33.9,15.6 39.5,24.5 45,15.6 50,15.6 50,36.7 45.4,36.7 45.4,22.9 39.5,31.9 39.4,31.9 
			33.5,23 33.5,36.7 28.9,36.7 		"/>
		<rect x="8.2" y="74" class="st2" width="32" height="5.3"/>
	</g>
	<g class="st1">
		<path class="st2" d="M104.8,57.6v-0.2c0-21.7,14.2-33.7,29.6-33.7c9.8,0,15.9,4.5,20.3,9.7V1.3h18.5V90h-18.5v-9.4
			c-4.5,6.1-10.7,10.6-20.3,10.6C119.2,91.3,104.8,79.4,104.8,57.6z M155,57.6v-0.2c0-10.8-7.2-18-15.8-18s-15.9,7-15.9,18v0.2
			c0,10.8,7.3,18,15.9,18S155,68.4,155,57.6z"/>
		<path class="st2" d="M175.4,57.8v-0.2c0-18.7,15.1-33.9,35.4-33.9c20.2,0,35.1,14.9,35.1,33.7v0.2c0,18.7-15.1,33.9-35.4,33.9
			C190.3,91.5,175.4,76.6,175.4,57.8z M227.6,57.8v-0.2c0-9.6-6.9-18-17.1-18c-10.6,0-16.9,8.1-16.9,17.7v0.2c0,9.6,6.9,18,17.1,18
			C221.3,75.6,227.6,67.4,227.6,57.8z"/>
		<path class="st2" d="M251.1,71.6V40.7h-7.8V24.9h7.8V8.3h18.5v16.6h15.3v15.8h-15.3v27.8c0,4.3,1.8,6.3,6,6.3
			c3.4,0,6.4-0.9,9.1-2.3v14.8c-3.9,2.3-8.4,3.8-14.6,3.8C258.7,91.1,251.1,86.6,251.1,71.6z"/>
		<path class="st2" d="M288.5,5h20.2L331,41l22.4-36h20.2V90H355V34.5L331,70.8h-0.5l-23.7-36V90h-18.3V5z"/>
		<path class="st2" d="M376.1,57.8v-0.2c0-18.6,13.2-33.9,32.2-33.9c21.7,0,31.7,16.9,31.7,35.4c0,1.5-0.1,3.2-0.2,4.9h-45.3
			c1.8,8.4,7.7,12.8,15.9,12.8c6.2,0,10.7-1.9,15.8-6.7l10.6,9.4c-6.1,7.5-14.8,12.2-26.6,12.2C390.6,91.5,376.1,77.8,376.1,57.8z
			 M422,52.4c-1.1-8.3-6-13.9-13.7-13.9c-7.7,0-12.6,5.5-14.1,13.9H422z"/>
		<path class="st2" d="M442.3,24.9h18.5v9.2c4.3-5.5,9.8-10.5,19.2-10.5c8.5,0,14.9,3.8,18.3,10.3c5.7-6.7,12.5-10.3,21.4-10.3
			c13.7,0,22,8.3,22,23.9V90h-18.5V53.7c0-8.7-3.9-13.2-10.8-13.2s-11.2,4.5-11.2,13.2V90h-18.5V53.7c0-8.7-3.9-13.2-10.8-13.2
			s-11.2,4.5-11.2,13.2V90h-18.5V24.9z"/>
		<path class="st2" d="M543.2,57.8v-0.2c0-18.7,15.1-33.9,35.4-33.9c20.2,0,35.1,14.9,35.1,33.7v0.2c0,18.7-15.1,33.9-35.4,33.9
			C558.1,91.5,543.2,76.6,543.2,57.8z M595.4,57.8v-0.2c0-9.6-6.9-18-17.1-18c-10.6,0-16.9,8.1-16.9,17.7v0.2c0,9.6,6.9,18,17.1,18
			C589.1,75.6,595.4,67.4,595.4,57.8z"/>
		<path class="st2" d="M615.8,24.9h18.5V38c3.8-9,9.8-14.8,20.8-14.3V43h-1c-12.3,0-19.8,7.4-19.8,23V90h-18.5V24.9z"/>
		<path class="st2" d="M705.6,24.9h19.2l-25,66.7c-5,13.2-10.3,18.2-21.4,18.2c-6.7,0-11.7-1.7-16.4-4.5l6.2-13.4
			c2.4,1.5,5.5,2.6,7.9,2.6c3.2,0,4.9-1,6.4-4.3L657,24.9h19.6l14.8,44.3L705.6,24.9z"/>
	</g>
</g>
<g class="st0">
	<g class="st1">
		<rect x="0.2" y="4.9" width="85" height="85"/>
		<path class="st2" d="M8.1,15.5h8.7c5.1,0,8.1,3,8.1,7.4V23c0,4.9-3.8,7.5-8.6,7.5h-3.6v6.4H8.1V15.5z M16.5,26.3
			c2.3,0,3.7-1.4,3.7-3.2V23c0-2.1-1.5-3.2-3.8-3.2h-3.6v6.5H16.5z"/>
		<path class="st2" d="M26.8,26.2L26.8,26.2c0-6.1,4.6-11.1,11.1-11.1c4,0,6.4,1.3,8.4,3.3l-3,3.4c-1.6-1.5-3.3-2.4-5.4-2.4
			c-3.6,0-6.2,3-6.2,6.6v0.1c0,3.6,2.5,6.7,6.2,6.7c2.4,0,3.9-1,5.6-2.5l3,3c-2.2,2.3-4.6,3.8-8.7,3.8
			C31.5,37.2,26.8,32.3,26.8,26.2"/>
		<rect x="8.2" y="74" class="st2" width="31.9" height="5.3"/>
	</g>
	<g class="st1">
		<path class="st2" d="M106.4,4.9h34.7c20.3,0,32.5,12,32.5,29.4v0.2c0,19.7-15.3,29.9-34.4,29.9h-14.2v25.5h-18.7V4.9z M139.9,47.8
			c9.3,0,14.8-5.6,14.8-12.9v-0.2c0-8.4-5.8-12.9-15.2-12.9h-14.4v26H139.9z"/>
		<path class="st2" d="M223,24.8h19.2l-25,66.7c-5,13.2-10.3,18.2-21.4,18.2c-6.7,0-11.7-1.7-16.4-4.5l6.2-13.4
			c2.4,1.5,5.5,2.5,7.9,2.5c3.2,0,4.9-1,6.4-4.2l-25.5-65.3h19.5l14.8,44.3L223,24.8z"/>
		<path class="st2" d="M239.5,47.6v-0.2c0-24.2,18.2-44,44.3-44c16,0,25.6,5.3,33.5,13.1l-11.9,13.7c-6.6-5.9-13.2-9.6-21.7-9.6
			c-14.3,0-24.6,11.9-24.6,26.5v0.2c0,14.6,10.1,26.7,24.6,26.7c9.7,0,15.7-3.9,22.3-10l11.9,12c-8.7,9.3-18.5,15.2-34.8,15.2
			C258.1,91.3,239.5,72,239.5,47.6z"/>
		<path class="st2" d="M319.7,1.2h18.5V34c4.2-5.5,9.7-10.4,19.1-10.4c14,0,22.1,9.2,22.1,24.2v42.1h-18.5V53.6
			c0-8.7-4.1-13.2-11.2-13.2c-7,0-11.5,4.5-11.5,13.2v36.3h-18.5V1.2z"/>
		<path class="st2" d="M381.8,71.2v-0.2c0-14.2,10.8-20.8,26.2-20.8c6.6,0,11.3,1.1,15.9,2.7v-1.1c0-7.6-4.7-11.9-14-11.9
			c-7,0-12,1.3-18,3.5l-4.6-14.1c7.2-3.2,14.2-5.2,25.3-5.2c10.1,0,17.4,2.7,22,7.3c4.9,4.9,7,12,7,20.8v37.8h-17.8v-7
			c-4.5,5-10.7,8.3-19.7,8.3C391.9,91.1,381.8,84.1,381.8,71.2z M424.2,66.9v-3.3c-3.2-1.5-7.3-2.4-11.8-2.4c-7.9,0-12.7,3.2-12.7,9
			v0.2c0,5,4.1,7.9,10.1,7.9C418.3,78.4,424.2,73.6,424.2,66.9z"/>
		<path class="st2" d="M445.7,24.8h18.5v13.1c3.8-9,9.8-14.8,20.8-14.3v19.3h-1c-12.3,0-19.8,7.4-19.8,22.9v24h-18.5V24.8z"/>
		<path class="st2" d="M488.5,24.8H507V34c4.2-5.5,9.8-10.4,19.2-10.4c8.5,0,14.9,3.8,18.3,10.3c5.7-6.7,12.5-10.3,21.4-10.3
			c13.7,0,22,8.3,22,23.9v42.4h-18.5V53.6c0-8.7-3.9-13.2-10.8-13.2c-6.9,0-11.2,4.5-11.2,13.2v36.3H529V53.6
			c0-8.7-3.9-13.2-10.8-13.2c-6.9,0-11.2,4.5-11.2,13.2v36.3h-18.5V24.8z"/>
	</g>
</g>
<g class="st0">
	<g class="st1">
		<g>
			<rect x="0.2" y="4.9" width="85" height="85"/>
			<rect x="8.2" y="74" class="st2" width="31.9" height="5.3"/>
		</g>
		<g>
			<path class="st2" d="M8.2,15.6h4.7V24h8.6v-8.4h4.7v21.2h-4.7v-8.5h-8.6v8.5H8.2V15.6z"/>
			<path class="st2" d="M29.6,15.6h9.9c2.4,0,4.3,0.7,5.6,1.9c1,1,1.5,2.2,1.5,3.6v0.1c0,2.4-1.3,3.7-2.8,4.6c2.5,0.9,4,2.4,4,5.2
				V31c0,3.9-3.2,5.8-8,5.8H29.6V15.6z M41.8,21.8c0-1.4-1.1-2.2-3.1-2.2h-4.6v4.5h4.3C40.5,24.1,41.8,23.5,41.8,21.8L41.8,21.8z
				 M39.6,28h-5.4v4.7h5.6c2.1,0,3.3-0.7,3.3-2.3v-0.1C43,28.9,42,28,39.6,28z"/>
		</g>
	</g>
	<g class="st1">
		<path class="st2" d="M106.4,4.9h18.7v33.7h34.5V4.9h18.7v85.1h-18.7V55.8h-34.5v34.1h-18.7V4.9z"/>
		<path class="st2" d="M183.4,67V24.8h18.5v36.3c0,8.7,4.1,13.2,11.2,13.2c7,0,11.5-4.5,11.5-13.2V24.8h18.5v65.1h-18.5v-9.2
			c-4.3,5.5-9.7,10.4-19.1,10.4C191.6,91.2,183.4,81.9,183.4,67z"/>
		<path class="st2" d="M267.8,81.4v8.5h-18.5V1.2h18.5v32.9c4.5-6.1,10.7-10.6,20.3-10.6c15.2,0,29.6,11.9,29.6,33.7v0.2
			c0,21.7-14.2,33.7-29.6,33.7C278.2,91.2,272.1,86.7,267.8,81.4z M299.2,57.5v-0.2c0-10.8-7.3-18-15.9-18s-15.8,7.2-15.8,18v0.2
			c0,10.8,7.2,18,15.8,18S299.2,68.4,299.2,57.5z"/>
	</g>
</g>
<g class="st0">
	<g class="st1">
		<path class="st2" d="M53.3,29.7h10.1l11.2,18l11.2-18h10.1v42.5h-9.3V44.5l-12,18.2h-0.2l-11.8-18v27.6h-9.2V29.7z"/>
		<path class="st2" d="M96.8,56.1V56c0-9.3,6.6-16.9,16.1-16.9c10.9,0,15.9,8.4,15.9,17.7c0,0.7-0.1,1.6-0.1,2.4h-22.7
			c0.9,4.2,3.8,6.4,8,6.4c3.1,0,5.3-1,7.9-3.3l5.3,4.7c-3,3.8-7.4,6.1-13.3,6.1C104,72.9,96.8,66.1,96.8,56.1z M119.7,53.4
			c-0.5-4.1-3-6.9-6.9-6.9c-3.8,0-6.3,2.7-7,6.9H119.7z"/>
		<path class="st2" d="M131.6,63V47.6h-3.9v-7.9h3.9v-8.3h9.2v8.3h7.7v7.9h-7.7v13.9c0,2.1,0.9,3.2,3,3.2c1.7,0,3.2-0.4,4.6-1.2v7.4
			c-1.9,1.2-4.2,1.9-7.3,1.9C135.4,72.8,131.6,70.5,131.6,63z"/>
		<path class="st2" d="M149.1,62.9v-0.1c0-7.1,5.4-10.4,13.1-10.4c3.3,0,5.6,0.5,8,1.3v-0.5c0-3.8-2.4-6-7-6c-3.5,0-6,0.7-9,1.8
			l-2.3-7c3.6-1.6,7.1-2.6,12.6-2.6c5,0,8.7,1.3,11,3.6c2.4,2.4,3.5,6,3.5,10.4v18.9h-8.9v-3.5c-2.2,2.5-5.3,4.1-9.8,4.1
			C154.2,72.8,149.1,69.3,149.1,62.9z M170.3,60.7v-1.6c-1.6-0.7-3.6-1.2-5.9-1.2c-3.9,0-6.4,1.6-6.4,4.5v0.1c0,2.5,2.1,3.9,5,3.9
			C167.4,66.5,170.3,64.1,170.3,60.7z"/>
		<path class="st2" d="M194.9,29.7h17.4c10.1,0,16.3,6,16.3,14.7v0.1c0,9.8-7.7,14.9-17.2,14.9h-7.1v12.8h-9.4V29.7z M211.6,51.1
			c4.7,0,7.4-2.8,7.4-6.4v-0.1c0-4.2-2.9-6.4-7.6-6.4h-7.2v13H211.6z"/>
		<path class="st2" d="M229.5,39.7h9.2v6.6c1.9-4.5,4.9-7.4,10.4-7.2v9.7h-0.5c-6.1,0-9.9,3.7-9.9,11.5v12h-9.2V39.7z"/>
		<path class="st2" d="M248.3,56.1V56c0-9.4,7.5-16.9,17.7-16.9c10.1,0,17.6,7.5,17.6,16.8V56c0,9.4-7.5,16.9-17.7,16.9
			C255.8,72.9,248.3,65.5,248.3,56.1z M274.5,56.1V56c0-4.8-3.5-9-8.6-9c-5.3,0-8.4,4.1-8.4,8.9V56c0,4.8,3.5,9,8.6,9
			C271.3,65,274.5,60.9,274.5,56.1z"/>
		<path class="st2" d="M286,78.7l3.2-6.9c3.3,1.9,6.7,3,11,3c6.3,0,9.3-3,9.3-8.9v-1.6c-2.7,3.3-5.7,5.3-10.6,5.3
			c-7.6,0-14.5-5.5-14.5-15.2v-0.1c0-9.7,7-15.2,14.5-15.2c5,0,8,2.1,10.5,4.9v-4.3h9.2v25.2c0,5.8-1.4,10.1-4.1,12.8
			c-3,3-7.7,4.4-14,4.4C295.1,82.1,290.1,80.8,286,78.7z M309.4,54.4v-0.1c0-4.4-3.5-7.5-8-7.5s-7.9,3.1-7.9,7.5v0.1
			c0,4.5,3.4,7.5,7.9,7.5S309.4,58.8,309.4,54.4z"/>
		<path class="st2" d="M320.5,39.7h9.2v6.6c1.9-4.5,4.9-7.4,10.4-7.2v9.7h-0.5c-6.1,0-9.9,3.7-9.9,11.5v12h-9.2V39.7z"/>
		<path class="st2" d="M338.1,62.9v-0.1c0-7.1,5.4-10.4,13.1-10.4c3.3,0,5.6,0.5,8,1.3v-0.5c0-3.8-2.4-6-7-6c-3.5,0-6,0.7-9,1.8
			l-2.3-7c3.6-1.6,7.1-2.6,12.6-2.6c5,0,8.7,1.3,11,3.6c2.4,2.4,3.5,6,3.5,10.4v18.9h-8.9v-3.5c-2.2,2.5-5.3,4.1-9.8,4.1
			C343.2,72.8,338.1,69.3,338.1,62.9z M359.3,60.7v-1.6c-1.6-0.7-3.6-1.2-5.9-1.2c-3.9,0-6.4,1.6-6.4,4.5v0.1c0,2.5,2.1,3.9,5,3.9
			C356.4,66.5,359.3,64.1,359.3,60.7z"/>
		<path class="st2" d="M369.9,39.7h9.2v4.6c2.1-2.7,4.9-5.2,9.6-5.2c4.3,0,7.5,1.9,9.2,5.2c2.9-3.3,6.3-5.2,10.7-5.2
			c6.9,0,11,4.1,11,12v21.2h-9.2V54.1c0-4.4-1.9-6.6-5.4-6.6s-5.6,2.2-5.6,6.6v18.2h-9.2V54.1c0-4.4-1.9-6.6-5.4-6.6
			c-3.5,0-5.6,2.2-5.6,6.6v18.2h-9.2V39.7z"/>
		<path class="st2" d="M421.4,39.7h9.2v4.6c2.1-2.7,4.9-5.2,9.6-5.2c4.3,0,7.5,1.9,9.2,5.2c2.9-3.3,6.3-5.2,10.7-5.2
			c6.9,0,11,4.1,11,12v21.2h-9.2V54.1c0-4.4-1.9-6.6-5.4-6.6s-5.6,2.2-5.6,6.6v18.2h-9.2V54.1c0-4.4-1.9-6.6-5.4-6.6
			c-3.5,0-5.6,2.2-5.6,6.6v18.2h-9.2V39.7z"/>
		<path class="st2" d="M473,27.9h9.7v8.2H473V27.9z M473.3,39.7h9.2v32.6h-9.2V39.7z"/>
		<path class="st2" d="M485,39.7h9.2v4.6c2.1-2.7,4.9-5.2,9.5-5.2c7,0,11.1,4.6,11.1,12.1v21.1h-9.2V54.1c0-4.4-2.1-6.6-5.6-6.6
			s-5.8,2.2-5.8,6.6v18.2H485V39.7z"/>
		<path class="st2" d="M517.7,78.7l3.2-6.9c3.3,1.9,6.7,3,11,3c6.3,0,9.3-3,9.3-8.9v-1.6c-2.7,3.3-5.7,5.3-10.6,5.3
			c-7.6,0-14.5-5.5-14.5-15.2v-0.1c0-9.7,7-15.2,14.5-15.2c5,0,8,2.1,10.5,4.9v-4.3h9.2v25.2c0,5.8-1.4,10.1-4.1,12.8
			c-3,3-7.7,4.4-14,4.4C526.8,82.1,521.8,80.8,517.7,78.7z M541.1,54.4v-0.1c0-4.4-3.5-7.5-8-7.5s-7.9,3.1-7.9,7.5v0.1
			c0,4.5,3.4,7.5,7.9,7.5S541.1,58.8,541.1,54.4z"/>
		<path class="st2" d="M562.3,66l5.5-6.6c3.8,3.2,7.8,5.2,12.7,5.2c3.8,0,6.1-1.5,6.1-4v-0.1c0-2.4-1.5-3.6-8.6-5.4
			c-8.6-2.2-14.1-4.6-14.1-13v-0.1c0-7.7,6.2-12.8,14.9-12.8c6.2,0,11.5,1.9,15.8,5.4l-4.9,7c-3.8-2.6-7.5-4.2-11.1-4.2
			s-5.5,1.6-5.5,3.7v0.1c0,2.8,1.8,3.7,9.2,5.6c8.6,2.2,13.5,5.3,13.5,12.8v0.1c0,8.4-6.4,13.2-15.6,13.2
			C573.9,72.8,567.4,70.6,562.3,66z"/>
		<path class="st2" d="M616.5,39.7h9.6L613.6,73c-2.5,6.6-5.2,9.1-10.7,9.1c-3.3,0-5.8-0.9-8.2-2.2l3.1-6.7c1.2,0.7,2.7,1.3,3.9,1.3
			c1.6,0,2.4-0.5,3.2-2.1l-12.8-32.7h9.8l7.4,22.2L616.5,39.7z"/>
		<path class="st2" d="M622.5,67.9l3.9-6.1c3.5,2.6,7.2,3.9,10.3,3.9c2.7,0,3.9-1,3.9-2.4v-0.1c0-2-3.2-2.7-6.7-3.8
			c-4.6-1.3-9.7-3.5-9.7-9.8v-0.1c0-6.6,5.3-10.3,11.9-10.3c4.1,0,8.6,1.4,12.1,3.8l-3.5,6.4c-3.2-1.9-6.4-3-8.8-3
			c-2.2,0-3.4,1-3.4,2.2v0.1c0,1.8,3.1,2.7,6.6,3.9c4.6,1.5,9.8,3.7,9.8,9.7v0.1c0,7.2-5.4,10.5-12.5,10.5
			C631.9,72.8,626.8,71.3,622.5,67.9z"/>
		<path class="st2" d="M652.8,63V47.6h-3.9v-7.9h3.9v-8.3h9.2v8.3h7.7v7.9H662v13.9c0,2.1,0.9,3.2,3,3.2c1.7,0,3.2-0.4,4.6-1.2v7.4
			c-1.9,1.2-4.2,1.9-7.3,1.9C656.6,72.8,652.8,70.5,652.8,63z"/>
		<path class="st2" d="M669.4,56.1V56c0-9.3,6.6-16.9,16.1-16.9c10.9,0,15.9,8.4,15.9,17.7c0,0.7-0.1,1.6-0.1,2.4h-22.7
			c0.9,4.2,3.8,6.4,8,6.4c3.1,0,5.3-1,7.9-3.3l5.3,4.7c-3,3.8-7.4,6.1-13.3,6.1C676.7,72.9,669.4,66.1,669.4,56.1z M692.4,53.4
			c-0.5-4.1-3-6.9-6.9-6.9c-3.8,0-6.3,2.7-7,6.9H692.4z"/>
		<path class="st2" d="M702.8,39.7h9.2v4.6c2.1-2.7,4.9-5.2,9.6-5.2c4.3,0,7.5,1.9,9.2,5.2c2.9-3.3,6.3-5.2,10.7-5.2
			c6.9,0,11,4.1,11,12v21.2h-9.2V54.1c0-4.4-1.9-6.6-5.4-6.6s-5.6,2.2-5.6,6.6v18.2H723V54.1c0-4.4-1.9-6.6-5.4-6.6
			c-3.5,0-5.6,2.2-5.6,6.6v18.2h-9.2V39.7z"/>
	</g>
	<g class="st1">
		<rect x="0.2" y="29.7" width="42.5" height="42.5"/>
		<rect x="4.2" y="64.2" class="st2" width="15.9" height="2.7"/>
		<polygon class="st2" points="4.1,35.1 7.1,35.1 10.5,40.5 13.8,35.1 16.8,35.1 16.8,47.8 14.1,47.8 14.1,39.5 10.5,45 10.4,45 
			6.9,39.6 6.9,47.8 4.1,47.8 		"/>
		<path class="st2" d="M18.3,35.1l5.2,0c3,0,4.9,1.8,4.9,4.4v0c0,2.9-2.3,4.5-5.1,4.5l-2.1,0l0,3.8l-2.8,0L18.3,35.1z M23.3,41.5
			c1.4,0,2.2-0.8,2.2-1.9v0c0-1.3-0.9-1.9-2.3-1.9l-2.2,0l0,3.9H23.3z"/>
		<path class="st3" d="M29.1,46l1.7-2c1.1,0.9,2.3,1.5,3.8,1.5c1.1,0,1.8-0.5,1.8-1.2v0c0-0.7-0.4-1.1-2.6-1.6
			c-2.6-0.7-4.2-1.4-4.2-3.9l0,0c0-2.3,1.9-3.8,4.5-3.8c1.9,0,3.4,0.6,4.7,1.6l-1.5,2.1c-1.1-0.8-2.2-1.3-3.3-1.3
			c-1.1,0-1.6,0.5-1.6,1.1v0c0,0.8,0.5,1.1,2.7,1.7c2.6,0.7,4,1.6,4,3.8v0c0,2.5-1.9,3.9-4.7,3.9C32.5,48,30.6,47.4,29.1,46"/>
	</g>
</g>
<g class="st0">
	<g class="st1">
		<rect x="0.2" y="4.9" width="85" height="85"/>
		<path class="st2" d="M8.1,15.5l8.7,0c5.1,0,8.2,3,8.2,7.4v0.1c0,4.9-3.8,7.5-8.6,7.5l-3.6,0l0,6.4H8.1L8.1,15.5z M16.5,26.3
			c2.3,0,3.7-1.4,3.7-3.2V23c0-2.1-1.5-3.2-3.8-3.2l-3.6,0l0,6.5L16.5,26.3z"/>
		<path class="st2" d="M26.1,33.8l2.8-3.3c1.9,1.6,3.9,2.6,6.4,2.6c1.9,0,3.1-0.8,3.1-2V31c0-1.2-0.7-1.8-4.3-2.7
			C29.8,27.2,27,26,27,21.7l0-0.1c0-3.9,3.1-6.4,7.5-6.4c3.1,0,5.8,1,7.9,2.7L40,21.5c-1.9-1.3-3.8-2.1-5.6-2.1
			c-1.8,0-2.8,0.8-2.8,1.9l0,0.1c0,1.4,0.9,1.9,4.6,2.8c4.3,1.1,6.8,2.7,6.8,6.4v0.1c0,4.2-3.2,6.6-7.8,6.6
			C32,37.2,28.7,36.1,26.1,33.8"/>
		<rect x="8.1" y="74" class="st2" width="31.9" height="5.3"/>
	</g>
	<g class="st1">
		<path class="st2" d="M106.3,4.9H141c20.3,0,32.6,12,32.6,29.4v0.2c0,19.7-15.3,29.9-34.4,29.9H125v25.5h-18.7V4.9z M139.8,47.8
			c9.4,0,14.8-5.6,14.8-12.9v-0.2c0-8.4-5.8-12.9-15.2-12.9H125v26H139.8z"/>
		<path class="st2" d="M176.9,1.3h18.5v32.8c4.3-5.5,9.7-10.4,19.1-10.4c14,0,22.1,9.2,22.1,24.2v42.2h-18.5V53.6
			c0-8.7-4.1-13.2-11.2-13.2s-11.5,4.5-11.5,13.2v36.3h-18.5V1.3z"/>
		<path class="st2" d="M240.4,24.8h18.5v9.4c4.5-6.1,10.7-10.6,20.3-10.6c15.2,0,29.6,11.9,29.6,33.7v0.2
			c0,21.7-14.2,33.7-29.6,33.7c-9.8,0-15.9-4.5-20.3-9.7v27.9h-18.5V24.8z M290.4,57.5v-0.2c0-10.8-7.3-18-15.9-18
			s-15.8,7.2-15.8,18v0.2c0,10.8,7.2,18,15.8,18S290.4,68.4,290.4,57.5z"/>
		<path class="st2" d="M306,77.6l11.1-13.2c7.7,6.3,15.7,10.3,25.4,10.3c7.7,0,12.3-3,12.3-8v-0.2c0-4.7-2.9-7.2-17.1-10.8
			c-17.1-4.4-28.2-9.1-28.2-26v-0.2c0-15.4,12.4-25.6,29.8-25.6c12.4,0,23,3.9,31.6,10.8l-9.7,14.1c-7.5-5.2-14.9-8.4-22.1-8.4
			c-7.2,0-10.9,3.3-10.9,7.4v0.2c0,5.6,3.6,7.4,18.3,11.2c17.3,4.5,27,10.7,27,25.5v0.2c0,16.9-12.9,26.4-31.2,26.4
			C329.2,91.2,316.2,86.7,306,77.6z"/>
		<path class="st2" d="M377.6,71.5V40.6h-7.8V24.8h7.8V8.2h18.5v16.6h15.3v15.8h-15.3v27.8c0,4.3,1.8,6.3,6,6.3
			c3.4,0,6.4-0.9,9.1-2.3v14.8c-3.9,2.3-8.4,3.8-14.6,3.8C385.2,91,377.6,86.5,377.6,71.5z"/>
		<path class="st2" d="M410.1,57.8v-0.2c0-18.7,15.1-33.9,35.4-33.9c20.2,0,35.1,14.9,35.1,33.7v0.2c0,18.7-15.1,33.9-35.4,33.9
			C425.1,91.4,410.1,76.5,410.1,57.8z M462.4,57.8v-0.2c0-9.6-6.9-18-17.1-18c-10.6,0-16.9,8.1-16.9,17.7v0.2c0,9.6,6.9,18,17.1,18
			C456.1,75.5,462.4,67.3,462.4,57.8z"/>
		<path class="st2" d="M483,24.8h18.5v13.1c3.8-9,9.8-14.8,20.8-14.3v19.3h-1c-12.3,0-19.8,7.4-19.8,23v24.1H483V24.8z"/>
		<path class="st2" d="M524.7,24.8h18.5v9.2c4.3-5.5,9.8-10.4,19.2-10.4c8.5,0,14.9,3.8,18.3,10.3c5.7-6.7,12.5-10.3,21.4-10.3
			c13.7,0,22,8.3,22,23.9v42.4h-18.5V53.6c0-8.7-3.9-13.2-10.8-13.2s-11.2,4.5-11.2,13.2v36.3h-18.5V53.6c0-8.7-3.9-13.2-10.8-13.2
			s-11.2,4.5-11.2,13.2v36.3h-18.5V24.8z"/>
	</g>
</g>
<g class="st0">
	<g class="st1">
		<g>
			<rect x="0.2" y="4.9" width="85" height="85"/>
			<rect x="8" y="74" class="st2" width="31.9" height="5.3"/>
		</g>
		<path class="st2" d="M8.1,15.5h5.1l5.6,9l5.6-9h5.1v21.3h-4.7V22.9l-6,9.1h-0.1l-5.9-9v13.8H8.1V15.5z"/>
		<g>
			<path class="st2" d="M31.7,15.5h9.9c2.4,0,4.3,0.7,5.6,1.9c1,1,1.5,2.2,1.5,3.6v0.1c0,2.4-1.3,3.7-2.8,4.6c2.5,0.9,4,2.4,4,5.2
				v0.1c0,3.9-3.2,5.8-8,5.8H31.7V15.5z M43.9,21.8c0-1.4-1.1-2.2-3.1-2.2h-4.6v4.5h4.3C42.6,24.1,43.9,23.4,43.9,21.8L43.9,21.8z
				 M41.7,28h-5.4v4.7h5.6c2.1,0,3.3-0.7,3.3-2.3v-0.1C45.1,28.9,44.1,28,41.7,28z"/>
		</g>
	</g>
	<g class="st1">
		<path d="M111.5,4.8h20.2l22.4,36l22.4-36h20.2v85.1h-18.6V34.3L154,70.7h-0.5l-23.7-36v55.2h-18.3V4.8z"/>
		<path d="M199.4,57.7v-0.2c0-18.6,13.2-33.9,32.2-33.9c21.7,0,31.7,16.9,31.7,35.4c0,1.5-0.1,3.2-0.2,4.9h-45.3
			c1.8,8.4,7.7,12.8,15.9,12.8c6.2,0,10.7-1.9,15.8-6.7l10.6,9.4c-6.1,7.5-14.8,12.2-26.6,12.2C213.9,91.3,199.4,77.6,199.4,57.7z
			 M245.3,52.2c-1.1-8.3-6-13.9-13.7-13.9c-7.7,0-12.6,5.5-14.1,13.9H245.3z"/>
		<path d="M269,102.8l6.3-13.9c6.7,3.8,13.4,6,22,6c12.6,0,18.6-6.1,18.6-17.7V74c-5.5,6.6-11.4,10.6-21.3,10.6
			c-15.2,0-28.9-11.1-28.9-30.4v-0.2c0-19.4,14-30.4,28.9-30.4c10.1,0,16,4.3,21,9.7v-8.5h18.5v50.4c0,11.7-2.8,20.2-8.3,25.6
			c-6.1,6.1-15.4,8.7-28.1,8.7C287.3,109.6,277.3,107.1,269,102.8z M315.9,54.1v-0.2c0-8.9-6.9-15.1-15.9-15.1s-15.8,6.2-15.8,15.1
			v0.2c0,9,6.8,15.1,15.8,15.1S315.9,63,315.9,54.1z"/>
		<path d="M337.3,71.2v-0.2c0-14.2,10.8-20.8,26.2-20.8c6.6,0,11.3,1.1,15.9,2.7v-1.1c0-7.7-4.7-11.9-14-11.9c-7,0-12,1.3-18,3.5
			l-4.6-14.1c7.2-3.2,14.2-5.2,25.3-5.2c10.1,0,17.4,2.7,22,7.3c4.9,4.9,7,12,7,20.8v37.8h-17.9v-7c-4.5,5-10.7,8.3-19.7,8.3
			C347.4,91.1,337.3,84,337.3,71.2z M379.7,66.9v-3.3c-3.2-1.5-7.3-2.4-11.8-2.4c-7.9,0-12.8,3.2-12.8,9v0.2c0,5,4.1,7.9,10.1,7.9
			C373.9,78.3,379.7,73.6,379.7,66.9z"/>
		<path d="M404.1,4.8h39.5c9.7,0,17.4,2.7,22.2,7.5c3.9,3.9,5.8,8.6,5.8,14.5v0.2c0,9.6-5.1,14.9-11.2,18.3
			c9.8,3.8,15.9,9.5,15.9,20.9v0.2c0,15.6-12.6,23.3-31.8,23.3h-40.5V4.8z M453.1,30c0-5.6-4.4-8.7-12.3-8.7h-18.5v18h17.3
			c8.3,0,13.5-2.7,13.5-9V30z M444,54.8h-21.6v18.7h22.2c8.3,0,13.2-2.9,13.2-9.2V64C457.8,58.3,453.6,54.8,444,54.8z"/>
		<path d="M478.7,71.2v-0.2c0-14.2,10.8-20.8,26.2-20.8c6.6,0,11.3,1.1,15.9,2.7v-1.1c0-7.7-4.7-11.9-14-11.9c-7,0-12,1.3-18,3.5
			l-4.6-14.1c7.2-3.2,14.2-5.2,25.3-5.2c10.1,0,17.4,2.7,22,7.3c4.9,4.9,7,12,7,20.8v37.8h-17.9v-7c-4.5,5-10.7,8.3-19.7,8.3
			C488.8,91.1,478.7,84,478.7,71.2z M521.1,66.9v-3.3c-3.2-1.5-7.3-2.4-11.8-2.4c-7.9,0-12.8,3.2-12.8,9v0.2c0,5,4.1,7.9,10.1,7.9
			C515.3,78.3,521.1,73.6,521.1,66.9z"/>
		<path d="M540.7,81.2l7.9-12.2c7,5.1,14.5,7.8,20.5,7.8c5.3,0,7.8-1.9,7.8-4.9v-0.2c0-4-6.3-5.3-13.5-7.5
			c-9.1-2.7-19.4-6.9-19.4-19.6v-0.2c0-13.2,10.7-20.7,23.8-20.7c8.3,0,17.3,2.8,24.3,7.5l-7,12.8c-6.4-3.8-12.9-6.1-17.6-6.1
			c-4.5,0-6.8,1.9-6.8,4.5v0.2c0,3.6,6.2,5.3,13.2,7.8c9.1,3,19.7,7.4,19.7,19.3v0.2c0,14.5-10.8,21-24.9,21
			C559.5,91.1,549.3,88,540.7,81.2z"/>
		<path d="M594.9,57.7v-0.2c0-18.6,13.2-33.9,32.2-33.9c21.7,0,31.7,16.9,31.7,35.4c0,1.5-0.1,3.2-0.2,4.9h-45.3
			c1.8,8.4,7.7,12.8,15.9,12.8c6.2,0,10.7-1.9,15.8-6.7l10.6,9.4c-6.1,7.5-14.8,12.2-26.6,12.2C609.4,91.3,594.9,77.6,594.9,57.7z
			 M640.9,52.2c-1.1-8.3-6-13.9-13.7-13.9c-7.7,0-12.6,5.5-14.1,13.9H640.9z"/>
	</g>
</g>
<g class="st0">
	<g class="st1">
		<g>
			<rect x="0.2" y="4.9" width="85" height="85"/>
			<rect x="8" y="74" class="st2" width="31.9" height="5.3"/>
		</g>
	</g>
	<g class="st1">
		<g>
			<path class="st2" d="M8.1,15.5h8.3c6.7,0,11.3,4.6,11.3,10.6v0.1c0,6-4.6,10.6-11.3,10.6H8.1V15.5z M12.7,19.7v12.8h3.6
				c3.8,0,6.4-2.6,6.4-6.3v-0.1c0-3.8-2.6-6.4-6.4-6.4H12.7z"/>
			<path class="st2" d="M28.5,26.2L28.5,26.2c0-6.1,4.7-11,11.1-11c3.8,0,6.1,1,8.3,2.9L45,21.6c-1.6-1.4-3.1-2.2-5.6-2.2
				c-3.4,0-6.1,3-6.1,6.6v0.1c0,3.9,2.7,6.7,6.4,6.7c1.7,0,3.2-0.4,4.4-1.3v-3h-4.7v-4h9.2v9.2c-2.2,1.9-5.2,3.4-9.1,3.4
				C33,37.1,28.5,32.5,28.5,26.2z"/>
		</g>
	</g>
	<g class="st1">
		<path class="st2" d="M112,4.8H145c26.7,0,45.1,18.3,45.1,42.2v0.2c0,23.9-18.4,42.4-45.1,42.4H112V4.8z M130.6,21.6v51.1H145
			c15.3,0,25.6-10.3,25.6-25.3v-0.2c0-15-10.3-25.6-25.6-25.6H130.6z"/>
		<path class="st2" d="M189,70.9v-0.2c0-14.2,10.8-20.7,26.2-20.7c6.5,0,11.3,1.1,15.9,2.7v-1.1c0-7.6-4.7-11.9-13.9-11.9
			c-7,0-12,1.3-17.9,3.5l-4.6-14.1c7.2-3.2,14.2-5.2,25.2-5.2c10.1,0,17.3,2.7,21.9,7.3c4.8,4.8,7,12,7,20.7v37.7H231v-7
			c-4.5,5-10.7,8.2-19.6,8.2C199.1,90.8,189,83.8,189,70.9z M231.3,66.7v-3.3c-3.2-1.5-7.3-2.4-11.8-2.4c-7.9,0-12.7,3.2-12.7,9v0.2
			c0,5,4.1,7.9,10.1,7.9C225.5,78.1,231.3,73.4,231.3,66.7z"/>
		<path class="st2" d="M257.3,71.2V40.4h-7.8V24.6h7.8V8h18.4v16.6H291v15.8h-15.3v27.8c0,4.2,1.8,6.3,5.9,6.3
			c3.4,0,6.4-0.8,9.1-2.3v14.8c-3.9,2.3-8.4,3.8-14.5,3.8C264.9,90.7,257.3,86.2,257.3,71.2z"/>
		<path class="st2" d="M292.8,70.9v-0.2c0-14.2,10.8-20.7,26.2-20.7c6.5,0,11.3,1.1,15.9,2.7v-1.1c0-7.6-4.7-11.9-13.9-11.9
			c-7,0-12,1.3-17.9,3.5l-4.6-14.1c7.2-3.2,14.2-5.2,25.2-5.2c10.1,0,17.3,2.7,21.9,7.3c4.8,4.8,7,12,7,20.7v37.7h-17.8v-7
			c-4.5,5-10.7,8.2-19.6,8.2C302.9,90.8,292.8,83.8,292.8,70.9z M335.1,66.7v-3.3c-3.2-1.5-7.3-2.4-11.8-2.4c-7.9,0-12.7,3.2-12.7,9
			v0.2c0,5,4.1,7.9,10.1,7.9C329.3,78.1,335.1,73.4,335.1,66.7z"/>
		<path class="st2" d="M356.1,47.4v-0.2c0-24.1,18.8-43.9,44.5-43.9c15.3,0,24.5,4.1,33.3,11.6l-11.8,14.2
			c-6.5-5.5-12.4-8.6-22.2-8.6c-13.6,0-24.4,12-24.4,26.4v0.2c0,15.5,10.7,26.9,25.7,26.9c6.8,0,12.8-1.7,17.6-5.1V56.9h-18.8V40.8
			h36.8v36.8c-8.7,7.4-20.7,13.5-36.2,13.5C374.2,91.1,356.1,72.5,356.1,47.4z"/>
		<path class="st2" d="M442.4,24.6h18.4v13.1c3.8-9,9.8-14.8,20.7-14.3v19.3h-1c-12.2,0-19.8,7.4-19.8,22.9v24h-18.4V24.6z"/>
		<path class="st2" d="M485.9,1.1h19.4v16.4h-19.4V1.1z M486.4,24.6h18.4v65h-18.4V24.6z"/>
		<path class="st2" d="M512.3,24.6h18.4V34c4.5-6.1,10.7-10.5,20.2-10.5c15.1,0,29.6,11.9,29.6,33.6v0.2c0,21.7-14.2,33.6-29.6,33.6
			c-9.8,0-15.9-4.5-20.2-9.7V109h-18.4V24.6z M562.1,57.3V57c0-10.8-7.3-17.9-15.9-17.9c-8.6,0-15.8,7.2-15.8,17.9v0.2
			c0,10.8,7.2,17.9,15.8,17.9C554.8,75.2,562.1,68.2,562.1,57.3z"/>
	</g>
</g>
<g class="st0">
	<g class="st1">
		<g>
			<rect x="0.2" y="4.9" width="85" height="85"/>
			<rect x="8" y="74" class="st2" width="31.9" height="5.3"/>
		</g>
	</g>
	<g class="st1">
		<path class="st2" d="M112,4.8h38.8c10.8,0,19.1,3,24.7,8.6c4.7,4.7,7.3,11.4,7.3,19.4V33c0,13.7-7.4,22.3-18.2,26.3l20.7,30.3
			h-21.8l-18.2-27.1h-14.7v27.1H112V4.8z M149.5,46c9.1,0,14.3-4.8,14.3-12v-0.2c0-8-5.6-12.1-14.7-12.1h-18.5V46H149.5z"/>
		<path class="st2" d="M186.9,1.1h19.4v16.4h-19.4V1.1z M187.3,24.6h18.4v65h-18.4V24.6z"/>
		<path class="st2" d="M209,57.3V57c0-21.7,14.2-33.6,29.6-33.6c9.8,0,15.9,4.5,20.2,9.7v-32h18.4v88.5h-18.4v-9.3
			c-4.5,6.1-10.7,10.5-20.2,10.5C223.5,90.8,209,78.9,209,57.3z M259.1,57.3V57c0-10.8-7.2-17.9-15.8-17.9c-8.6,0-15.9,7-15.9,17.9
			v0.2c0,10.8,7.3,17.9,15.9,17.9C251.9,75.2,259.1,68,259.1,57.3z"/>
		<path class="st2" d="M279.5,57.5v-0.2c0-18.5,13.2-33.8,32.1-33.8c21.7,0,31.6,16.8,31.6,35.3c0,1.5-0.1,3.2-0.2,4.8h-45.2
			c1.8,8.4,7.6,12.7,15.9,12.7c6.2,0,10.7-1.9,15.8-6.7l10.5,9.3c-6.1,7.5-14.8,12.1-26.5,12.1C293.9,91.1,279.5,77.4,279.5,57.5z
			 M325.3,52c-1.1-8.2-5.9-13.8-13.7-13.8c-7.6,0-12.6,5.5-14.1,13.8H325.3z"/>
		<path class="st2" d="M345.8,24.6h18.4v13.1c3.8-9,9.8-14.8,20.7-14.3v19.3h-1c-12.2,0-19.8,7.4-19.8,22.9v24h-18.4V24.6z"/>
	</g>
	<g class="st1">
		<path class="st2" d="M8.1,15.1h9.7c2.7,0,4.8,0.8,6.2,2.2c1.2,1.2,1.8,2.9,1.8,4.9v0.1c0,3.4-1.9,5.6-4.6,6.6l5.2,7.6H21l-4.6-6.8
			h-3.7v6.8H8.1V15.1z M17.5,25.4c2.3,0,3.6-1.2,3.6-3v-0.1c0-2-1.4-3-3.7-3h-4.6v6.1H17.5z"/>
		<path class="st2" d="M29,15.1h8.3c6.7,0,11.3,4.6,11.3,10.6v0.1c0,6-4.6,10.6-11.3,10.6H29V15.1z M33.6,19.3v12.8h3.6
			c3.8,0,6.4-2.6,6.4-6.3v-0.1c0-3.8-2.6-6.4-6.4-6.4H33.6z"/>
	</g>
</g>
<g>
	<path class="st2" d="M0,74.5l14.7-13.9c4,4.8,7.8,7.7,13,7.7c5.7,0,9.3-3.9,9.3-11.5V4.5h22.7v52.3c0,10.4-2.6,17.7-8.1,23.2
		c-5.4,5.4-13.2,8.4-22.6,8.4C14.6,88.4,5.9,82.4,0,74.5"/>
	<polygon class="st2" points="67.4,4.5 133.7,4.5 133.7,23.8 90,23.8 90,36.5 129.6,36.5 129.6,54.5 90,54.5 90,67.6 134.3,67.6 
		134.3,87 67.4,87 	"/>
	<polygon class="st2" points="160.3,24.6 135.7,24.6 135.7,4.5 207.9,4.5 207.9,24.6 183.2,24.6 183.2,87 160.3,87 	"/>
	<path class="st2" d="M212.1,4.5h42.3c10.4,0,17.7,2.6,22.5,7.3c3.3,3.4,5.3,7.8,5.3,13.4v0.2c0,9.5-5.4,15.2-12.7,18.4
		c10,3.3,16.4,9,16.4,20.1v0.2c0,14.1-11.5,22.7-31.2,22.7h-42.5V4.5z M259.7,30c0-4.6-3.7-7.1-10.4-7.1h-15v14.5h14.4
		c7,0,11-2.4,11-7.2V30z M251.8,53.4h-17.4v15.2H252c7.1,0,11-2.7,11-7.5v-0.2C263,56.4,259.4,53.4,251.8,53.4"/>
	<path class="st2" d="M290.4,4.5h39c12.6,0,21.3,3.3,26.9,8.8c4.8,4.8,7.3,11.1,7.3,19.2v0.2c0,12.7-6.7,21.1-17,25.4L366.3,87H340
		l-16.6-25h-10.1v25h-22.9V4.5z M328.5,44.1c7.7,0,12.3-3.8,12.3-9.8v-0.2c0-6.6-4.8-9.9-12.4-9.9h-15.1v19.9H328.5z"/>
	<path class="st2" d="M396.2,3.9h22L453.4,87h-24.5L423,72.2H391L385.1,87h-23.9L396.2,3.9z M416.2,54.4L407.1,31l-9.3,23.3H416.2z"
		/>
	<rect x="456.1" y="4.5" class="st2" width="22.9" height="82.5"/>
	<polygon class="st2" points="488.1,4.5 509.4,4.5 543.4,48.1 543.4,4.5 566,4.5 566,87 546.1,87 510.7,41.8 510.7,87 488.1,87 	"/>
	<path class="st2" d="M568.5,74.7l12.7-15.2c8.2,6.5,17.2,9.9,26.7,9.9c6.2,0,9.5-2.1,9.5-5.7v-0.2c0-3.5-2.7-5.3-14-8
		c-17.6-4-31.1-9-31.1-25.8v-0.2c0-15.3,12.1-26.4,31.9-26.4c14,0,25,3.8,33.9,11l-11.4,16.1c-7.5-5.4-15.8-8.1-23.1-8.1
		c-5.5,0-8.2,2.2-8.2,5.3v0.2c0,3.8,2.8,5.4,14.4,8c18.9,4.1,30.6,10.3,30.6,25.7v0.2c0,16.8-13.3,26.9-33.3,26.9
		C592.5,88.4,578.7,83.8,568.5,74.7"/>
</g>
</svg>
