<?xml version="1.0" encoding="utf-8"?>
<!-- Generator: Adobe Illustrator 21.0.0, SVG Export Plug-In . SVG Version: 6.00 Build 0)  -->
<svg version="1.1" id="Layer_1" xmlns="http://www.w3.org/2000/svg" xmlns:xlink="http://www.w3.org/1999/xlink" x="0px" y="0px"
	 viewBox="0 0 870 160" style="enable-background:new 0 0 870 160;" xml:space="preserve">
<style type="text/css">
	.st0{display:none;}
	.st1{display:inline;}
	.st2{fill:#FFFFFF;}
	.st3{fill:none;}
	.st4{fill:#231F20;}
	.st5{fill:url(#SVGID_1_);}
</style>
<g class="st0">
	<g class="st1">
		<path class="st2" d="M106.1,24.9H145c10.8,0,19.2,3,24.8,8.6c4.7,4.7,7.3,11.4,7.3,19.5v0.2c0,13.7-7.4,22.4-18.2,26.4l20.8,30.4
			h-21.9l-18.2-27.2h-14.7V110h-18.7L106.1,24.9z M143.8,66.2c9.1,0,14.4-4.9,14.4-12V54c0-8-5.6-12.2-14.7-12.2h-18.6v24.4H143.8z"
			/>
		<path class="st2" d="M175.8,77.8v-0.2c0-18.6,13.3-33.9,32.2-33.9c21.8,0,31.7,16.9,31.7,35.4c0,1.5-0.1,3.2-0.2,4.9h-45.4
			c1.8,8.4,7.7,12.8,15.9,12.8c6.2,0,10.7-1.9,15.8-6.7l10.6,9.4c-6.1,7.5-14.8,12.2-26.6,12.2C190.3,111.5,175.8,97.7,175.8,77.8z
			 M221.8,72.3c-1.1-8.3-6-13.9-13.7-13.9s-12.6,5.5-14.1,13.9H221.8z"/>
		<path class="st2" d="M237.8,97.6l11.1-13.3c7.7,6.3,15.7,10.3,25.4,10.3c7.7,0,12.3-3,12.3-8v-0.2c0-4.7-2.9-7.2-17.1-10.8
			c-17.1-4.4-28.2-9.1-28.2-26v-0.2c0-15.4,12.4-25.7,29.8-25.7c12.4,0,23,3.9,31.6,10.8L293,48.6c-7.5-5.2-15-8.4-22.1-8.4
			c-7.2,0-10.9,3.3-10.9,7.4v0.2c0,5.6,3.6,7.4,18.4,11.2c17.3,4.5,27,10.7,27,25.5v0.2c0,16.9-12.9,26.4-31.3,26.4
			C261,111.2,248,106.7,237.8,97.6z"/>
		<path class="st2" d="M307.4,21.2h18.5V54c4.3-5.5,9.7-10.5,19.1-10.5c14,0,22.1,9.2,22.1,24.2v42.2h-18.5V73.7
			c0-8.8-4.1-13.3-11.2-13.3s-11.6,4.5-11.6,13.3V110h-18.5L307.4,21.2z"/>
		<path class="st2" d="M370,91.3V91c0-14.2,10.8-20.8,26.3-20.8c6.6,0,11.3,1.1,15.9,2.7v-1.1c0-7.7-4.7-11.9-14-11.9
			c-7.1,0-12,1.3-18,3.5l-4.6-14.1c7.2-3.2,14.2-5.2,25.3-5.2c10.1,0,17.4,2.7,22,7.3c4.9,4.9,7.1,12,7.1,20.8V110h-18v-7
			c-4.5,5-10.7,8.3-19.7,8.3C380,111.2,370,104.2,370,91.3z M412.4,87v-3.3c-3.2-1.5-7.3-2.4-11.8-2.4c-7.9,0-12.8,3.2-12.8,9v0.2
			c0,5,4.1,7.9,10.1,7.9C406.6,98.5,412.4,93.7,412.4,87z"/>
		<path class="st2" d="M433.2,44.8h18.5V58c3.8-9,9.9-14.8,20.8-14.4V63h-1c-12.3,0-19.8,7.4-19.8,23v24h-18.5V44.8z"/>
		<path class="st2" d="M475.8,44.8h18.5v9.4c4.5-6.1,10.7-10.6,20.3-10.6c15.2,0,29.7,11.9,29.7,33.7v0.2
			c0,21.8-14.2,33.7-29.7,33.7c-9.9,0-15.9-4.5-20.3-9.7v28h-18.5V44.8z M525.7,77.5v-0.2c0-10.8-7.3-18-15.9-18s-15.8,7.2-15.8,18
			v0.2c0,10.8,7.2,18,15.8,18C518.4,95.5,525.7,88.5,525.7,77.5z"/>
		<path class="st2" d="M546.9,77.8v-0.2c0-18.6,13.3-33.9,32.2-33.9c21.8,0,31.7,16.9,31.7,35.4c0,1.5-0.1,3.2-0.2,4.9h-45.4
			c1.8,8.4,7.7,12.8,15.9,12.8c6.2,0,10.7-1.9,15.8-6.7l10.6,9.4c-6.1,7.5-14.8,12.2-26.6,12.2C561.4,111.5,546.9,97.7,546.9,77.8z
			 M592.9,72.3c-1.1-8.3-6-13.9-13.7-13.9s-12.6,5.5-14.1,13.9H592.9z"/>
		<path class="st2" d="M613.8,44.8h18.5V58c3.8-9,9.9-14.8,20.8-14.4V63h-1c-12.3,0-19.8,7.4-19.8,23v24h-18.5V44.8z"/>
	</g>
	<g class="st1">
		<rect x="0.2" y="24.9" width="85" height="85"/>
		<rect x="8.2" y="94" class="st2" width="31.9" height="5.3"/>
		<path class="st2" d="M31.2,52.3h-2.3v-3.9h3l0.8-4.5H30V40h3.3l0.8-4.4h4L37.3,40h4.4l0.8-4.4h4L45.8,40h2.3v3.9h-3l-0.8,4.5H47
			v3.9h-3.3l-0.8,4.6h-4l0.8-4.6h-4.4l-0.8,4.6h-4L31.2,52.3z M40.3,48.4l0.8-4.5h-4.4l-0.8,4.5H40.3z"/>
		<path class="st2" d="M8.2,35.6h9.7c2.7,0,4.8,0.7,6.2,2.2c1.2,1.2,1.8,2.8,1.8,4.9v0.1c0,1.7-0.4,3.1-1.3,4.2
			c-0.8,1.1-1.9,1.9-3.3,2.4l5.2,7.6H21l-4.4-6.5h-3.9V57H8.2V35.6z M17.6,45.9c1.2,0,2-0.3,2.7-0.8c0.6-0.5,0.9-1.3,0.9-2.2v-0.1
			c0-1-0.3-1.8-1-2.3c-0.6-0.5-1.5-0.8-2.7-0.8h-4.6v6.1L17.6,45.9L17.6,45.9z"/>
	</g>
</g>
<g class="st0">
	<g class="st1">
		<path class="st2" d="M136.4,76.4l-32.7-51.5h21.9L145.8,59l20.7-34.1h21.3L155.1,76v33.9h-18.7L136.4,76.4L136.4,76.4z"/>
		<path class="st2" d="M166.6,77.7v-0.2c0-18.7,15.1-33.9,35.4-33.9c20.2,0,35.1,14.9,35.1,33.7v0.2c0,18.7-15.1,33.9-35.4,33.9
			C181.6,111.4,166.6,96.4,166.6,77.7z M218.9,77.7v-0.2c0-9.6-6.9-18-17.1-18c-10.6,0-16.9,8.1-16.9,17.7v0.2c0,9.6,6.9,18,17.1,18
			C212.5,95.5,218.9,87.3,218.9,77.7z"/>
		<path class="st2" d="M239.7,87V44.8h18.5v36.3c0,8.7,4.1,13.2,11.2,13.2c7,0,11.5-4.5,11.5-13.2V44.8h18.5v65.1h-18.5v-9.2
			c-4.3,5.5-9.7,10.4-19.1,10.4C247.9,111.1,239.7,101.9,239.7,87z"/>
		<path class="st2" d="M325.5,42.1h-25.9V24.9h70.5v17.3h-25.9V110h-18.7V42.1z"/>
		<path class="st2" d="M366.1,44.8h18.5v13.1c3.8-9,9.8-14.8,20.8-14.3v19.3h-1c-12.3,0-19.8,7.4-19.8,23V110h-18.5V44.8z"/>
		<path class="st2" d="M401.3,91.2V91c0-14.2,10.8-20.8,26.2-20.8c6.6,0,11.3,1.1,15.9,2.7v-1.1c0-7.7-4.7-11.9-14-11.9
			c-7,0-12,1.3-18,3.5l-4.6-14.1c7.2-3.2,14.2-5.2,25.3-5.2c10.1,0,17.4,2.7,22,7.3c4.9,4.9,7,12,7,20.8V110h-17.9v-7
			c-4.5,5-10.7,8.3-19.7,8.3C411.4,111.1,401.3,104.1,401.3,91.2z M443.7,87v-3.3c-3.2-1.5-7.3-2.4-11.8-2.4c-7.9,0-12.8,3.2-12.8,9
			v0.2c0,5,4.1,7.9,10.1,7.9C437.9,98.4,443.7,93.7,443.7,87z"/>
		<path class="st2" d="M463.8,77.7v-0.2c0-18.6,14.2-33.9,34.1-33.9c12.3,0,19.9,4.1,26,10.9l-11.3,12.2c-4.1-4.4-8.3-7.2-14.8-7.2
			c-9.2,0-15.8,8.1-15.8,17.7v0.2c0,10,6.4,18,16.5,18c6.2,0,10.5-2.7,14.9-6.9l10.8,10.9c-6.3,6.9-13.6,11.9-26.6,11.9
			C478.1,111.4,463.8,96.3,463.8,77.7z"/>
		<path class="st2" d="M526.1,21.2h18.5v47.3l21.6-23.7h22.1l-24.8,25.6l25.6,39.5h-21.4l-16.6-26.7l-6.6,6.9v19.8H526L526.1,21.2
			L526.1,21.2z"/>
	</g>
	<g class="st1">
		<rect x="0.2" y="24.9" width="85" height="85"/>
		<rect x="8.2" y="94" class="st2" width="31.9" height="5.3"/>
		<g>
			<polygon class="st2" points="15.5,48.4 7.4,35.6 12.8,35.6 17.9,44.1 23,35.6 28.3,35.6 20.2,48.3 20.2,56.7 15.5,56.7 			"/>
			<polygon class="st2" points="37.1,39.9 30.7,39.9 30.7,35.6 48.2,35.6 48.2,39.9 41.8,39.9 41.8,56.7 37.1,56.7 			"/>
		</g>
	</g>
</g>
<g class="st0">
	<g class="st1">
		<path class="st2" d="M104.7,77.5v-0.2c0-21.7,14.2-33.7,29.6-33.7c9.8,0,15.9,4.5,20.3,9.7v-32h18.5V110h-18.5v-9.4
			c-4.5,6.1-10.7,10.6-20.3,10.6C119.2,111.2,104.7,99.3,104.7,77.5z M154.9,77.5v-0.2c0-10.8-7.2-18-15.8-18s-15.9,7-15.9,18v0.2
			c0,10.8,7.3,18,15.9,18S154.9,88.3,154.9,77.5z"/>
		<path class="st2" d="M176.3,77.8v-0.2c0-18.7,15.1-33.9,35.4-33.9c20.2,0,35.1,14.9,35.1,33.7v0.2c0,18.7-15.1,33.9-35.4,33.9
			C191.2,111.4,176.3,96.5,176.3,77.8z M228.5,77.8v-0.2c0-9.6-6.9-18-17.1-18c-10.6,0-16.9,8.1-16.9,17.7v0.2c0,9.6,6.9,18,17.1,18
			C222.2,95.5,228.5,87.4,228.5,77.8z"/>
		<path class="st2" d="M252.9,91.5V60.6h-7.8V44.8h7.8V28.2h18.5v16.6h15.3v15.8h-15.3v27.8c0,4.3,1.8,6.3,6,6.3
			c3.4,0,6.4-0.9,9.1-2.3v14.8c-3.9,2.3-8.4,3.8-14.6,3.8C260.6,111,252.9,106.6,252.9,91.5z"/>
		<path class="st2" d="M307.7,42.2h-25.9V24.9h70.5v17.3h-25.9V110h-18.7V42.2z"/>
		<path class="st2" d="M345.6,44.8h18.5v13.1c3.8-9,9.8-14.8,20.8-14.3v19.3h-1c-12.3,0-19.8,7.4-19.8,23V110h-18.5V44.8z"/>
		<path class="st2" d="M381.7,91.2V91c0-14.2,10.8-20.8,26.2-20.8c6.6,0,11.3,1.1,15.9,2.7v-1.1c0-7.7-4.7-11.9-14-11.9
			c-7,0-12,1.3-18,3.5l-4.6-14.1c7.2-3.2,14.2-5.2,25.3-5.2c10.1,0,17.4,2.7,22,7.3c4.9,4.9,7,12,7,20.8V110h-17.9v-7
			c-4.5,5-10.7,8.3-19.7,8.3C391.8,111.2,381.7,104.1,381.7,91.2z M424.1,87v-3.3c-3.2-1.5-7.3-2.4-11.8-2.4c-7.9,0-12.8,3.2-12.8,9
			v0.2c0,5,4.1,7.9,10.1,7.9C418.3,98.4,424.1,93.7,424.1,87z"/>
		<path class="st2" d="M444.5,77.8v-0.2c0-18.6,14.2-33.9,34.1-33.9c12.3,0,19.9,4.1,26,10.9l-11.3,12.2c-4.1-4.4-8.3-7.2-14.8-7.2
			c-9.2,0-15.8,8.1-15.8,17.7v0.2c0,10,6.4,18,16.5,18c6.2,0,10.5-2.7,14.9-6.9L505,99.5c-6.3,6.9-13.6,11.9-26.6,11.9
			C458.9,111.4,444.5,96.3,444.5,77.8z"/>
		<path class="st2" d="M501.9,77.8v-0.2c0-18.6,13.2-33.9,32.2-33.9c21.7,0,31.7,16.9,31.7,35.4c0,1.5-0.1,3.2-0.2,4.9h-45.3
			c1.8,8.4,7.7,12.8,15.9,12.8c6.2,0,10.7-1.9,15.8-6.7l10.6,9.4c-6.1,7.5-14.8,12.2-26.6,12.2C516.3,111.4,501.9,97.7,501.9,77.8z
			 M547.8,72.3c-1.1-8.3-6-13.9-13.7-13.9s-12.6,5.5-14.1,13.9C520,72.3,547.8,72.3,547.8,72.3z"/>
	</g>
	<g class="st1">
		<rect x="0.2" y="24.9" width="85" height="85"/>
		<rect x="8.2" y="94.6" class="st2" width="31.9" height="5.3"/>
		<path class="st2" d="M8.1,36.1h8.3c6.7,0,11.3,4.6,11.3,10.6v0.1c0,6-4.6,10.7-11.3,10.7H8.1V36.1z M12.8,40.4v12.9h3.6
			c3.8,0,6.4-2.6,6.4-6.4v-0.1c0-3.8-2.6-6.4-6.4-6.4H12.8z"/>
		<polygon class="st2" points="36.3,40.5 29.8,40.5 29.8,36.1 47.5,36.1 47.5,40.5 41,40.5 41,57.5 36.3,57.5 		"/>
	</g>
</g>
<g class="st0">
	<g class="st1">
		<line class="st3" x1="717.9" y1="149.3" x2="718.7" y2="149.3"/>
	</g>
	<g class="st1">
		<rect x="0.2" y="24.9" width="85" height="85"/>
		<rect x="8.2" y="94" class="st2" width="31.9" height="5.3"/>
		<rect x="11.1" y="35.5" class="st2" width="4.7" height="21.2"/>
		<rect x="8.1" y="52.9" class="st2" width="10.6" height="3.9"/>
		<rect x="8.1" y="35.5" class="st2" width="10.6" height="3.9"/>
		<path class="st2" d="M28.9,57.1c-1.7,0-3-0.3-4.2-0.9c-1.1-0.6-2-1.4-2.8-2.2l2.9-3.3c0.6,0.7,1.2,1.2,1.8,1.6
			c0.6,0.4,1.3,0.6,2,0.6c0.9,0,1.6-0.3,2.1-0.8c0.5-0.6,0.8-1.5,0.8-2.7V35.5h4.8v13.9c0,1.3-0.2,2.4-0.5,3.3s-0.8,1.7-1.5,2.4
			c-0.6,0.6-1.4,1.1-2.4,1.5C31.1,56.9,30,57.1,28.9,57.1"/>
	</g>
	<g class="st1">
		<path class="st2" d="M106.3,25H125v85.1h-18.7V25z"/>
		<path class="st2" d="M130,44.9h18.5v9.2c4.3-5.5,9.7-10.4,19.1-10.4c14,0,22.1,9.2,22.1,24.2v42.2h-18.5V73.7
			c0-8.7-4.1-13.2-11.2-13.2c-7,0-11.5,4.5-11.5,13.2V110H130V44.9z"/>
		<path class="st2" d="M199.6,91.6V60.7h-7.8V44.9h7.8V28.3h18.5v16.6h15.3v15.8h-15.3v27.8c0,4.3,1.8,6.3,6,6.3
			c3.4,0,6.4-0.9,9.1-2.3v14.8c-3.9,2.3-8.4,3.8-14.6,3.8C207.3,111.1,199.6,106.6,199.6,91.6z"/>
		<path class="st2" d="M232.9,77.9v-0.2c0-18.6,13.2-33.9,32.2-33.9c21.8,0,31.7,16.9,31.7,35.4c0,1.5-0.1,3.2-0.2,4.9h-45.3
			c1.8,8.4,7.7,12.8,15.9,12.8c6.2,0,10.7-1.9,15.8-6.7l10.6,9.4c-6.1,7.5-14.8,12.2-26.6,12.2C247.3,111.5,232.9,97.8,232.9,77.9z
			 M278.8,72.4c-1.1-8.3-6-13.9-13.7-13.9S252.5,64,251,72.4H278.8z"/>
		<path class="st2" d="M300.3,21.4h18.5v88.7h-18.5V21.4z"/>
		<path class="st2" d="M322.7,21.4h18.5v88.7h-18.5V21.4z"/>
		<path class="st2" d="M345.8,21.4h19.4v16.4h-19.4V21.4z M346.2,44.9h18.5V110h-18.5V44.9z"/>
		<path class="st2" d="M366,98.5l11.8-13.1c4.9,5.3,9.6,8.5,15.6,8.5c7,0,11.4-4.3,11.4-14.1V25H424v55.6c0,10.1-2.9,17.6-8,22.7
			c-5.2,5.2-12.9,7.9-22.1,7.9C380.6,111.3,371.9,105.4,366,98.5z"/>
		<path class="st2" d="M454.6,25h18.7v85.1h-18.7V25z"/>
		<path class="st2" d="M480,25h33.2c26.7,0,45.2,18.3,45.2,42.3v0.2c0,23.9-18.5,42.5-45.2,42.5H480V25z M498.7,41.9v51.3h14.5
			c15.3,0,25.6-10.3,25.6-25.4v-0.2c0-15.1-10.3-25.6-25.6-25.6L498.7,41.9L498.7,41.9z"/>
		<path class="st2" d="M562.5,25h64.2v16.6h-45.6v17.3h40.1v16.6h-40.1v17.9h46.2V110h-64.8L562.5,25L562.5,25z"/>
		<path class="st2" d="M666.3,24.4h17.3l36.4,85.7h-19.6L692.6,91h-36l-7.8,19.1h-19.1L666.3,24.4z M686,74.5l-11.3-27.6l-11.3,27.6
			H686z"/>
	</g>
</g>
<g class="st0">
	<g class="st1">
		<path class="st2" d="M139.3,24.3h17.3l36.4,85.6h-19.6l-7.8-19.1h-36l-7.8,19.1h-19.1L139.3,24.3z M159,74.3l-11.3-27.6
			l-11.3,27.6H159z"/>
		<path class="st2" d="M195,44.8h18.5v9.4c4.5-6.1,10.7-10.6,20.3-10.6c15.2,0,29.6,11.9,29.6,33.7v0.2c0,21.7-14.2,33.7-29.6,33.7
			c-9.8,0-15.9-4.5-20.3-9.7v27.9H195V44.8z M245,77.5v-0.2c0-10.8-7.3-18-15.9-18s-15.8,7.2-15.8,18v0.2c0,10.8,7.2,18,15.8,18
			S245,88.4,245,77.5z"/>
		<path class="st2" d="M266,44.8h18.5v9.4c4.5-6.1,10.7-10.6,20.3-10.6c15.2,0,29.6,11.9,29.6,33.7v0.2c0,21.7-14.2,33.7-29.6,33.7
			c-9.8,0-15.9-4.5-20.3-9.7v27.9H266V44.8z M315.9,77.5v-0.2c0-10.8-7.3-18-15.9-18s-15.8,7.2-15.8,18v0.2c0,10.8,7.2,18,15.8,18
			S315.9,88.4,315.9,77.5z"/>
		<path class="st2" d="M337.1,67.7v-0.2c0-24.2,18.2-44,44.3-44c16,0,25.6,5.3,33.5,13.1L403,50.3c-6.6-6-13.2-9.6-21.7-9.6
			c-14.3,0-24.7,11.9-24.7,26.5v0.2c0,14.6,10.1,26.7,24.7,26.7c9.7,0,15.7-3.9,22.4-10l11.9,12c-8.7,9.4-18.5,15.2-34.9,15.2
			C355.7,111.4,337.1,92.1,337.1,67.7z"/>
		<path class="st2" d="M413,77.7v-0.2c0-18.7,15.1-33.9,35.4-33.9c20.2,0,35.1,14.9,35.1,33.7v0.2c0,18.7-15.1,33.9-35.4,33.9
			C428,111.4,413,96.4,413,77.7z M465.3,77.7v-0.2c0-9.6-6.9-18-17.1-18c-10.6,0-16.9,8.1-16.9,17.7v0.2c0,9.6,6.9,18,17.1,18
			C458.9,95.5,465.3,87.3,465.3,77.7z"/>
		<path class="st2" d="M485.9,77.5v-0.2c0-21.7,14.2-33.7,29.6-33.7c9.8,0,15.9,4.5,20.3,9.7V21.2h18.5v88.7h-18.5v-9.4
			c-4.5,6.1-10.7,10.6-20.3,10.6C500.4,111.2,485.9,99.2,485.9,77.5z M536.1,77.5v-0.2c0-10.8-7.2-18-15.8-18s-15.9,7-15.9,18v0.2
			c0,10.8,7.3,18,15.9,18C528.9,95.5,536.1,88.3,536.1,77.5z"/>
		<path class="st2" d="M557.7,77.7v-0.2c0-18.6,13.2-33.9,32.2-33.9c21.7,0,31.7,16.9,31.7,35.4c0,1.5-0.1,3.2-0.2,4.9h-45.3
			c1.8,8.4,7.7,12.8,15.9,12.8c6.2,0,10.7-1.9,15.8-6.7l10.6,9.4c-6.1,7.5-14.8,12.2-26.6,12.2C572.2,111.4,557.7,97.7,557.7,77.7z
			 M603.6,72.3c-1.1-8.3-6-13.9-13.7-13.9s-12.6,5.5-14.1,13.9C575.8,72.3,603.6,72.3,603.6,72.3z"/>
	</g>
	<g class="st1">
		<rect x="0.2" y="24.9" width="85" height="85"/>
		<path class="st2" d="M15.8,35.5h4.3l9.1,21.3h-4.9L22.4,52h-8.9l-1.9,4.7H6.8L15.8,35.5z M20.7,47.9L17.9,41l-2.8,6.9H20.7z"/>
		<path class="st2" d="M28,46.3L28,46.3c0-6.2,4.6-11.1,11.2-11.1c4,0,6.5,1.3,8.5,3.3l-3,3.5c-1.7-1.5-3.3-2.4-5.5-2.4
			c-3.6,0-6.2,3-6.2,6.7v0.1c0,3.7,2.5,6.7,6.2,6.7c2.5,0,4-1,5.6-2.5l3,3c-2.2,2.4-4.7,3.8-8.8,3.8C32.7,57.3,28,52.4,28,46.3"/>
		<rect x="8.2" y="94" class="st2" width="31.9" height="5.3"/>
	</g>
</g>
<g class="st0">
	<g class="st1">
		<g>
			<path class="st2" d="M105.8,77.1v-0.2c0-21.7,14.2-33.7,29.6-33.7c9.8,0,15.9,4.5,20.3,9.7V20.8h18.5v88.7h-18.5v-9.4
				c-4.5,6.1-10.7,10.6-20.3,10.6C120.3,110.8,105.8,98.9,105.8,77.1z M156,77.1v-0.2c0-10.8-7.2-18-15.8-18s-15.9,7-15.9,18v0.2
				c0,10.8,7.3,18,15.9,18S156,87.9,156,77.1z"/>
			<path class="st2" d="M176.1,77.3v-0.2c0-18.7,15.1-33.9,35.4-33.9c20.2,0,35.1,14.9,35.1,33.7v0.2c0,18.7-15.1,33.9-35.4,33.9
				C191.1,111,176.1,96.1,176.1,77.3z M228.4,77.3v-0.2c0-9.6-6.9-18-17.1-18c-10.6,0-16.9,8.1-16.9,17.7V77c0,9.6,6.9,18,17.1,18
				C222.1,95.1,228.4,86.9,228.4,77.3z"/>
			<path class="st2" d="M253,91.1V60.2h-7.8V44.4h7.8V27.8h18.5v16.6h15.3v15.8h-15.3V88c0,4.3,1.8,6.3,6,6.3c3.4,0,6.4-0.9,9.1-2.3
				v14.8c-3.9,2.3-8.4,3.8-14.6,3.8C260.7,110.6,253,106.1,253,91.1z"/>
			<path class="st2" d="M289.1,67.3V67c0-24.2,18.2-44,44.3-44c16,0,25.6,5.3,33.5,13.1L355,49.8c-6.6-6-13.2-9.6-21.8-9.6
				c-14.3,0-24.7,11.9-24.7,26.5V67c0,14.6,10.1,26.7,24.7,26.7c9.7,0,15.7-3.9,22.4-10l11.9,12c-8.7,9.4-18.5,15.2-34.9,15.2
				C307.7,111,289.1,91.7,289.1,67.3z"/>
			<path class="st2" d="M364.9,77.3v-0.2c0-18.7,15.1-33.9,35.4-33.9c20.2,0,35.1,14.9,35.1,33.7v0.2c0,18.7-15.1,33.9-35.4,33.9
				C379.9,111,364.9,96.1,364.9,77.3z M417.2,77.3v-0.2c0-9.6-6.9-18-17.1-18c-10.6,0-16.9,8.1-16.9,17.7V77c0,9.6,6.9,18,17.1,18
				C410.9,95.1,417.2,86.9,417.2,77.3z"/>
			<path class="st2" d="M428.6,44.4h19.6L462.8,88l14.7-43.6h19.2L471,110h-16.8L428.6,44.4z"/>
			<path class="st2" d="M490.1,77.3v-0.2c0-18.6,13.2-33.9,32.2-33.9c21.7,0,31.7,16.9,31.7,35.4c0,1.5-0.1,3.2-0.2,4.9h-45.3
				c1.8,8.4,7.7,12.8,15.9,12.8c6.2,0,10.7-1.9,15.8-6.7l10.6,9.4c-6.1,7.5-14.8,12.2-26.6,12.2C504.5,111,490.1,97.3,490.1,77.3z
				 M536,71.9c-1.1-8.3-6-13.9-13.7-13.9s-12.6,5.5-14.1,13.9H536z"/>
			<path class="st2" d="M556.8,44.4h18.5v13.1c3.8-9,9.8-14.8,20.8-14.3v19.3h-1c-12.3,0-19.8,7.4-19.8,23v24.1h-18.5V44.4z"/>
		</g>
	</g>
	<g class="st1">
		<rect x="0.2" y="24.9" width="85" height="85"/>
		<path class="st2" d="M8.1,35.6h8.3c6.7,0,11.3,4.6,11.3,10.6v0.1c0,6-4.6,10.6-11.3,10.6H8.1V35.6z M12.8,39.8v12.8h3.6
			c3.8,0,6.4-2.6,6.4-6.3v-0.1c0-3.8-2.6-6.4-6.4-6.4H12.8z"/>
		<path class="st2" d="M29.6,46.3L29.6,46.3c0-6.1,4.6-11.1,11.1-11.1c4,0,6.4,1.3,8.4,3.3l-3,3.4c-1.6-1.5-3.3-2.4-5.5-2.4
			c-3.6,0-6.2,3-6.2,6.6v0.1c0,3.7,2.5,6.7,6.2,6.7c2.4,0,3.9-1,5.6-2.5l3,3c-2.2,2.3-4.6,3.8-8.7,3.8
			C34.2,57.2,29.6,52.4,29.6,46.3"/>
		<rect x="8.2" y="94" class="st2" width="31.9" height="5.3"/>
	</g>
</g>
<g class="st0">
	<g class="st1">
		<rect x="0.2" y="24.9" width="85" height="85"/>
		<polygon class="st2" points="28.5,35.6 33.5,35.6 39.1,44.5 44.7,35.6 49.7,35.6 49.7,56.8 45.1,56.8 45.1,42.9 39.1,52 39,52 
			33,43 33,56.8 28.5,56.8 		"/>
		<path class="st2" d="M8.2,35.5h9.7c2.7,0,4.7,0.7,6.2,2.2c1.2,1.2,1.8,2.8,1.8,4.8v0.1c0,1.7-0.4,3.1-1.3,4.2
			c-0.8,1.1-1.9,1.9-3.3,2.4l5.2,7.6H21l-4.4-6.5h-3.8v6.5H8.2V35.5z M17.5,45.9c1.2,0,2-0.3,2.7-0.8c0.6-0.5,0.9-1.3,0.9-2.2v-0.1
			c0-1-0.3-1.8-1-2.3c-0.6-0.5-1.5-0.8-2.7-0.8h-4.6v6.1L17.5,45.9L17.5,45.9z"/>
		<rect x="8.2" y="94" class="st2" width="31.9" height="5.3"/>
	</g>
	<g class="st1">
		<path class="st2" d="M106.3,25.3h38.9c10.8,0,19.2,3,24.8,8.6c4.7,4.7,7.3,11.4,7.3,19.4v0.2c0,13.7-7.4,22.4-18.2,26.4l20.8,30.4
			H158l-18.2-27.2h-14.7v27.2h-18.7v-85C106.4,25.3,106.3,25.3,106.3,25.3z M144,66.6c9.1,0,14.3-4.9,14.3-12v-0.2
			c0-8-5.6-12.2-14.7-12.2H125v24.4H144z"/>
		<path class="st2" d="M179.6,87.3V45.2h18.5v36.3c0,8.7,4.1,13.2,11.2,13.2s11.5-4.5,11.5-13.2V45.2h18.5v65.1h-18.5v-9.2
			c-4.3,5.5-9.7,10.4-19.1,10.4C187.7,111.5,179.6,102.3,179.6,87.3z"/>
		<path class="st2" d="M261.6,101.8v8.5h-18.5V21.6h18.5v32.9c4.5-6.1,10.7-10.6,20.3-10.6c15.2,0,29.6,11.9,29.6,33.7v0.2
			c0,21.7-14.2,33.7-29.6,33.7C272.1,111.5,266,107,261.6,101.8z M293.1,77.9v-0.2c0-10.8-7.3-18-15.9-18s-15.8,7.2-15.8,18v0.2
			c0,10.8,7.2,18,15.8,18S293.1,88.8,293.1,77.9z"/>
		<path class="st2" d="M352.4,45.2h19.2l-25,66.7c-5,13.2-10.3,18.2-21.4,18.2c-6.7,0-11.7-1.7-16.4-4.5l6.2-13.4
			c2.4,1.5,5.5,2.6,7.9,2.6c3.2,0,4.9-1,6.4-4.3l-25.5-65.4h19.6l14.8,44.3L352.4,45.2z"/>
		<path class="st2" d="M373,25.3h20.2l22.4,36l22.4-36h20.2v85.1h-18.6V54.8l-23.9,36.3h-0.5l-23.7-36v55.2H373V25.3z"/>
		<path class="st2" d="M462.3,21.6h19.4V38h-19.4V21.6z M462.8,45.2h18.5v65.1h-18.5V45.2z"/>
		<path class="st2" d="M485.3,45.2h18.5v9.2c4.3-5.5,9.7-10.4,19.1-10.4c14,0,22.1,9.2,22.1,24.2v42.2h-18.5V74
			c0-8.7-4.1-13.2-11.2-13.2c-7,0-11.5,4.5-11.5,13.2v36.3h-18.5L485.3,45.2L485.3,45.2z"/>
		<path class="st2" d="M546.9,78.1v-0.2c0-18.6,13.2-33.9,32.2-33.9c21.7,0,31.7,16.9,31.7,35.4c0,1.5-0.1,3.2-0.2,4.9h-45.3
			c1.8,8.4,7.7,12.8,15.9,12.8c6.2,0,10.7-1.9,15.8-6.7l10.6,9.4c-6.1,7.5-14.8,12.2-26.6,12.2C561.3,111.8,546.9,98,546.9,78.1z
			 M592.8,72.6c-1.1-8.3-6-13.9-13.7-13.9s-12.6,5.5-14.1,13.9H592.8z"/>
	</g>
</g>
<g class="st0">
	<g class="st1">
		<path class="st2" d="M130.5,42.1h-25.9V24.9H175v17.3h-25.9V110h-18.7L130.5,42.1L130.5,42.1z"/>
		<path class="st2" d="M155.7,77.7v-0.2c0-18.6,13.2-33.9,32.2-33.9c21.7,0,31.7,16.9,31.7,35.4c0,1.5-0.1,3.2-0.2,4.9h-45.3
			c1.8,8.4,7.7,12.8,15.9,12.8c6.2,0,10.7-1.9,15.8-6.7l10.6,9.4c-6.1,7.5-14.8,12.2-26.6,12.2C170.2,111.4,155.7,97.7,155.7,77.7z
			 M201.7,72.3c-1.1-8.3-6-13.9-13.7-13.9s-12.6,5.5-14.1,13.9C173.9,72.3,201.7,72.3,201.7,72.3z"/>
		<path class="st2" d="M220.8,91.2V91c0-14.2,10.8-20.8,26.2-20.8c6.6,0,11.3,1.1,15.9,2.7v-1.1c0-7.7-4.7-11.9-14-11.9
			c-7,0-12,1.3-18,3.5l-4.6-14.1c7.2-3.2,14.2-5.2,25.3-5.2c10.1,0,17.4,2.7,22,7.3c4.9,4.9,7,12,7,20.8V110h-17.9v-7
			c-4.5,5-10.7,8.3-19.7,8.3C230.9,111.2,220.8,104.1,220.8,91.2z M263.3,87v-3.3c-3.2-1.5-7.3-2.4-11.8-2.4c-7.9,0-12.8,3.2-12.8,9
			v0.2c0,5,4.1,7.9,10.1,7.9C257.4,98.4,263.3,93.7,263.3,87z"/>
		<path class="st2" d="M284.5,44.8H303V54c4.3-5.5,9.8-10.4,19.2-10.4c8.5,0,14.9,3.8,18.3,10.3c5.7-6.7,12.5-10.3,21.4-10.3
			c13.7,0,22,8.3,22,23.9v42.4h-18.5V73.6c0-8.7-3.9-13.2-10.8-13.2s-11.2,4.5-11.2,13.2v36.3H325V73.6c0-8.7-3.9-13.2-10.8-13.2
			S303,64.9,303,73.6v36.3h-18.5V44.8z"/>
		<path class="st2" d="M386,67.7v-0.2c0-24.2,18.2-44,44.3-44c16,0,25.6,5.3,33.5,13.1l-11.9,13.7c-6.6-6-13.2-9.6-21.7-9.6
			c-14.3,0-24.7,11.9-24.7,26.5v0.2c0,14.6,10.1,26.7,24.7,26.7c9.7,0,15.7-3.9,22.4-10l11.9,12c-8.7,9.4-18.5,15.2-34.9,15.2
			C404.6,111.4,386,92.1,386,67.7z"/>
		<path class="st2" d="M466.4,21.2h19.4v16.4h-19.4V21.2z M466.9,44.8h18.5v65.1h-18.5V44.8z"/>
		<path class="st2" d="M496.3,91.5V60.6h-7.8V44.8h7.8V28.2h18.5v16.6h15.3v15.8h-15.3v27.8c0,4.3,1.8,6.3,6,6.3
			c3.4,0,6.4-0.9,9.1-2.3v14.8c-3.9,2.3-8.4,3.8-14.6,3.8C503.9,111,496.3,106.5,496.3,91.5z"/>
		<path class="st2" d="M580.6,44.8h19.2l-25,66.7c-5,13.2-10.3,18.2-21.4,18.2c-6.7,0-11.7-1.7-16.4-4.5l6.2-13.4
			c2.4,1.5,5.5,2.6,7.9,2.6c3.2,0,4.9-1,6.4-4.3L532,44.8h19.6l14.8,44.3L580.6,44.8z"/>
	</g>
	<g class="st1">
		<rect x="0.2" y="24.9" width="85" height="85"/>
		<polygon class="st2" points="14.6,39.8 8.1,39.8 8.1,35.5 25.7,35.5 25.7,39.8 19.2,39.8 19.2,56.8 14.6,56.8 		"/>
		<path class="st2" d="M26,46.2L26,46.2c0-6.1,4.6-11.1,11.1-11.1c4,0,6.4,1.3,8.4,3.3l-3,3.4c-1.6-1.5-3.3-2.4-5.4-2.4
			c-3.6,0-6.2,3-6.2,6.6v0.1c0,3.6,2.5,6.7,6.2,6.7c2.4,0,3.9-1,5.6-2.5l3,3c-2.2,2.3-4.6,3.8-8.7,3.8C30.6,57.1,26,52.3,26,46.2"/>
		<rect x="8.1" y="94" class="st2" width="31.9" height="5.3"/>
	</g>
</g>
<g class="st0">
	<g class="st1">
		<rect x="0.2" y="24.9" width="85" height="85"/>
		<path class="st2" d="M7.7,46.3L7.7,46.3c0-6.2,4.6-11.1,11.2-11.1c4,0,6.5,1.3,8.4,3.3l-3,3.5c-1.7-1.5-3.3-2.4-5.5-2.4
			c-3.6,0-6.2,3-6.2,6.7v0.1c0,3.7,2.5,6.7,6.2,6.7c2.4,0,3.9-1,5.6-2.5l3,3c-2.2,2.4-4.7,3.8-8.8,3.8C12.4,57.3,7.7,52.4,7.7,46.3"
			/>
		<path class="st2" d="M30.8,35.5h4.7v17.4h9.4v4H30.8V35.5z"/>
		<rect x="8.2" y="94" class="st2" width="31.9" height="5.3"/>
	</g>
	<g class="st1">
		<path class="st2" d="M105.6,67.7v-0.2c0-24.2,18.2-44,44.3-44c16,0,25.6,5.3,33.5,13.1l-11.9,13.7c-6.6-6-13.2-9.6-21.7-9.6
			c-14.3,0-24.7,11.9-24.7,26.5v0.2c0,14.6,10.1,26.7,24.7,26.7c9.7,0,15.7-3.9,22.4-10l11.9,12c-8.7,9.4-18.5,15.2-34.9,15.2
			C124.2,111.4,105.6,92.1,105.6,67.7z"/>
		<path class="st2" d="M187.6,24.9h18.7v68h42.4v17h-61.1V24.9z"/>
		<path class="st2" d="M251.3,21.2h19.4v16.4h-19.4L251.3,21.2L251.3,21.2z M251.8,44.8h18.5v65.1h-18.5L251.8,44.8L251.8,44.8z"/>
		<path class="st2" d="M272.7,77.7v-0.2c0-18.7,15.1-33.9,35.4-33.9c20.2,0,35.1,14.9,35.1,33.7v0.2c0,18.7-15.1,33.9-35.4,33.9
			C287.6,111.4,272.7,96.4,272.7,77.7z M324.9,77.7v-0.2c0-9.6-6.9-18-17.1-18c-10.6,0-16.9,8.1-16.9,17.7v0.2c0,9.6,6.9,18,17.1,18
			C318.6,95.5,324.9,87.3,324.9,77.7z"/>
		<path class="st2" d="M345.9,44.8h18.5V54c4.3-5.5,9.7-10.4,19.1-10.4c14,0,22.1,9.2,22.1,24.2V110h-18.5V73.6
			c0-8.7-4.1-13.2-11.2-13.2c-7,0-11.5,4.5-11.5,13.2v36.3h-18.5V44.8z"/>
	</g>
</g>
<g class="st0">
	<g class="st1">
		<path class="st2" d="M103.1,24.2h20l17.6,57.6L159.8,24h16L195,81.8l17.6-57.6h19.6l-29,85.7h-16.3l-19.2-55.6l-19.2,55.6h-16.3
			L103.1,24.2z"/>
		<path class="st2" d="M219.8,77v-0.2c0-18.6,13.2-33.9,32.2-33.9c21.7,0,31.7,16.9,31.7,35.4c0,1.5-0.1,3.2-0.2,4.9h-45.3
			c1.8,8.4,7.7,12.8,15.9,12.8c6.2,0,10.7-1.9,15.8-6.7l10.6,9.4c-6.1,7.5-14.8,12.2-26.6,12.2C234.2,110.7,219.8,97,219.8,77z
			 M265.7,71.6c-1.1-8.3-6-13.9-13.7-13.9s-12.6,5.5-14.1,13.9H265.7z"/>
		<path class="st2" d="M305.2,100.7v8.5h-18.5V20.5h18.5v32.9c4.5-6.1,10.7-10.6,20.3-10.6c15.2,0,29.6,11.9,29.6,33.7v0.2
			c0,21.7-14.2,33.7-29.6,33.7C315.6,110.4,309.5,105.9,305.2,100.7z M336.6,76.8v-0.2c0-10.8-7.3-18-15.9-18s-15.8,7.2-15.8,18v0.2
			c0,10.8,7.2,18,15.8,18S336.6,87.7,336.6,76.8z"/>
		<path class="st2" d="M352.7,96.8l11.1-13.2c7.7,6.3,15.7,10.3,25.4,10.3c7.7,0,12.3-3,12.3-8v-0.2c0-4.7-2.9-7.2-17.1-10.8
			c-17.1-4.4-28.2-9.1-28.2-26v-0.2c0-15.4,12.4-25.6,29.8-25.6c12.4,0,23,3.9,31.6,10.8L407.9,48c-7.5-5.2-14.9-8.4-22.1-8.4
			s-10.9,3.3-10.9,7.4v0.2c0,5.6,3.6,7.4,18.3,11.2c17.3,4.5,27,10.7,27,25.5v0.2c0,16.9-12.9,26.4-31.2,26.4
			C375.9,110.4,362.9,105.9,352.7,96.8z"/>
		<path class="st2" d="M424.6,90.8V59.9h-7.8V44.1h7.8V27.5h18.5v16.6h15.3v15.8h-15.3v27.8c0,4.3,1.8,6.3,6,6.3
			c3.4,0,6.4-0.9,9.1-2.3v14.8c-3.9,2.3-8.4,3.8-14.6,3.8C432.3,110.3,424.6,105.8,424.6,90.8z"/>
		<path class="st2" d="M457.2,77v-0.2c0-18.7,15.1-33.9,35.4-33.9c20.2,0,35.1,14.9,35.1,33.7v0.2c0,18.7-15.1,33.9-35.4,33.9
			C472.1,110.7,457.2,95.7,457.2,77z M509.4,77v-0.2c0-9.6-6.9-18-17.1-18c-10.6,0-16.9,8.1-16.9,17.7v0.2c0,9.6,6.9,18,17.1,18
			C503.1,94.8,509.4,86.6,509.4,77z"/>
		<path class="st2" d="M530.1,44.1h18.5v13.1c3.8-9,9.8-14.8,20.8-14.3v19.3h-1c-12.3,0-19.8,7.4-19.8,23v24.1h-18.5V44.1z"/>
		<path class="st2" d="M571.7,44.1h18.5v9.2c4.3-5.5,9.8-10.4,19.2-10.4c8.5,0,14.9,3.8,18.3,10.3c5.7-6.7,12.5-10.3,21.4-10.3
			c13.7,0,22,8.3,22,23.9v42.4h-18.5V72.9c0-8.7-3.9-13.2-10.8-13.2s-11.2,4.5-11.2,13.2v36.3h-18.5V72.9c0-8.7-3.9-13.2-10.8-13.2
			s-11.2,4.5-11.2,13.2v36.3h-18.5L571.7,44.1L571.7,44.1z"/>
	</g>
	<g class="st1">
		<rect x="0.2" y="24.9" width="85" height="85"/>
		<path class="st2" d="M33.9,53.7l2.7-3.3c1.9,1.6,3.8,2.6,6.2,2.6c1.9,0,3-0.8,3-2v-0.1c0-1.2-0.7-1.8-4.2-2.7
			c-4.2-1.1-6.9-2.3-6.9-6.5v-0.1c0-3.9,3-6.4,7.3-6.4c3,0,5.6,1,7.8,2.7l-2.4,3.5c-1.8-1.3-3.7-2.1-5.4-2.1c-1.8,0-2.7,0.8-2.7,1.9
			v0.1c0,1.4,0.9,1.9,4.5,2.8c4.2,1.1,6.6,2.7,6.6,6.4v0.1c0,4.2-3.2,6.6-7.7,6.6C39.6,57.1,36.4,56,33.9,53.7"/>
		<polygon class="st2" points="29.7,35.6 26.6,47.9 23,35.6 19.4,35.6 15.7,47.9 12.6,35.6 7.6,35.6 13.7,56.8 17.7,56.8 21.2,44.5 
			24.6,56.8 28.6,56.8 34.7,35.6 		"/>
		<rect x="8.2" y="94" class="st2" width="31.9" height="5.3"/>
	</g>
</g>
<g class="st0">
	<g class="st1">
		<path class="st2" d="M106.5,73.6V25h18.7v48.1c0,13.9,6.9,21,18.3,21s18.3-6.9,18.3-20.4V25h18.7v48c0,25.8-14.5,38.4-37.3,38.4
			S106.5,98.6,106.5,73.6z"/>
		<path class="st2" d="M183.8,44.9h18.5v9.4c4.5-6.1,10.7-10.6,20.3-10.6c15.2,0,29.6,11.9,29.6,33.7v0.2
			c0,21.7-14.2,33.7-29.6,33.7c-9.8,0-15.9-4.5-20.3-9.7v27.9h-18.5V44.9z M233.7,77.6v-0.2c0-10.8-7.3-18-15.9-18
			s-15.8,7.2-15.8,18v0.2c0,10.8,7.2,18,15.8,18S233.7,88.5,233.7,77.6z"/>
		<path class="st2" d="M249.3,101.4l7.9-12.2c7,5.1,14.5,7.8,20.5,7.8c5.3,0,7.8-1.9,7.8-4.9v-0.2c0-4-6.3-5.3-13.5-7.5
			c-9.1-2.7-19.4-6.9-19.4-19.6v-0.2c0-13.2,10.7-20.7,23.8-20.7c8.3,0,17.3,2.8,24.3,7.5l-7,12.8c-6.4-3.8-12.9-6.1-17.6-6.1
			c-4.5,0-6.8,1.9-6.8,4.5v0.2c0,3.6,6.2,5.3,13.2,7.8c9.1,3,19.7,7.4,19.7,19.3v0.2c0,14.5-10.8,21-24.9,21
			C268.1,111.2,257.9,108.2,249.3,101.4z"/>
		<path class="st2" d="M302.9,77.8v-0.2c0-18.7,15.1-33.9,35.4-33.9c20.2,0,35.1,14.9,35.1,33.7v0.2c0,18.7-15.1,33.9-35.4,33.9
			C317.8,111.5,302.9,96.5,302.9,77.8z M355.1,77.8v-0.2c0-9.6-6.9-18-17.1-18c-10.6,0-16.9,8.1-16.9,17.7v0.2c0,9.6,6.9,18,17.1,18
			C348.8,95.6,355.1,87.4,355.1,77.8z"/>
		<path class="st2" d="M375,87.1V44.9h18.5v36.3c0,8.7,4.1,13.2,11.2,13.2c7,0,11.5-4.5,11.5-13.2V44.9h18.5V110h-18.5v-9.2
			c-4.3,5.5-9.7,10.4-19.1,10.4C383.2,111.2,375,102,375,87.1z"/>
		<path class="st2" d="M438.8,44.9h18.5V58c3.8-9,9.8-14.8,20.8-14.3V63h-1c-12.3,0-19.8,7.4-19.8,23v24h-18.5V44.9z"/>
		<path class="st2" d="M476.8,77.8v-0.2c0-18.6,14.2-33.9,34.1-33.9c12.3,0,19.9,4.1,26,10.9l-11.3,12.2c-4.1-4.4-8.3-7.2-14.8-7.2
			c-9.2,0-15.8,8.1-15.8,17.7v0.2c0,10,6.4,18,16.5,18c6.2,0,10.5-2.7,14.9-6.9l10.8,10.9c-6.3,6.9-13.6,11.9-26.6,11.9
			C491.2,111.5,476.8,96.4,476.8,77.8z"/>
		<path class="st2" d="M532.9,77.8v-0.2c0-18.6,13.2-33.9,32.2-33.9c21.7,0,31.7,16.9,31.7,35.4c0,1.5-0.1,3.2-0.2,4.9h-45.3
			c1.8,8.4,7.7,12.8,15.9,12.8c6.2,0,10.7-1.9,15.8-6.7l10.6,9.4c-6.1,7.5-14.8,12.2-26.6,12.2C547.3,111.5,532.9,97.8,532.9,77.8z
			 M578.8,72.4c-1.1-8.3-6-13.9-13.7-13.9S552.5,64,551,72.4H578.8z"/>
	</g>
	<g class="st1">
		<rect x="0.2" y="24.9" width="85" height="85"/>
		<g>
			<path class="st2" d="M8.3,47.7V35.4H13v12.1c0,3.5,1.7,5.3,4.6,5.3s4.6-1.7,4.6-5.1V35.4H27v12.1c0,6.5-3.6,9.7-9.4,9.7
				S8.3,54,8.3,47.7z"/>
			<path class="st2" d="M29.4,35.4h8.8c5.1,0,8.2,3,8.2,7.4v0.1c0,5-3.9,7.5-8.7,7.5h-3.6v6.4h-4.7C29.4,56.8,29.4,35.4,29.4,35.4z
				 M37.8,46.2c2.4,0,3.7-1.4,3.7-3.2v-0.1c0-2.1-1.5-3.2-3.8-3.2h-3.6v6.6L37.8,46.2L37.8,46.2z"/>
		</g>
		<rect x="8.3" y="94" class="st2" width="32.1" height="5.3"/>
	</g>
</g>
<g class="st0">
	<g class="st1">
		<rect x="0.2" y="24.9" width="85" height="85"/>
		<g>
			<path class="st2" d="M8.2,35.6h8.3c6.7,0,11.3,4.6,11.3,10.5v0.1c0,6-4.6,10.6-11.3,10.6H8.2V35.6z M12.9,39.9v12.8h3.6
				c3.8,0,6.4-2.6,6.4-6.3v-0.1c0-3.8-2.6-6.4-6.4-6.4C16.5,39.9,12.9,39.9,12.9,39.9z"/>
			<path class="st2" d="M29.7,35.6h8.7c5.1,0,8.1,3,8.1,7.4l0,0c0,4.9-3.8,7.5-8.6,7.5h-3.6v6.4h-4.7L29.7,35.6L29.7,35.6z
				 M38.1,46.3c2.3,0,3.7-1.4,3.7-3.2V43c0-2.1-1.5-3.2-3.8-3.2h-3.6v6.5H38.1z"/>
		</g>
		<rect x="8.2" y="94" class="st2" width="31.9" height="5.3"/>
	</g>
	<g class="st1">
		<path class="st2" d="M104.8,77.5v-0.2c0-21.7,14.2-33.7,29.6-33.7c9.8,0,15.9,4.5,20.3,9.7V21.2h18.5v88.7h-18.5v-9.4
			c-4.5,6.1-10.7,10.6-20.3,10.6C119.2,111.1,104.8,99.2,104.8,77.5z M155,77.5v-0.2c0-10.8-7.2-18-15.8-18s-15.9,7-15.9,18v0.2
			c0,10.8,7.3,18,15.9,18S155,88.3,155,77.5z"/>
		<path class="st2" d="M175.4,77.7v-0.2c0-18.7,15.1-33.9,35.4-33.9c20.2,0,35.1,14.9,35.1,33.7v0.2c0,18.7-15.1,33.9-35.4,33.9
			C190.3,111.4,175.4,96.4,175.4,77.7z M227.6,77.7v-0.2c0-9.6-6.9-18-17.1-18c-10.6,0-16.9,8.1-16.9,17.7v0.2c0,9.6,6.9,18,17.1,18
			C221.3,95.4,227.6,87.3,227.6,77.7z"/>
		<path class="st2" d="M251.1,91.4V60.6h-7.8V44.8h7.8V28.1h18.5v16.6h15.3v15.8h-15.3v27.8c0,4.3,1.8,6.3,6,6.3
			c3.4,0,6.4-0.9,9.1-2.3v14.8c-3.9,2.3-8.4,3.8-14.6,3.8C258.7,111,251.1,106.5,251.1,91.4z"/>
		<path class="st2" d="M288,24.8h34.8c20.3,0,32.6,12,32.6,29.4v0.2c0,19.7-15.3,29.9-34.4,29.9h-14.2v25.5H288V24.8z M321.5,67.7
			c9.4,0,14.8-5.6,14.8-12.9v-0.2c0-8.4-5.8-12.9-15.2-12.9h-14.5v26C306.6,67.7,321.5,67.7,321.5,67.7z"/>
		<path class="st2" d="M353.5,77.7v-0.2c0-18.6,13.2-33.9,32.2-33.9c21.7,0,31.7,16.9,31.7,35.4c0,1.5-0.1,3.2-0.2,4.9h-45.3
			c1.8,8.4,7.7,12.8,15.9,12.8c6.2,0,10.7-1.9,15.8-6.7l10.6,9.4c-6.1,7.5-14.8,12.2-26.6,12.2C368,111.4,353.5,97.6,353.5,77.7z
			 M399.4,72.2c-1.1-8.3-6-13.9-13.7-13.9s-12.6,5.5-14.1,13.9C371.6,72.2,399.4,72.2,399.4,72.2z"/>
		<path class="st2" d="M419.2,77.7v-0.2c0-18.6,13.2-33.9,32.2-33.9c21.7,0,31.7,16.9,31.7,35.4c0,1.5-0.1,3.2-0.2,4.9h-45.3
			c1.8,8.4,7.7,12.8,15.9,12.8c6.2,0,10.7-1.9,15.8-6.7l10.6,9.4c-6.1,7.5-14.8,12.2-26.6,12.2C433.7,111.4,419.2,97.6,419.2,77.7z
			 M465.2,72.2c-1.1-8.3-6-13.9-13.7-13.9s-12.6,5.5-14.1,13.9C437.4,72.2,465.2,72.2,465.2,72.2z"/>
		<path class="st2" d="M485.4,21.2h18.5v47.3l21.6-23.7h22.1l-24.8,25.6l25.6,39.5H527l-16.6-26.7l-6.6,6.9v19.8h-18.5V21.2H485.4z"
			/>
	</g>
</g>
<g class="st0">
	<g class="st1">
		<path class="st2" d="M106.4,24.9h18.7v37.2l34.5-37.2h22.6L147.6,61l36.2,49h-22.5L135,73.7l-9.8,10.2v26h-18.7L106.4,24.9
			L106.4,24.9z"/>
		<path class="st2" d="M172,77.8v-0.2c0-18.7,15.1-33.9,35.4-33.9c20.2,0,35.1,14.9,35.1,33.7v0.2c0,18.7-15.1,33.9-35.4,33.9
			C187,111.4,172,96.5,172,77.8z M224.3,77.8v-0.2c0-9.6-6.9-18-17.1-18c-10.6,0-16.9,8.1-16.9,17.7v0.2c0,9.6,6.9,18,17.1,18
			C217.9,95.5,224.3,87.3,224.3,77.8z"/>
		<path class="st2" d="M247.6,91.5V60.6h-7.8V44.8h7.8V28.2h18.5v16.6h15.3v15.8h-15.3v27.8c0,4.3,1.8,6.3,6,6.3
			c3.4,0,6.4-0.9,9.1-2.3v14.8c-3.9,2.3-8.4,3.8-14.6,3.8C255.2,111,247.6,106.5,247.6,91.5z"/>
		<path class="st2" d="M284.5,21.3H303V110h-18.5V21.3z"/>
		<path class="st2" d="M306.5,21.3h19.4v16.4h-19.4V21.3z M307,44.8h18.5v65.1H307V44.8z"/>
		<path class="st2" d="M328.6,44.8h18.5V54c4.3-5.5,9.7-10.4,19.1-10.4c14,0,22.1,9.2,22.1,24.2V110h-18.5V73.6
			c0-8.7-4.1-13.2-11.2-13.2c-7,0-11.5,4.5-11.5,13.2v36.3h-18.5V44.8z"/>
	</g>
	<g class="st1">
		<rect x="0.2" y="24.9" width="85" height="85"/>
		<g>
			<path class="st2" d="M8.1,35.5h4.7v9.3l8.6-9.3h5.7l-8.7,9l9.1,12.3h-5.6l-6.6-9.1l-2.5,2.6v6.5H8.1V35.5z"/>
			<path class="st2" d="M34.4,39.9h-6.5v-4.3h17.7v4.3H39v17h-4.7v-17C34.3,39.9,34.4,39.9,34.4,39.9z"/>
		</g>
		<rect x="8.2" y="94" class="st2" width="31.9" height="5.3"/>
	</g>
</g>
<g class="st0">
	<g class="st1">
		<path class="st2" d="M106.8,24.8h38.9c10.8,0,19.2,3,24.8,8.6c4.7,4.7,7.3,11.4,7.3,19.4V53c0,13.7-7.4,22.4-18.2,26.4l20.8,30.4
			h-21.9l-18.2-27.2h-14.7v27.2h-18.7v-85C106.9,24.8,106.8,24.8,106.8,24.8z M144.4,66.1c9.1,0,14.3-4.9,14.3-12v-0.2
			c0-8-5.6-12.2-14.7-12.2h-18.6v24.4H144.4z"/>
		<path class="st2" d="M183.2,21.1h19.4v16.4h-19.4V21.1z M183.7,44.7h18.5v65.1h-18.5V44.7z"/>
		<path class="st2" d="M204.6,44.7h19.6l14.6,43.6l14.7-43.6h19.2L247,110.3h-16.8L204.6,44.7z"/>
		<path class="st2" d="M274.4,86.9V44.7h18.5V81c0,8.7,4.1,13.2,11.2,13.2c7,0,11.5-4.5,11.5-13.2V44.7h18.5v65.1h-18.5v-9.2
			c-4.3,5.5-9.7,10.4-19.1,10.4C282.6,111,274.4,101.8,274.4,86.9z"/>
		<path class="st2" d="M336,101.2l7.9-12.2c7,5.1,14.5,7.8,20.5,7.8c5.3,0,7.8-1.9,7.8-4.9v-0.2c0-4-6.3-5.3-13.5-7.5
			c-9.1-2.7-19.4-6.9-19.4-19.6v-0.2c0-13.2,10.7-20.7,23.8-20.7c8.3,0,17.3,2.8,24.3,7.5l-7,12.8c-6.4-3.8-12.9-6.1-17.6-6.1
			c-4.5,0-6.8,1.9-6.8,4.5v0.2c0,3.6,6.2,5.3,13.2,7.8c9.1,3,19.7,7.4,19.7,19.3V90c0,14.5-10.8,21-24.9,21
			C354.9,111,344.7,108,336,101.2z"/>
	</g>
	<g class="st1">
		<rect x="0.2" y="24.9" width="85" height="85"/>
		<g>
			<path class="st2" d="M8.1,35.5h9.7c2.7,0,4.8,0.8,6.2,2.2c1.2,1.2,1.8,2.9,1.8,4.9v0.1c0,3.4-1.9,5.6-4.6,6.6l5.2,7.6H21L16.5,50
				h-3.7v6.8H8.1V35.5z M17.6,45.9c2.3,0,3.6-1.2,3.6-3v-0.1c0-2-1.4-3-3.7-3h-4.6v6.1H17.6z"/>
			<path class="st2" d="M26.6,35.5h5.2l5.6,14.9L43,35.5h5.1l-8.6,21.3h-4.1L26.6,35.5z"/>
		</g>
		<rect x="8.2" y="94" class="st2" width="31.9" height="5.3"/>
	</g>
</g>
<g class="st0">
	<g class="st1">
		<rect x="0.2" y="24.9" width="85" height="85"/>
		<path class="st2" d="M8.1,35.5h8.2c6.7,0,11.3,4.6,11.3,10.6v0.1c0,6-4.6,10.6-11.3,10.6H8.1V35.5z M12.8,39.7v12.8h3.5
			c3.8,0,6.4-2.6,6.4-6.3v-0.1c0-3.8-2.6-6.4-6.4-6.4H12.8z"/>
		<polygon class="st2" points="28.9,35.6 33.9,35.6 39.5,44.5 45,35.6 50,35.6 50,56.7 45.4,56.7 45.4,42.9 39.5,51.9 39.4,51.9 
			33.5,43 33.5,56.7 28.9,56.7 		"/>
		<rect x="8.2" y="94" class="st2" width="32" height="5.3"/>
	</g>
	<g class="st1">
		<path d="M104.8,77.6v-0.2c0-21.7,14.2-33.7,29.6-33.7c9.8,0,15.9,4.5,20.3,9.7V21.3h18.5V110h-18.5v-9.4
			c-4.5,6.1-10.7,10.6-20.3,10.6C119.2,111.3,104.8,99.4,104.8,77.6z M155,77.6v-0.2c0-10.8-7.2-18-15.8-18s-15.9,7-15.9,18v0.2
			c0,10.8,7.3,18,15.9,18S155,88.4,155,77.6z"/>
		<path d="M175.4,77.8v-0.2c0-18.7,15.1-33.9,35.4-33.9c20.2,0,35.1,14.9,35.1,33.7v0.2c0,18.7-15.1,33.9-35.4,33.9
			C190.3,111.5,175.4,96.6,175.4,77.8z M227.6,77.8v-0.2c0-9.6-6.9-18-17.1-18c-10.6,0-16.9,8.1-16.9,17.7v0.2c0,9.6,6.9,18,17.1,18
			C221.3,95.6,227.6,87.4,227.6,77.8z"/>
		<path d="M251.1,91.6V60.7h-7.8V44.9h7.8V28.3h18.5v16.6h15.3v15.8h-15.3v27.8c0,4.3,1.8,6.3,6,6.3c3.4,0,6.4-0.9,9.1-2.3v14.8
			c-3.9,2.3-8.4,3.8-14.6,3.8C258.7,111.1,251.1,106.6,251.1,91.6z"/>
		<path d="M288.5,25h20.2L331,61l22.4-36h20.2v85H355V54.5l-24,36.3h-0.5l-23.7-36V110h-18.3V25z"/>
		<path d="M376.1,77.8v-0.2c0-18.6,13.2-33.9,32.2-33.9c21.7,0,31.7,16.9,31.7,35.4c0,1.5-0.1,3.2-0.2,4.9h-45.3
			c1.8,8.4,7.7,12.8,15.9,12.8c6.2,0,10.7-1.9,15.8-6.7l10.6,9.4c-6.1,7.5-14.8,12.2-26.6,12.2C390.6,111.5,376.1,97.8,376.1,77.8z
			 M422,72.4c-1.1-8.3-6-13.9-13.7-13.9s-12.6,5.5-14.1,13.9H422z"/>
		<path d="M442.3,44.9h18.5v9.2c4.3-5.5,9.8-10.5,19.2-10.5c8.5,0,14.9,3.8,18.3,10.3c5.7-6.7,12.5-10.3,21.4-10.3
			c13.7,0,22,8.3,22,23.9V110h-18.5V73.7c0-8.7-3.9-13.2-10.8-13.2s-11.2,4.5-11.2,13.2V110h-18.5V73.7c0-8.7-3.9-13.2-10.8-13.2
			s-11.2,4.5-11.2,13.2V110h-18.5L442.3,44.9L442.3,44.9z"/>
		<path d="M543.2,77.8v-0.2c0-18.7,15.1-33.9,35.4-33.9c20.2,0,35.1,14.9,35.1,33.7v0.2c0,18.7-15.1,33.9-35.4,33.9
			C558.1,111.5,543.2,96.6,543.2,77.8z M595.4,77.8v-0.2c0-9.6-6.9-18-17.1-18c-10.6,0-16.9,8.1-16.9,17.7v0.2c0,9.6,6.9,18,17.1,18
			C589.1,95.6,595.4,87.4,595.4,77.8z"/>
		<path d="M615.8,44.9h18.5V58c3.8-9,9.8-14.8,20.8-14.3V63h-1c-12.3,0-19.8,7.4-19.8,23v24h-18.5V44.9z"/>
		<path d="M705.6,44.9h19.2l-25,66.7c-5,13.2-10.3,18.2-21.4,18.2c-6.7,0-11.7-1.7-16.4-4.5l6.2-13.4c2.4,1.5,5.5,2.6,7.9,2.6
			c3.2,0,4.9-1,6.4-4.3L657,44.9h19.6l14.8,44.3L705.6,44.9z"/>
	</g>
</g>
<g class="st0">
	<g class="st1">
		<rect x="0.2" y="24.9" width="85" height="85"/>
		<path class="st2" d="M8.1,35.5h8.7c5.1,0,8.1,3,8.1,7.4V43c0,4.9-3.8,7.5-8.6,7.5h-3.6v6.4H8.1V35.5z M16.5,46.3
			c2.3,0,3.7-1.4,3.7-3.2V43c0-2.1-1.5-3.2-3.8-3.2h-3.6v6.5H16.5z"/>
		<path class="st2" d="M26.8,46.2L26.8,46.2c0-6.1,4.6-11.1,11.1-11.1c4,0,6.4,1.3,8.4,3.3l-3,3.4c-1.6-1.5-3.3-2.4-5.4-2.4
			c-3.6,0-6.2,3-6.2,6.6v0.1c0,3.6,2.5,6.7,6.2,6.7c2.4,0,3.9-1,5.6-2.5l3,3c-2.2,2.3-4.6,3.8-8.7,3.8
			C31.5,57.2,26.8,52.3,26.8,46.2"/>
		<rect x="8.2" y="94" class="st2" width="31.9" height="5.3"/>
	</g>
	<g class="st1">
		<path d="M106.4,24.9h34.7c20.3,0,32.5,12,32.5,29.4v0.2c0,19.7-15.3,29.9-34.4,29.9H125v25.5h-18.7L106.4,24.9L106.4,24.9z
			 M139.9,67.8c9.3,0,14.8-5.6,14.8-12.9v-0.2c0-8.4-5.8-12.9-15.2-12.9h-14.4v26C125.1,67.8,139.9,67.8,139.9,67.8z"/>
		<path d="M223,44.8h19.2l-25,66.7c-5,13.2-10.3,18.2-21.4,18.2c-6.7,0-11.7-1.7-16.4-4.5l6.2-13.4c2.4,1.5,5.5,2.5,7.9,2.5
			c3.2,0,4.9-1,6.4-4.2l-25.5-65.3h19.5l14.8,44.3L223,44.8z"/>
		<path d="M239.5,67.6v-0.2c0-24.2,18.2-44,44.3-44c16,0,25.6,5.3,33.5,13.1l-11.9,13.7c-6.6-5.9-13.2-9.6-21.7-9.6
			c-14.3,0-24.6,11.9-24.6,26.5v0.2c0,14.6,10.1,26.7,24.6,26.7c9.7,0,15.7-3.9,22.3-10l11.9,12c-8.7,9.3-18.5,15.2-34.8,15.2
			C258.1,111.3,239.5,92,239.5,67.6z"/>
		<path d="M319.7,21.2h18.5V54c4.2-5.5,9.7-10.4,19.1-10.4c14,0,22.1,9.2,22.1,24.2v42.1h-18.5V73.6c0-8.7-4.1-13.2-11.2-13.2
			c-7,0-11.5,4.5-11.5,13.2v36.3h-18.5V21.2z"/>
		<path d="M381.8,91.2V91c0-14.2,10.8-20.8,26.2-20.8c6.6,0,11.3,1.1,15.9,2.7v-1.1c0-7.6-4.7-11.9-14-11.9c-7,0-12,1.3-18,3.5
			l-4.6-14.1c7.2-3.2,14.2-5.2,25.3-5.2c10.1,0,17.4,2.7,22,7.3c4.9,4.9,7,12,7,20.8V110h-17.8v-7c-4.5,5-10.7,8.3-19.7,8.3
			C391.9,111.1,381.8,104.1,381.8,91.2z M424.2,86.9v-3.3c-3.2-1.5-7.3-2.4-11.8-2.4c-7.9,0-12.7,3.2-12.7,9v0.2
			c0,5,4.1,7.9,10.1,7.9C418.3,98.4,424.2,93.6,424.2,86.9z"/>
		<path d="M445.7,44.8h18.5v13.1c3.8-9,9.8-14.8,20.8-14.3v19.3h-1c-12.3,0-19.8,7.4-19.8,22.9v24h-18.5V44.8z"/>
		<path d="M488.5,44.8H507V54c4.2-5.5,9.8-10.4,19.2-10.4c8.5,0,14.9,3.8,18.3,10.3c5.7-6.7,12.5-10.3,21.4-10.3
			c13.7,0,22,8.3,22,23.9v42.4h-18.5V73.6c0-8.7-3.9-13.2-10.8-13.2c-6.9,0-11.2,4.5-11.2,13.2v36.3H529V73.6
			c0-8.7-3.9-13.2-10.8-13.2c-6.9,0-11.2,4.5-11.2,13.2v36.3h-18.5V44.8z"/>
	</g>
</g>
<g class="st0">
	<g class="st1">
		<g>
			<rect x="0.2" y="24.9" width="85" height="85"/>
			<rect x="8.2" y="94" class="st2" width="31.9" height="5.3"/>
		</g>
		<g>
			<path class="st2" d="M8.2,35.6h4.7V44h8.6v-8.4h4.7v21.2h-4.7v-8.5h-8.6v8.5H8.2V35.6z"/>
			<path class="st2" d="M29.6,35.6h9.9c2.4,0,4.3,0.7,5.6,1.9c1,1,1.5,2.2,1.5,3.6v0.1c0,2.4-1.3,3.7-2.8,4.6c2.5,0.9,4,2.4,4,5.2
				l0,0c0,3.9-3.2,5.8-8,5.8H29.6V35.6z M41.8,41.8c0-1.4-1.1-2.2-3.1-2.2h-4.6v4.5h4.3C40.5,44.1,41.8,43.5,41.8,41.8L41.8,41.8z
				 M39.6,48h-5.4v4.7h5.6c2.1,0,3.3-0.7,3.3-2.3v-0.1C43,48.9,42,48,39.6,48z"/>
		</g>
	</g>
	<g class="st1">
		<path d="M106.4,24.9h18.7v33.7h34.5V24.9h18.7V110h-18.7V75.8h-34.5v34.1h-18.7C106.4,109.9,106.4,24.9,106.4,24.9z"/>
		<path d="M183.4,87V44.8h18.5v36.3c0,8.7,4.1,13.2,11.2,13.2c7,0,11.5-4.5,11.5-13.2V44.8h18.5v65.1h-18.5v-9.2
			c-4.3,5.5-9.7,10.4-19.1,10.4C191.6,111.2,183.4,101.9,183.4,87z"/>
		<path d="M267.8,101.4v8.5h-18.5V21.2h18.5v32.9c4.5-6.1,10.7-10.6,20.3-10.6c15.2,0,29.6,11.9,29.6,33.7v0.2
			c0,21.7-14.2,33.7-29.6,33.7C278.2,111.2,272.1,106.7,267.8,101.4z M299.2,77.5v-0.2c0-10.8-7.3-18-15.9-18s-15.8,7.2-15.8,18v0.2
			c0,10.8,7.2,18,15.8,18S299.2,88.4,299.2,77.5z"/>
	</g>
</g>
<g class="st0">
	<g class="st1">
		<path d="M53.3,49.7h10.1l11.2,18l11.2-18h10.1v42.5h-9.3V64.5l-12,18.2h-0.2l-11.8-18v27.6h-9.2L53.3,49.7L53.3,49.7z"/>
		<path d="M96.8,76.1L96.8,76.1c0-9.4,6.6-17,16.1-17c10.9,0,15.9,8.4,15.9,17.7c0,0.7-0.1,1.6-0.1,2.4H106c0.9,4.2,3.8,6.4,8,6.4
			c3.1,0,5.3-1,7.9-3.3l5.3,4.7c-3,3.8-7.4,6.1-13.3,6.1C104,92.9,96.8,86.1,96.8,76.1z M119.7,73.4c-0.5-4.1-3-6.9-6.9-6.9
			c-3.8,0-6.3,2.7-7,6.9H119.7z"/>
		<path d="M131.6,83V67.6h-3.9v-7.9h3.9v-8.3h9.2v8.3h7.7v7.9h-7.7v13.9c0,2.1,0.9,3.2,3,3.2c1.7,0,3.2-0.4,4.6-1.2v7.4
			c-1.9,1.2-4.2,1.9-7.3,1.9C135.4,92.8,131.6,90.5,131.6,83z"/>
		<path d="M149.1,82.9L149.1,82.9c0-7.2,5.4-10.5,13.1-10.5c3.3,0,5.6,0.5,8,1.3v-0.5c0-3.8-2.4-6-7-6c-3.5,0-6,0.7-9,1.8l-2.3-7
			c3.6-1.6,7.1-2.6,12.6-2.6c5,0,8.7,1.3,11,3.6c2.4,2.4,3.5,6,3.5,10.4v18.9h-8.9v-3.5c-2.2,2.5-5.3,4.1-9.8,4.1
			C154.2,92.8,149.1,89.3,149.1,82.9z M170.3,80.7v-1.6c-1.6-0.7-3.6-1.2-5.9-1.2c-3.9,0-6.4,1.6-6.4,4.5v0.1c0,2.5,2.1,3.9,5,3.9
			C167.4,86.5,170.3,84.1,170.3,80.7z"/>
		<path d="M194.9,49.7h17.4c10.1,0,16.3,6,16.3,14.7v0.1c0,9.8-7.7,14.9-17.2,14.9h-7.1v12.8h-9.4V49.7z M211.6,71.1
			c4.7,0,7.4-2.8,7.4-6.4v-0.1c0-4.2-2.9-6.4-7.6-6.4h-7.2v13L211.6,71.1L211.6,71.1z"/>
		<path d="M229.5,59.7h9.2v6.6c1.9-4.5,4.9-7.4,10.4-7.2v9.7h-0.5c-6.1,0-9.9,3.7-9.9,11.5v12h-9.2V59.7z"/>
		<path d="M248.3,76.1L248.3,76.1c0-9.5,7.5-17,17.7-17c10.1,0,17.6,7.5,17.6,16.8V76c0,9.4-7.5,16.9-17.7,16.9
			C255.8,92.9,248.3,85.5,248.3,76.1z M274.5,76.1L274.5,76.1c0-4.9-3.5-9.1-8.6-9.1c-5.3,0-8.4,4.1-8.4,8.9V76c0,4.8,3.5,9,8.6,9
			C271.3,85,274.5,80.9,274.5,76.1z"/>
		<path d="M286,98.7l3.2-6.9c3.3,1.9,6.7,3,11,3c6.3,0,9.3-3,9.3-8.9v-1.6c-2.7,3.3-5.7,5.3-10.6,5.3c-7.6,0-14.5-5.5-14.5-15.2
			v-0.1c0-9.7,7-15.2,14.5-15.2c5,0,8,2.1,10.5,4.9v-4.3h9.2v25.2c0,5.8-1.4,10.1-4.1,12.8c-3,3-7.7,4.4-14,4.4
			C295.1,102.1,290.1,100.8,286,98.7z M309.4,74.4L309.4,74.4c0-4.5-3.5-7.6-8-7.6s-7.9,3.1-7.9,7.5v0.1c0,4.5,3.4,7.5,7.9,7.5
			S309.4,78.8,309.4,74.4z"/>
		<path d="M320.5,59.7h9.2v6.6c1.9-4.5,4.9-7.4,10.4-7.2v9.7h-0.5c-6.1,0-9.9,3.7-9.9,11.5v12h-9.2V59.7z"/>
		<path d="M338.1,82.9L338.1,82.9c0-7.2,5.4-10.5,13.1-10.5c3.3,0,5.6,0.5,8,1.3v-0.5c0-3.8-2.4-6-7-6c-3.5,0-6,0.7-9,1.8l-2.3-7
			c3.6-1.6,7.1-2.6,12.6-2.6c5,0,8.7,1.3,11,3.6c2.4,2.4,3.5,6,3.5,10.4v18.9h-8.9v-3.5c-2.2,2.5-5.3,4.1-9.8,4.1
			C343.2,92.8,338.1,89.3,338.1,82.9z M359.3,80.7v-1.6c-1.6-0.7-3.6-1.2-5.9-1.2c-3.9,0-6.4,1.6-6.4,4.5v0.1c0,2.5,2.1,3.9,5,3.9
			C356.4,86.5,359.3,84.1,359.3,80.7z"/>
		<path d="M369.9,59.7h9.2v4.6c2.1-2.7,4.9-5.2,9.6-5.2c4.3,0,7.5,1.9,9.2,5.2c2.9-3.3,6.3-5.2,10.7-5.2c6.9,0,11,4.1,11,12v21.2
			h-9.2V74.1c0-4.4-1.9-6.6-5.4-6.6s-5.6,2.2-5.6,6.6v18.2h-9.2V74.1c0-4.4-1.9-6.6-5.4-6.6s-5.6,2.2-5.6,6.6v18.2H370V59.7H369.9z"
			/>
		<path d="M421.4,59.7h9.2v4.6c2.1-2.7,4.9-5.2,9.6-5.2c4.3,0,7.5,1.9,9.2,5.2c2.9-3.3,6.3-5.2,10.7-5.2c6.9,0,11,4.1,11,12v21.2
			h-9.2V74.1c0-4.4-1.9-6.6-5.4-6.6s-5.6,2.2-5.6,6.6v18.2h-9.2V74.1c0-4.4-1.9-6.6-5.4-6.6s-5.6,2.2-5.6,6.6v18.2h-9.2V59.7H421.4z
			"/>
		<path d="M473,47.9h9.7v8.2H473V47.9z M473.3,59.7h9.2v32.6h-9.2V59.7z"/>
		<path d="M485,59.7h9.2v4.6c2.1-2.7,4.9-5.2,9.5-5.2c7,0,11.1,4.6,11.1,12.1v21.1h-9.2V74.1c0-4.4-2.1-6.6-5.6-6.6
			s-5.8,2.2-5.8,6.6v18.2H485V59.7z"/>
		<path d="M517.7,98.7l3.2-6.9c3.3,1.9,6.7,3,11,3c6.3,0,9.3-3,9.3-8.9v-1.6c-2.7,3.3-5.7,5.3-10.6,5.3c-7.6,0-14.5-5.5-14.5-15.2
			v-0.1c0-9.7,7-15.2,14.5-15.2c5,0,8,2.1,10.5,4.9v-4.3h9.2v25.2c0,5.8-1.4,10.1-4.1,12.8c-3,3-7.7,4.4-14,4.4
			C526.8,102.1,521.8,100.8,517.7,98.7z M541.1,74.4L541.1,74.4c0-4.5-3.5-7.6-8-7.6s-7.9,3.1-7.9,7.5v0.1c0,4.5,3.4,7.5,7.9,7.5
			S541.1,78.8,541.1,74.4z"/>
		<path d="M562.3,86l5.5-6.6c3.8,3.2,7.8,5.2,12.7,5.2c3.8,0,6.1-1.5,6.1-4v-0.1c0-2.4-1.5-3.6-8.6-5.4c-8.6-2.2-14.1-4.6-14.1-13
			V62c0-7.7,6.2-12.8,14.9-12.8c6.2,0,11.5,1.9,15.8,5.4l-4.9,7c-3.8-2.6-7.5-4.2-11.1-4.2s-5.5,1.6-5.5,3.7v0.1
			c0,2.8,1.8,3.7,9.2,5.6c8.6,2.2,13.5,5.3,13.5,12.8v0.1c0,8.4-6.4,13.2-15.6,13.2C573.9,92.8,567.4,90.6,562.3,86z"/>
		<path d="M616.5,59.7h9.6L613.6,93c-2.5,6.6-5.2,9.1-10.7,9.1c-3.3,0-5.8-0.9-8.2-2.2l3.1-6.7c1.2,0.7,2.7,1.3,3.9,1.3
			c1.6,0,2.4-0.5,3.2-2.1l-12.8-32.7h9.8l7.4,22.2L616.5,59.7z"/>
		<path d="M622.5,87.9l3.9-6.1c3.5,2.6,7.2,3.9,10.3,3.9c2.7,0,3.9-1,3.9-2.4v-0.1c0-2-3.2-2.7-6.7-3.8c-4.6-1.3-9.7-3.5-9.7-9.8
			v-0.1c0-6.6,5.3-10.3,11.9-10.3c4.1,0,8.6,1.4,12.1,3.8l-3.5,6.4c-3.2-1.9-6.4-3-8.8-3c-2.2,0-3.4,1-3.4,2.2v0.1
			c0,1.8,3.1,2.7,6.6,3.9c4.6,1.5,9.8,3.7,9.8,9.7v0.1c0,7.2-5.4,10.5-12.5,10.5C631.9,92.8,626.8,91.3,622.5,87.9z"/>
		<path d="M652.8,83V67.6h-3.9v-7.9h3.9v-8.3h9.2v8.3h7.7v7.9H662v13.9c0,2.1,0.9,3.2,3,3.2c1.7,0,3.2-0.4,4.6-1.2v7.4
			c-1.9,1.2-4.2,1.9-7.3,1.9C656.6,92.8,652.8,90.5,652.8,83z"/>
		<path d="M669.4,76.1L669.4,76.1c0-9.4,6.6-17,16.1-17c10.9,0,15.9,8.4,15.9,17.7c0,0.7-0.1,1.6-0.1,2.4h-22.7
			c0.9,4.2,3.8,6.4,8,6.4c3.1,0,5.3-1,7.9-3.3l5.3,4.7c-3,3.8-7.4,6.1-13.3,6.1C676.7,92.9,669.4,86.1,669.4,76.1z M692.4,73.4
			c-0.5-4.1-3-6.9-6.9-6.9c-3.8,0-6.3,2.7-7,6.9H692.4z"/>
		<path d="M702.8,59.7h9.2v4.6c2.1-2.7,4.9-5.2,9.6-5.2c4.3,0,7.5,1.9,9.2,5.2c2.9-3.3,6.3-5.2,10.7-5.2c6.9,0,11,4.1,11,12v21.2
			h-9.2V74.1c0-4.4-1.9-6.6-5.4-6.6s-5.6,2.2-5.6,6.6v18.2H723V74.1c0-4.4-1.9-6.6-5.4-6.6s-5.6,2.2-5.6,6.6v18.2h-9.2V59.7z"/>
	</g>
	<g class="st1">
		<rect x="0.2" y="49.7" width="42.5" height="42.5"/>
		<rect x="4.2" y="84.2" class="st2" width="15.9" height="2.7"/>
		<polygon class="st2" points="4.1,55.1 7.1,55.1 10.5,60.5 13.8,55.1 16.8,55.1 16.8,67.8 14.1,67.8 14.1,59.5 10.5,65 10.4,65 
			6.9,59.6 6.9,67.8 4.1,67.8 		"/>
		<path class="st2" d="M18.3,55.1h5.2c3,0,4.9,1.8,4.9,4.4l0,0c0,2.9-2.3,4.5-5.1,4.5h-2.1v3.8h-2.8L18.3,55.1z M23.3,61.5
			c1.4,0,2.2-0.8,2.2-1.9l0,0c0-1.3-0.9-1.9-2.3-1.9H21v3.9L23.3,61.5L23.3,61.5z"/>
		<path class="st4" d="M29.1,66l1.7-2c1.1,0.9,2.3,1.5,3.8,1.5c1.1,0,1.8-0.5,1.8-1.2l0,0c0-0.7-0.4-1.1-2.6-1.6
			c-2.6-0.7-4.2-1.4-4.2-3.9l0,0c0-2.3,1.9-3.8,4.5-3.8c1.9,0,3.4,0.6,4.7,1.6l-1.5,2.1c-1.1-0.8-2.2-1.3-3.3-1.3s-1.6,0.5-1.6,1.1
			l0,0c0,0.8,0.5,1.1,2.7,1.7c2.6,0.7,4,1.6,4,3.8l0,0c0,2.5-1.9,3.9-4.7,3.9C32.5,68,30.6,67.4,29.1,66"/>
	</g>
</g>
<g class="st0">
	<g class="st1">
		<rect x="0.2" y="24.9" width="85" height="85"/>
		<path class="st2" d="M8.1,35.5h8.7c5.1,0,8.2,3,8.2,7.4V43c0,4.9-3.8,7.5-8.6,7.5h-3.6v6.4H8.1V35.5z M16.5,46.3
			c2.3,0,3.7-1.4,3.7-3.2V43c0-2.1-1.5-3.2-3.8-3.2h-3.6v6.5H16.5z"/>
		<path class="st2" d="M26.1,53.8l2.8-3.3c1.9,1.6,3.9,2.6,6.4,2.6c1.9,0,3.1-0.8,3.1-2V51c0-1.2-0.7-1.8-4.3-2.7
			C29.8,47.2,27,46,27,41.7v-0.1c0-3.9,3.1-6.4,7.5-6.4c3.1,0,5.8,1,7.9,2.7L40,41.5c-1.9-1.3-3.8-2.1-5.6-2.1s-2.8,0.8-2.8,1.9v0.1
			c0,1.4,0.9,1.9,4.6,2.8c4.3,1.1,6.8,2.7,6.8,6.4v0.1c0,4.2-3.2,6.6-7.8,6.6C32,57.2,28.7,56.1,26.1,53.8"/>
		<rect x="8.1" y="94" class="st2" width="31.9" height="5.3"/>
	</g>
	<g class="st1">
		<path d="M106.3,24.9H141c20.3,0,32.6,12,32.6,29.4v0.2c0,19.7-15.3,29.9-34.4,29.9H125v25.5h-18.7V24.9z M139.8,67.8
			c9.4,0,14.8-5.6,14.8-12.9v-0.2c0-8.4-5.8-12.9-15.2-12.9H125v26C125,67.8,139.8,67.8,139.8,67.8z"/>
		<path d="M176.9,21.3h18.5v32.8c4.3-5.5,9.7-10.4,19.1-10.4c14,0,22.1,9.2,22.1,24.2v42.2h-18.5V73.6c0-8.7-4.1-13.2-11.2-13.2
			s-11.5,4.5-11.5,13.2v36.3h-18.5L176.9,21.3L176.9,21.3z"/>
		<path d="M240.4,44.8h18.5v9.4c4.5-6.1,10.7-10.6,20.3-10.6c15.2,0,29.6,11.9,29.6,33.7v0.2c0,21.7-14.2,33.7-29.6,33.7
			c-9.8,0-15.9-4.5-20.3-9.7v27.9h-18.5V44.8z M290.4,77.5v-0.2c0-10.8-7.3-18-15.9-18s-15.8,7.2-15.8,18v0.2c0,10.8,7.2,18,15.8,18
			S290.4,88.4,290.4,77.5z"/>
		<path d="M306,97.6l11.1-13.2c7.7,6.3,15.7,10.3,25.4,10.3c7.7,0,12.3-3,12.3-8v-0.2c0-4.7-2.9-7.2-17.1-10.8
			c-17.1-4.4-28.2-9.1-28.2-26v-0.2c0-15.4,12.4-25.6,29.8-25.6c12.4,0,23,3.9,31.6,10.8l-9.7,14.1c-7.5-5.2-14.9-8.4-22.1-8.4
			s-10.9,3.3-10.9,7.4V48c0,5.6,3.6,7.4,18.3,11.2c17.3,4.5,27,10.7,27,25.5v0.2c0,16.9-12.9,26.4-31.2,26.4
			C329.2,111.2,316.2,106.7,306,97.6z"/>
		<path d="M377.6,91.5V60.6h-7.8V44.8h7.8V28.2h18.5v16.6h15.3v15.8h-15.3v27.8c0,4.3,1.8,6.3,6,6.3c3.4,0,6.4-0.9,9.1-2.3v14.8
			c-3.9,2.3-8.4,3.8-14.6,3.8C385.2,111,377.6,106.5,377.6,91.5z"/>
		<path d="M410.1,77.8v-0.2c0-18.7,15.1-33.9,35.4-33.9c20.2,0,35.1,14.9,35.1,33.7v0.2c0,18.7-15.1,33.9-35.4,33.9
			C425.1,111.4,410.1,96.5,410.1,77.8z M462.4,77.8v-0.2c0-9.6-6.9-18-17.1-18c-10.6,0-16.9,8.1-16.9,17.7v0.2c0,9.6,6.9,18,17.1,18
			C456.1,95.5,462.4,87.3,462.4,77.8z"/>
		<path d="M483,44.8h18.5v13.1c3.8-9,9.8-14.8,20.8-14.3v19.3h-1c-12.3,0-19.8,7.4-19.8,23V110H483V44.8z"/>
		<path d="M524.7,44.8h18.5V54c4.3-5.5,9.8-10.4,19.2-10.4c8.5,0,14.9,3.8,18.3,10.3c5.7-6.7,12.5-10.3,21.4-10.3
			c13.7,0,22,8.3,22,23.9v42.4h-18.5V73.6c0-8.7-3.9-13.2-10.8-13.2s-11.2,4.5-11.2,13.2v36.3h-18.5V73.6c0-8.7-3.9-13.2-10.8-13.2
			s-11.2,4.5-11.2,13.2v36.3h-18.5L524.7,44.8L524.7,44.8z"/>
	</g>
</g>
<g class="st0">
	<g class="st1">
		<g>
			<rect x="0.2" y="24.9" width="85" height="85"/>
			<rect x="8" y="94" class="st2" width="31.9" height="5.3"/>
		</g>
		<path class="st2" d="M8.1,35.5h5.1l5.6,9l5.6-9h5.1v21.3h-4.7V42.9l-6,9.1h-0.1l-5.9-9v13.8H8.1V35.5z"/>
		<g>
			<path class="st2" d="M31.7,35.5h9.9c2.4,0,4.3,0.7,5.6,1.9c1,1,1.5,2.2,1.5,3.6v0.1c0,2.4-1.3,3.7-2.8,4.6c2.5,0.9,4,2.4,4,5.2
				V51c0,3.9-3.2,5.8-8,5.8H31.7V35.5z M43.9,41.8c0-1.4-1.1-2.2-3.1-2.2h-4.6v4.5h4.3C42.6,44.1,43.9,43.4,43.9,41.8L43.9,41.8z
				 M41.7,48h-5.4v4.7h5.6c2.1,0,3.3-0.7,3.3-2.3v-0.1C45.1,48.9,44.1,48,41.7,48z"/>
		</g>
	</g>
	<g class="st1">
		<path d="M111.5,24.8h20.2l22.4,36l22.4-36h20.2v85.1h-18.6V54.3L154,90.7h-0.5l-23.7-36v55.2h-18.3V24.8z"/>
		<path d="M199.4,77.7v-0.2c0-18.6,13.2-33.9,32.2-33.9c21.7,0,31.7,16.9,31.7,35.4c0,1.5-0.1,3.2-0.2,4.9h-45.3
			c1.8,8.4,7.7,12.8,15.9,12.8c6.2,0,10.7-1.9,15.8-6.7l10.6,9.4c-6.1,7.5-14.8,12.2-26.6,12.2C213.9,111.3,199.4,97.6,199.4,77.7z
			 M245.3,72.2c-1.1-8.3-6-13.9-13.7-13.9s-12.6,5.5-14.1,13.9C217.5,72.2,245.3,72.2,245.3,72.2z"/>
		<path d="M269,122.8l6.3-13.9c6.7,3.8,13.4,6,22,6c12.6,0,18.6-6.1,18.6-17.7V94c-5.5,6.6-11.4,10.6-21.3,10.6
			c-15.2,0-28.9-11.1-28.9-30.4V74c0-19.4,14-30.4,28.9-30.4c10.1,0,16,4.3,21,9.7v-8.5h18.5v50.4c0,11.7-2.8,20.2-8.3,25.6
			c-6.1,6.1-15.4,8.7-28.1,8.7C287.3,129.6,277.3,127.1,269,122.8z M315.9,74.1v-0.2c0-8.9-6.9-15.1-15.9-15.1s-15.8,6.2-15.8,15.1
			v0.2c0,9,6.8,15.1,15.8,15.1S315.9,83,315.9,74.1z"/>
		<path d="M337.3,91.2V91c0-14.2,10.8-20.8,26.2-20.8c6.6,0,11.3,1.1,15.9,2.7v-1.1c0-7.7-4.7-11.9-14-11.9c-7,0-12,1.3-18,3.5
			l-4.6-14.1c7.2-3.2,14.2-5.2,25.3-5.2c10.1,0,17.4,2.7,22,7.3c4.9,4.9,7,12,7,20.8V110h-17.9v-7c-4.5,5-10.7,8.3-19.7,8.3
			C347.4,111.1,337.3,104,337.3,91.2z M379.7,86.9v-3.3c-3.2-1.5-7.3-2.4-11.8-2.4c-7.9,0-12.8,3.2-12.8,9v0.2c0,5,4.1,7.9,10.1,7.9
			C373.9,98.3,379.7,93.6,379.7,86.9z"/>
		<path d="M404.1,24.8h39.5c9.7,0,17.4,2.7,22.2,7.5c3.9,3.9,5.8,8.6,5.8,14.5V47c0,9.6-5.1,14.9-11.2,18.3
			c9.8,3.8,15.9,9.5,15.9,20.9v0.2c0,15.6-12.6,23.3-31.8,23.3H404V24.8H404.1z M453.1,50c0-5.6-4.4-8.7-12.3-8.7h-18.5v18h17.3
			c8.3,0,13.5-2.7,13.5-9V50z M444,74.8h-21.6v18.7h22.2c8.3,0,13.2-2.9,13.2-9.2V84C457.8,78.3,453.6,74.8,444,74.8z"/>
		<path d="M478.7,91.2V91c0-14.2,10.8-20.8,26.2-20.8c6.6,0,11.3,1.1,15.9,2.7v-1.1c0-7.7-4.7-11.9-14-11.9c-7,0-12,1.3-18,3.5
			l-4.6-14.1c7.2-3.2,14.2-5.2,25.3-5.2c10.1,0,17.4,2.7,22,7.3c4.9,4.9,7,12,7,20.8V110h-17.9v-7c-4.5,5-10.7,8.3-19.7,8.3
			C488.8,111.1,478.7,104,478.7,91.2z M521.1,86.9v-3.3c-3.2-1.5-7.3-2.4-11.8-2.4c-7.9,0-12.8,3.2-12.8,9v0.2c0,5,4.1,7.9,10.1,7.9
			C515.3,98.3,521.1,93.6,521.1,86.9z"/>
		<path d="M540.7,101.2l7.9-12.2c7,5.1,14.5,7.8,20.5,7.8c5.3,0,7.8-1.9,7.8-4.9v-0.2c0-4-6.3-5.3-13.5-7.5
			c-9.1-2.7-19.4-6.9-19.4-19.6v-0.2c0-13.2,10.7-20.7,23.8-20.7c8.3,0,17.3,2.8,24.3,7.5l-7,12.8c-6.4-3.8-12.9-6.1-17.6-6.1
			c-4.5,0-6.8,1.9-6.8,4.5v0.2c0,3.6,6.2,5.3,13.2,7.8c9.1,3,19.7,7.4,19.7,19.3v0.2c0,14.5-10.8,21-24.9,21
			C559.5,111.1,549.3,108,540.7,101.2z"/>
		<path d="M594.9,77.7v-0.2c0-18.6,13.2-33.9,32.2-33.9c21.7,0,31.7,16.9,31.7,35.4c0,1.5-0.1,3.2-0.2,4.9h-45.3
			c1.8,8.4,7.7,12.8,15.9,12.8c6.2,0,10.7-1.9,15.8-6.7l10.6,9.4c-6.1,7.5-14.8,12.2-26.6,12.2C609.4,111.3,594.9,97.6,594.9,77.7z
			 M640.9,72.2c-1.1-8.3-6-13.9-13.7-13.9s-12.6,5.5-14.1,13.9C613.1,72.2,640.9,72.2,640.9,72.2z"/>
	</g>
</g>
<g class="st0">
	<g class="st1">
		<g>
			<rect x="0.2" y="24.9" width="85" height="85"/>
			<rect x="8" y="94" class="st2" width="31.9" height="5.3"/>
		</g>
	</g>
	<g class="st1">
		<g>
			<path class="st2" d="M8.1,35.5h8.3c6.7,0,11.3,4.6,11.3,10.6v0.1c0,6-4.6,10.6-11.3,10.6H8.1V35.5z M12.7,39.7v12.8h3.6
				c3.8,0,6.4-2.6,6.4-6.3v-0.1c0-3.8-2.6-6.4-6.4-6.4H12.7z"/>
			<path class="st2" d="M28.5,46.2L28.5,46.2c0-6.1,4.7-11,11.1-11c3.8,0,6.1,1,8.3,2.9L45,41.6c-1.6-1.4-3.1-2.2-5.6-2.2
				c-3.4,0-6.1,3-6.1,6.6v0.1c0,3.9,2.7,6.7,6.4,6.7c1.7,0,3.2-0.4,4.4-1.3v-3h-4.7v-4h9.2v9.2c-2.2,1.9-5.2,3.4-9.1,3.4
				C33,57.1,28.5,52.5,28.5,46.2z"/>
		</g>
	</g>
	<g class="st1">
		<path d="M112,24.8h33c26.7,0,45.1,18.3,45.1,42.2v0.2c0,23.9-18.4,42.4-45.1,42.4h-33V24.8z M130.6,41.6v51.1H145
			c15.3,0,25.6-10.3,25.6-25.3v-0.2c0-15-10.3-25.6-25.6-25.6C145,41.6,130.6,41.6,130.6,41.6z"/>
		<path d="M189,90.9v-0.2c0-14.2,10.8-20.7,26.2-20.7c6.5,0,11.3,1.1,15.9,2.7v-1.1c0-7.6-4.7-11.9-13.9-11.9c-7,0-12,1.3-17.9,3.5
			l-4.6-14.1c7.2-3.2,14.2-5.2,25.2-5.2c10.1,0,17.3,2.7,21.9,7.3c4.8,4.8,7,12,7,20.7v37.7H231v-7c-4.5,5-10.7,8.2-19.6,8.2
			C199.1,110.8,189,103.8,189,90.9z M231.3,86.7v-3.3c-3.2-1.5-7.3-2.4-11.8-2.4c-7.9,0-12.7,3.2-12.7,9v0.2c0,5,4.1,7.9,10.1,7.9
			C225.5,98.1,231.3,93.4,231.3,86.7z"/>
		<path d="M257.3,91.2V60.4h-7.8V44.6h7.8V28h18.4v16.6H291v15.8h-15.3v27.8c0,4.2,1.8,6.3,5.9,6.3c3.4,0,6.4-0.8,9.1-2.3V107
			c-3.9,2.3-8.4,3.8-14.5,3.8C264.9,110.7,257.3,106.2,257.3,91.2z"/>
		<path d="M292.8,90.9v-0.2c0-14.2,10.8-20.7,26.2-20.7c6.5,0,11.3,1.1,15.9,2.7v-1.1c0-7.6-4.7-11.9-13.9-11.9
			c-7,0-12,1.3-17.9,3.5l-4.6-14.1c7.2-3.2,14.2-5.2,25.2-5.2c10.1,0,17.3,2.7,21.9,7.3c4.8,4.8,7,12,7,20.7v37.7h-17.8v-7
			c-4.5,5-10.7,8.2-19.6,8.2C302.9,110.8,292.8,103.8,292.8,90.9z M335.1,86.7v-3.3c-3.2-1.5-7.3-2.4-11.8-2.4
			c-7.9,0-12.7,3.2-12.7,9v0.2c0,5,4.1,7.9,10.1,7.9C329.3,98.1,335.1,93.4,335.1,86.7z"/>
		<path d="M356.1,67.4v-0.2c0-24.1,18.8-43.9,44.5-43.9c15.3,0,24.5,4.1,33.3,11.6l-11.8,14.2c-6.5-5.5-12.4-8.6-22.2-8.6
			c-13.6,0-24.4,12-24.4,26.4v0.2c0,15.5,10.7,26.9,25.7,26.9c6.8,0,12.8-1.7,17.6-5.1v-12H400V60.8h36.8v36.8
			c-8.7,7.4-20.7,13.5-36.2,13.5C374.2,111.1,356.1,92.5,356.1,67.4z"/>
		<path d="M442.4,44.6h18.4v13.1c3.8-9,9.8-14.8,20.7-14.3v19.3h-1c-12.2,0-19.8,7.4-19.8,22.9v24h-18.4L442.4,44.6L442.4,44.6z"/>
		<path d="M485.9,21.1h19.4v16.4h-19.4V21.1z M486.4,44.6h18.4v65h-18.4V44.6z"/>
		<path d="M512.3,44.6h18.4V54c4.5-6.1,10.7-10.5,20.2-10.5c15.1,0,29.6,11.9,29.6,33.6v0.2c0,21.7-14.2,33.6-29.6,33.6
			c-9.8,0-15.9-4.5-20.2-9.7V129h-18.4V44.6z M562.1,77.3V77c0-10.8-7.3-17.9-15.9-17.9c-8.6,0-15.8,7.2-15.8,17.9v0.2
			c0,10.8,7.2,17.9,15.8,17.9C554.8,95.2,562.1,88.2,562.1,77.3z"/>
	</g>
</g>
<g class="st0">
	<g class="st1">
		<g>
			<rect x="0.2" y="24.9" width="85" height="85"/>
			<rect x="8" y="94" class="st2" width="31.9" height="5.3"/>
		</g>
	</g>
	<g class="st1">
		<path d="M112,24.8h38.8c10.8,0,19.1,3,24.7,8.6c4.7,4.7,7.3,11.4,7.3,19.4V53c0,13.7-7.4,22.3-18.2,26.3l20.7,30.3h-21.8
			l-18.2-27.1h-14.7v27.1H112V24.8z M149.5,66c9.1,0,14.3-4.8,14.3-12v-0.2c0-8-5.6-12.1-14.7-12.1h-18.5V66H149.5z"/>
		<path d="M186.9,21.1h19.4v16.4h-19.4V21.1z M187.3,44.6h18.4v65h-18.4V44.6z"/>
		<path d="M209,77.3V77c0-21.7,14.2-33.6,29.6-33.6c9.8,0,15.9,4.5,20.2,9.7v-32h18.4v88.5h-18.4v-9.3c-4.5,6.1-10.7,10.5-20.2,10.5
			C223.5,110.8,209,98.9,209,77.3z M259.1,77.3V77c0-10.8-7.2-17.9-15.8-17.9s-15.9,7-15.9,17.9v0.2c0,10.8,7.3,17.9,15.9,17.9
			C251.9,95.2,259.1,88,259.1,77.3z"/>
		<path d="M279.5,77.5v-0.2c0-18.5,13.2-33.8,32.1-33.8c21.7,0,31.6,16.8,31.6,35.3c0,1.5-0.1,3.2-0.2,4.8h-45.2
			c1.8,8.4,7.6,12.7,15.9,12.7c6.2,0,10.7-1.9,15.8-6.7l10.5,9.3c-6.1,7.5-14.8,12.1-26.5,12.1C293.9,111.1,279.5,97.4,279.5,77.5z
			 M325.3,72c-1.1-8.2-5.9-13.8-13.7-13.8c-7.6,0-12.6,5.5-14.1,13.8H325.3z"/>
		<path d="M345.8,44.6h18.4v13.1c3.8-9,9.8-14.8,20.7-14.3v19.3h-1c-12.2,0-19.8,7.4-19.8,22.9v24h-18.4L345.8,44.6L345.8,44.6z"/>
	</g>
	<g class="st1">
		<path class="st2" d="M8.1,35.1h9.7c2.7,0,4.8,0.8,6.2,2.2c1.2,1.2,1.8,2.9,1.8,4.9v0.1c0,3.4-1.9,5.6-4.6,6.6l5.2,7.6H21l-4.6-6.8
			h-3.7v6.8H8.1V35.1z M17.5,45.4c2.3,0,3.6-1.2,3.6-3v-0.1c0-2-1.4-3-3.7-3h-4.6v6.1H17.5z"/>
		<path class="st2" d="M29,35.1h8.3c6.7,0,11.3,4.6,11.3,10.6v0.1c0,6-4.6,10.6-11.3,10.6H29V35.1z M33.6,39.3v12.8h3.6
			c3.8,0,6.4-2.6,6.4-6.3v-0.1c0-3.8-2.6-6.4-6.4-6.4H33.6z"/>
	</g>
</g>
<radialGradient id="SVGID_1_" cx="435" cy="80" r="426.1982" gradientTransform="matrix(1 6.472438e-03 -1.063068e-03 0.1642 9.415717e-02 64.0451)" gradientUnits="userSpaceOnUse">
	<stop  offset="0" style="stop-color:#000000;stop-opacity:0.3"/>
	<stop  offset="0.1762" style="stop-color:#231F20;stop-opacity:0.3"/>
	<stop  offset="1" style="stop-color:#000000;stop-opacity:0"/>
</radialGradient>
<rect class="st5" width="870" height="160"/>
</svg>
