<svg version="1.1" xmlns="http://www.w3.org/2000/svg" x="0" y="0" width="70" height="70" viewBox="0 0 70 70" xml:space="preserve"><path fill="#21D789" d="M11.4 32.2L56.7 40.8 42.4 70 0 60.9"/><linearGradient id="a" gradientUnits="userSpaceOnUse" x1="0" y1="22.22" x2="70" y2="22.22"><stop offset=".059" stop-color="#2B86D0"/><stop offset=".887" stop-color="#21D789"/></linearGradient><path fill="url(#a)" d="M48.8 0.1L0 12.1 2.1 37.7 34.5 34.4 54.5 44.3 57.2 39.4 70 15.7"/><linearGradient id="b" gradientUnits="userSpaceOnUse" x1="19.931" y1="5.834" x2="44.575" y2="59.186"><stop offset=".167" stop-color="#F1EB5E"/><stop offset=".581" stop-color="#26ADAE"/><stop offset=".632" stop-color="#28A1B9"/><stop offset=".718" stop-color="#2992C6"/><stop offset=".79" stop-color="#2A8DCA"/><stop offset="1" stop-color="#2B86D0"/></linearGradient><path fill="url(#b)" d="M31.5 0L2.1 37.7 62.6 53.5 69.7 43"/><g><path fill="#000" d="M13.4 13.4H56.6V56.6H13.4z"/><g fill="#FFF"><path d="M17.4 48.5H33.599999999999994V51.2H17.4z"/><path d="M17.4 18.9L20.4 18.9 23.9 24.4 27.3 18.9 30.3 18.9 30.3 31.8 27.5 31.8 27.5 23.4 23.9 28.9 23.8 28.9 20.2 23.4 20.2 31.8 17.4 31.8"/><path d="M31.8,18.9l5.3,0c3.1,0,5,1.8,5,4.5v0c0,3-2.3,4.5-5.2,4.5l-2.2,0l0,3.9l-2.8,0L31.8,18.9z M36.9,25.4c1.4,0,2.3-0.9,2.3-2v0c0-1.3-0.9-2-2.3-2l-2.2,0l0,4L36.9,25.4z"/><path d="M42.7,30l1.7-2c1.2,1,2.4,1.6,3.9,1.6c1.2,0,1.9-0.5,1.9-1.2v0c0-0.7-0.4-1.1-2.6-1.6 c-2.6-0.7-4.3-1.4-4.3-4v0c0-2.3,1.9-3.9,4.5-3.9c1.9,0,3.5,0.6,4.8,1.6l-1.5,2.1c-1.1-0.8-2.3-1.3-3.4-1.3 c-1.1,0-1.7,0.5-1.7,1.1v0c0,0.9,0.6,1.1,2.8,1.7c2.6,0.7,4.1,1.6,4.1,3.9v0c0,2.6-2,4-4.8,4C46.3,32,44.3,31.3,42.7,30"/></g></g></svg>